%TF.GenerationSoftware,KiCad,Pcbnew,(6.0.5-0)*%
%TF.CreationDate,2022-07-17T22:17:14-04:00*%
%TF.ProjectId,Annahs_clock_hps,416e6e61-6873-45f6-936c-6f636b5f6870,rev?*%
%TF.SameCoordinates,Original*%
%TF.FileFunction,Soldermask,Top*%
%TF.FilePolarity,Negative*%
%FSLAX46Y46*%
G04 Gerber Fmt 4.6, Leading zero omitted, Abs format (unit mm)*
G04 Created by KiCad (PCBNEW (6.0.5-0)) date 2022-07-17 22:17:14*
%MOMM*%
%LPD*%
G01*
G04 APERTURE LIST*
G04 Aperture macros list*
%AMRoundRect*
0 Rectangle with rounded corners*
0 $1 Rounding radius*
0 $2 $3 $4 $5 $6 $7 $8 $9 X,Y pos of 4 corners*
0 Add a 4 corners polygon primitive as box body*
4,1,4,$2,$3,$4,$5,$6,$7,$8,$9,$2,$3,0*
0 Add four circle primitives for the rounded corners*
1,1,$1+$1,$2,$3*
1,1,$1+$1,$4,$5*
1,1,$1+$1,$6,$7*
1,1,$1+$1,$8,$9*
0 Add four rect primitives between the rounded corners*
20,1,$1+$1,$2,$3,$4,$5,0*
20,1,$1+$1,$4,$5,$6,$7,0*
20,1,$1+$1,$6,$7,$8,$9,0*
20,1,$1+$1,$8,$9,$2,$3,0*%
G04 Aperture macros list end*
%ADD10R,1.150000X1.400000*%
%ADD11C,3.200000*%
%ADD12C,1.440000*%
%ADD13R,1.000000X1.800000*%
%ADD14C,2.000000*%
%ADD15R,2.200000X1.200000*%
%ADD16R,6.400000X5.800000*%
%ADD17R,1.400000X1.150000*%
%ADD18R,1.700000X1.700000*%
%ADD19C,1.700000*%
%ADD20R,1.600000X1.600000*%
%ADD21O,1.600000X1.600000*%
%ADD22R,0.900000X0.800000*%
%ADD23RoundRect,0.243750X-0.456250X0.243750X-0.456250X-0.243750X0.456250X-0.243750X0.456250X0.243750X0*%
%ADD24R,1.400000X1.600000*%
%ADD25R,4.500000X2.000000*%
%ADD26R,2.000000X2.000000*%
%ADD27R,1.600000X1.400000*%
%ADD28C,3.000000*%
%ADD29R,1.800000X2.600000*%
%ADD30O,1.800000X2.600000*%
%ADD31RoundRect,0.500000X1.750000X0.500000X-1.750000X0.500000X-1.750000X-0.500000X1.750000X-0.500000X0*%
%ADD32RoundRect,0.500000X-0.500000X1.500000X-0.500000X-1.500000X0.500000X-1.500000X0.500000X1.500000X0*%
%ADD33O,1.700000X1.700000*%
%ADD34R,3.000000X3.000000*%
G04 APERTURE END LIST*
D10*
%TO.C,C6*%
X204465000Y-127380000D03*
X206165000Y-127380000D03*
%TD*%
D11*
%TO.C,H4*%
X215000000Y-140000000D03*
%TD*%
D10*
%TO.C,R6*%
X94830000Y-67310000D03*
X93130000Y-67310000D03*
%TD*%
D12*
%TO.C,RV1*%
X145665000Y-88382500D03*
X148205000Y-85842500D03*
X145665000Y-83302500D03*
%TD*%
D13*
%TO.C,Y2*%
X85110000Y-83185000D03*
X87610000Y-83185000D03*
%TD*%
D14*
%TO.C,TP9*%
X147955000Y-62865000D03*
%TD*%
D10*
%TO.C,R17*%
X153885000Y-92075000D03*
X152185000Y-92075000D03*
%TD*%
D15*
%TO.C,U3*%
X202385000Y-132085000D03*
D16*
X208685000Y-134365000D03*
D15*
X202385000Y-136645000D03*
%TD*%
D17*
%TO.C,R14*%
X186055000Y-63715000D03*
X186055000Y-62015000D03*
%TD*%
D18*
%TO.C,U5*%
X127127000Y-78613000D03*
D19*
X129667000Y-78613000D03*
X132207000Y-78613000D03*
X134747000Y-78613000D03*
X137287000Y-78613000D03*
X137287000Y-63373000D03*
X134747000Y-63373000D03*
X132207000Y-63373000D03*
X129667000Y-63373000D03*
X127127000Y-63373000D03*
%TD*%
D14*
%TO.C,TP7*%
X142240000Y-74295000D03*
%TD*%
D17*
%TO.C,R5*%
X193040000Y-117270000D03*
X193040000Y-115570000D03*
%TD*%
D10*
%TO.C,C2*%
X209970000Y-91440000D03*
X211670000Y-91440000D03*
%TD*%
%TO.C,R10*%
X97575000Y-74295000D03*
X99275000Y-74295000D03*
%TD*%
%TO.C,C10*%
X119390000Y-135255000D03*
X117690000Y-135255000D03*
%TD*%
D20*
%TO.C,U2*%
X110490000Y-89535000D03*
D21*
X110490000Y-86995000D03*
X110490000Y-84455000D03*
X110490000Y-81915000D03*
X110490000Y-79375000D03*
X110490000Y-76835000D03*
X110490000Y-74295000D03*
X110490000Y-71755000D03*
X110490000Y-69215000D03*
X110490000Y-66675000D03*
X110490000Y-64135000D03*
X110490000Y-61595000D03*
X102870000Y-61595000D03*
X102870000Y-64135000D03*
X102870000Y-66675000D03*
X102870000Y-69215000D03*
X102870000Y-71755000D03*
X102870000Y-74295000D03*
X102870000Y-76835000D03*
X102870000Y-79375000D03*
X102870000Y-81915000D03*
X102870000Y-84455000D03*
X102870000Y-86995000D03*
X102870000Y-89535000D03*
%TD*%
D10*
%TO.C,C8*%
X97575000Y-69850000D03*
X99275000Y-69850000D03*
%TD*%
D22*
%TO.C,Q1*%
X188880000Y-61445000D03*
X188880000Y-63345000D03*
X190880000Y-62395000D03*
%TD*%
D10*
%TO.C,C7*%
X203830000Y-140715000D03*
X205530000Y-140715000D03*
%TD*%
D23*
%TO.C,D1*%
X216535000Y-83850000D03*
X216535000Y-85725000D03*
%TD*%
D14*
%TO.C,TP5*%
X154940000Y-74295000D03*
%TD*%
D17*
%TO.C,R13*%
X164465000Y-139167500D03*
X164465000Y-140867500D03*
%TD*%
D10*
%TO.C,R15*%
X141175000Y-140970000D03*
X142875000Y-140970000D03*
%TD*%
D14*
%TO.C,TP14*%
X207645000Y-64770000D03*
%TD*%
D10*
%TO.C,R12*%
X117475000Y-140335000D03*
X119175000Y-140335000D03*
%TD*%
D24*
%TO.C,SW6*%
X154845000Y-89207500D03*
X154845000Y-81207500D03*
X159345000Y-89207500D03*
X159345000Y-81207500D03*
%TD*%
D10*
%TO.C,C11*%
X166165000Y-135152500D03*
X164465000Y-135152500D03*
%TD*%
D14*
%TO.C,TP10*%
X161290000Y-74295000D03*
%TD*%
D20*
%TO.C,U1*%
X85100000Y-78740000D03*
D21*
X87640000Y-78740000D03*
X90180000Y-78740000D03*
X92720000Y-78740000D03*
X92720000Y-71120000D03*
X90180000Y-71120000D03*
X87640000Y-71120000D03*
X85100000Y-71120000D03*
%TD*%
D17*
%TO.C,R1*%
X134200000Y-140550000D03*
X134200000Y-138850000D03*
%TD*%
D25*
%TO.C,Y1*%
X194115000Y-89535000D03*
X185615000Y-89535000D03*
%TD*%
D14*
%TO.C,TP4*%
X161290000Y-62865000D03*
%TD*%
D26*
%TO.C,BZ1*%
X201930000Y-64135000D03*
D14*
X196930000Y-64135000D03*
%TD*%
D17*
%TO.C,R8*%
X110490000Y-140335000D03*
X110490000Y-138635000D03*
%TD*%
D10*
%TO.C,R9*%
X156630000Y-140970000D03*
X158330000Y-140970000D03*
%TD*%
D11*
%TO.C,H2*%
X215000000Y-60000000D03*
%TD*%
D27*
%TO.C,SW2*%
X122365000Y-135545000D03*
X130365000Y-135545000D03*
X122365000Y-140045000D03*
X130365000Y-140045000D03*
%TD*%
D11*
%TO.C,H3*%
X85000000Y-140000000D03*
%TD*%
D14*
%TO.C,TP1*%
X181610000Y-72390000D03*
%TD*%
D10*
%TO.C,R11*%
X214630000Y-89535000D03*
X216330000Y-89535000D03*
%TD*%
%TO.C,C4*%
X193460000Y-93980000D03*
X195160000Y-93980000D03*
%TD*%
%TO.C,R16*%
X161075000Y-92192500D03*
X162775000Y-92192500D03*
%TD*%
D17*
%TO.C,C5*%
X181610000Y-90805000D03*
X181610000Y-89105000D03*
%TD*%
D10*
%TO.C,R4*%
X208065000Y-120650000D03*
X209765000Y-120650000D03*
%TD*%
D11*
%TO.C,H1*%
X85000000Y-60000000D03*
%TD*%
D27*
%TO.C,SW1*%
X169355000Y-136180000D03*
X177355000Y-136180000D03*
X169355000Y-140680000D03*
X177355000Y-140680000D03*
%TD*%
D14*
%TO.C,TP6*%
X147955000Y-74295000D03*
%TD*%
%TO.C,TP2*%
X215265000Y-128905000D03*
%TD*%
D10*
%TO.C,C13*%
X143090000Y-135890000D03*
X141390000Y-135890000D03*
%TD*%
D17*
%TO.C,R2*%
X180975000Y-140550000D03*
X180975000Y-138850000D03*
%TD*%
D14*
%TO.C,TP3*%
X154940000Y-62865000D03*
%TD*%
D10*
%TO.C,C3*%
X196000000Y-123190000D03*
X197700000Y-123190000D03*
%TD*%
D14*
%TO.C,TP13*%
X207645000Y-69215000D03*
%TD*%
D27*
%TO.C,SW3*%
X98870000Y-135545000D03*
X106870000Y-135545000D03*
X98870000Y-140045000D03*
X106870000Y-140045000D03*
%TD*%
%TO.C,SW4*%
X145860000Y-136180000D03*
X153860000Y-136180000D03*
X145860000Y-140680000D03*
X153860000Y-140680000D03*
%TD*%
D14*
%TO.C,TP11*%
X120015000Y-73660000D03*
%TD*%
%TO.C,TP8*%
X141605000Y-62865000D03*
%TD*%
D18*
%TO.C,U4*%
X165227000Y-78613000D03*
D19*
X167767000Y-78613000D03*
X170307000Y-78613000D03*
X172847000Y-78613000D03*
X175387000Y-78613000D03*
X175387000Y-63373000D03*
X172847000Y-63373000D03*
X170307000Y-63373000D03*
X167767000Y-63373000D03*
X165227000Y-63373000D03*
%TD*%
D10*
%TO.C,C1*%
X197065000Y-84035000D03*
X195365000Y-84035000D03*
%TD*%
%TO.C,R3*%
X208065000Y-116840000D03*
X209765000Y-116840000D03*
%TD*%
D20*
%TO.C,UI1*%
X200035000Y-73670000D03*
D21*
X200035000Y-76210000D03*
X200035000Y-78750000D03*
X200035000Y-81290000D03*
X200035000Y-83830000D03*
X200035000Y-86370000D03*
X200035000Y-88910000D03*
X200035000Y-91450000D03*
X200035000Y-93990000D03*
X200035000Y-96530000D03*
X200035000Y-99070000D03*
X200035000Y-101610000D03*
X200035000Y-104150000D03*
X200035000Y-106690000D03*
X207655000Y-106690000D03*
X207655000Y-104150000D03*
X207655000Y-101610000D03*
X207655000Y-99070000D03*
X207655000Y-96530000D03*
X207655000Y-93990000D03*
X207655000Y-91450000D03*
X207655000Y-88910000D03*
X207655000Y-86370000D03*
X207655000Y-83830000D03*
X207655000Y-81290000D03*
X207655000Y-78750000D03*
X207655000Y-76210000D03*
X207655000Y-73670000D03*
%TD*%
D10*
%TO.C,C9*%
X97575000Y-66040000D03*
X99275000Y-66040000D03*
%TD*%
D27*
%TO.C,SW5*%
X196025000Y-112685000D03*
X204025000Y-112685000D03*
X196025000Y-117185000D03*
X204025000Y-117185000D03*
%TD*%
D28*
%TO.C,DS1*%
X188880000Y-96520000D03*
X113880900Y-96520000D03*
X113880900Y-127520700D03*
X188879480Y-127520700D03*
D29*
X119380000Y-96520000D03*
D30*
X121920000Y-96520000D03*
X124460000Y-96520000D03*
X127000000Y-96520000D03*
X129540000Y-96520000D03*
X132080000Y-96520000D03*
X134620000Y-96520000D03*
X137160000Y-96520000D03*
X139700000Y-96520000D03*
X142240000Y-96520000D03*
X144780000Y-96520000D03*
X147320000Y-96520000D03*
X149860000Y-96520000D03*
X152400000Y-96520000D03*
X154940000Y-96520000D03*
X157480000Y-96520000D03*
%TD*%
D10*
%TO.C,R7*%
X90805000Y-67310000D03*
X89105000Y-67310000D03*
%TD*%
D31*
%TO.C,J2*%
X191890000Y-134295000D03*
D32*
X197190000Y-136595000D03*
X194690000Y-140295000D03*
%TD*%
D18*
%TO.C,J1*%
X213360000Y-110490000D03*
D33*
X213360000Y-113030000D03*
X213360000Y-115570000D03*
X213360000Y-118110000D03*
X213360000Y-120650000D03*
X213360000Y-123190000D03*
%TD*%
D18*
%TO.C,J3*%
X215265000Y-95250000D03*
D33*
X212725000Y-95250000D03*
X215265000Y-97790000D03*
X212725000Y-97790000D03*
X215265000Y-100330000D03*
X212725000Y-100330000D03*
%TD*%
D14*
%TO.C,TP12*%
X215265000Y-133350000D03*
%TD*%
D34*
%TO.C,BT1*%
X95250000Y-101600000D03*
D28*
X95250000Y-122090000D03*
%TD*%
M02*
