M48
; DRILL file {KiCad (6.0.5-0)} date Thursday, July 21, 2022 at 01:57:36 AM
; FORMAT={-:-/ absolute / inch / decimal}
; #@! TF.CreationDate,2022-07-21T01:57:36-04:00
; #@! TF.GenerationSoftware,Kicad,Pcbnew,(6.0.5-0)
; #@! TF.FileFunction,MixedPlating,1,2
FMAT,2
INCH
; #@! TA.AperFunction,Plated,PTH,ViaDrill
T1C0.0157
; #@! TA.AperFunction,Plated,PTH,ViaDrill
T2C0.0160
; #@! TA.AperFunction,Plated,PTH,ComponentDrill
T3C0.0315
; #@! TA.AperFunction,Plated,PTH,ComponentDrill
T4C0.0394
; #@! TA.AperFunction,Plated,PTH,ComponentDrill
T5C0.0433
; #@! TA.AperFunction,Plated,PTH,ComponentDrill
T6C0.0472
; #@! TA.AperFunction,Plated,PTH,ComponentDrill
T7C0.0591
; #@! TA.AperFunction,Plated,PTH,ComponentDrill
T8C0.0984
; #@! TA.AperFunction,NonPlated,NPTH,ComponentDrill
T9C0.1260
%
G90
G05
T1
X0.12Y2.7487
X0.43Y2.7287
X1.62Y1.0387
X1.68Y1.7787
X3.725Y1.1587
X4.0Y2.0587
X4.175Y2.7337
X4.325Y1.1587
X4.55Y2.7337
X4.6Y2.0087
X5.14Y1.7787
X5.25Y1.6337
T2
X0.475Y3.4337
X0.6Y3.3587
X0.65Y3.2587
X0.67Y0.3887
X0.7Y0.5337
X0.725Y3.2337
X0.775Y2.4587
X0.81Y3.1687
X0.975Y2.2337
X0.99Y2.4887
X1.0Y3.1287
X1.0Y1.7337
X1.05Y3.0337
X1.05Y2.7287
X1.05Y2.5837
X1.11Y1.6087
X1.3Y3.3287
X1.3Y3.2087
X1.325Y1.3337
X1.34Y2.3087
X1.39Y3.2787
X1.4Y3.2087
X1.4Y2.4987
X1.5Y2.8287
X1.58Y2.3087
X1.58Y0.5487
X1.64Y3.0687
X1.73Y2.1487
X1.76Y2.0487
X1.775Y3.1587
X1.82Y2.1487
X1.85Y2.2787
X1.9Y2.9487
X1.94Y2.1187
X1.98Y2.3687
X2.03Y3.2787
X2.03Y3.0787
X2.06Y0.4687
X2.08Y2.1787
X2.1Y3.1387
X2.15Y2.4287
X2.15Y2.3087
X2.175Y3.1337
X2.2Y2.7837
X2.225Y2.6987
X2.3Y2.9387
X2.3Y2.6987
X2.35Y2.5787
X2.37Y2.3887
X2.425Y3.0787
X2.425Y0.6337
X2.5Y2.4087
X2.52Y2.3387
X2.53Y1.5487
X2.64Y2.0487
X2.66Y1.4787
X2.67Y2.9587
X2.675Y2.5337
X2.68Y2.4187
X2.7Y2.2115
X2.77Y2.3487
X2.81Y1.3887
X2.85Y2.2115
X2.93Y1.3487
X2.96Y2.5887
X3.0Y0.4137
X3.05Y2.9387
X3.05Y2.3837
X3.16Y3.0187
X3.275Y2.2837
X3.3Y2.7837
X3.3Y2.5337
X3.325Y2.0587
X3.33Y3.0687
X3.425Y0.7437
X3.45Y2.4087
X3.525Y2.4587
X3.55Y3.3337
X3.57Y2.3787
X3.625Y3.1337
X3.65Y2.9837
X3.71Y2.7087
X3.875Y0.5587
X3.92Y0.5087
X3.93Y0.6587
X3.99Y2.2787
X4.0Y0.7587
X4.02Y2.4387
X4.025Y1.7837
X4.225Y1.3087
X4.3Y3.1587
X4.37Y2.6187
X4.45Y3.2587
X4.46Y1.8287
X4.475Y1.2337
X4.525Y1.5587
X4.55Y3.2587
X4.575Y1.4587
X4.6Y1.5587
X4.775Y0.8587
X4.825Y1.3208
X4.89Y1.8887
X4.9Y2.2187
X4.9Y1.6687
X4.925Y0.9587
X4.9365Y0.2087
X4.94Y2.1587
X4.945Y0.6837
X5.025Y0.7837
X5.05Y1.3587
X5.072Y1.4574
X5.1Y3.3587
X5.1Y2.0337
X5.1Y1.1837
X5.15Y3.2087
X5.22Y2.1787
X5.295Y2.4698
X5.3Y2.1087
X5.375Y0.7837
T3
X0.2004Y2.9087
X0.2004Y2.6087
X0.3004Y2.9087
X0.3004Y2.6087
X0.4004Y2.9087
X0.4004Y2.6087
X0.5004Y2.9087
X0.5004Y2.6087
X0.9Y3.2837
X0.9Y3.1837
X0.9Y3.0837
X0.9Y2.9837
X0.9Y2.8837
X0.9Y2.7837
X0.9Y2.6837
X0.9Y2.5837
X0.9Y2.4837
X0.9Y2.3837
X0.9Y2.2837
X0.9Y2.1837
X1.2Y3.2837
X1.2Y3.1837
X1.2Y3.0837
X1.2Y2.9837
X1.2Y2.8837
X1.2Y2.7837
X1.2Y2.6837
X1.2Y2.5837
X1.2Y2.4837
X1.2Y2.3837
X1.2Y2.2837
X1.2Y2.1837
X2.5848Y2.429
X2.5848Y2.229
X2.6848Y2.329
X4.7254Y2.8083
X4.7254Y2.7083
X4.7254Y2.6083
X4.7254Y2.5083
X4.7254Y2.4083
X4.7254Y2.3083
X4.7254Y2.2083
X4.7254Y2.1083
X4.7254Y2.0083
X4.7254Y1.9083
X4.7254Y1.8083
X4.7254Y1.7083
X4.7254Y1.6083
X4.7254Y1.5083
X5.0254Y2.8083
X5.0254Y2.7083
X5.0254Y2.6083
X5.0254Y2.5083
X5.0254Y2.4083
X5.0254Y2.3083
X5.0254Y2.2083
X5.0254Y2.1083
X5.0254Y2.0083
X5.0254Y1.9083
X5.0254Y1.8083
X5.0254Y1.7083
X5.0254Y1.6083
X5.0254Y1.5083
T4
X0.24Y2.1387
X0.26Y1.9187
X0.94Y0.9587
X0.95Y1.3787
X0.95Y1.1687
X1.575Y2.5687
X1.855Y3.2137
X1.855Y2.6137
X1.955Y3.2137
X1.955Y2.6137
X2.055Y3.2137
X2.055Y2.6137
X2.155Y3.2137
X2.155Y2.6137
X2.255Y3.2137
X2.255Y2.6137
X2.425Y3.2337
X2.45Y2.7837
X2.675Y3.2337
X2.675Y2.7837
X2.95Y3.2337
X2.95Y2.7837
X3.2Y3.2337
X3.2Y2.7837
X3.355Y3.2137
X3.355Y2.6137
X3.455Y3.2137
X3.455Y2.6137
X3.555Y3.2137
X3.555Y2.6137
X3.655Y3.2137
X3.655Y2.6137
X3.755Y3.2137
X3.755Y2.6137
X4.0Y2.8587
X4.6031Y3.1687
X4.8Y3.1687
X5.025Y3.1587
X5.025Y2.9837
X5.225Y1.9587
X5.225Y1.8587
X5.225Y1.7587
X5.25Y1.3587
X5.25Y1.2587
X5.25Y1.1587
X5.25Y1.0587
X5.25Y0.9587
X5.25Y0.8587
X5.29Y0.6487
X5.29Y0.4887
X5.325Y1.9587
X5.325Y1.8587
X5.325Y1.7587
T6
X1.55Y1.9087
X1.65Y1.9087
X1.75Y1.9087
X1.85Y1.9087
X1.95Y1.9087
X2.05Y1.9087
X2.15Y1.9087
X2.25Y1.9087
X2.35Y1.9087
X2.45Y1.9087
X2.55Y1.9087
X2.65Y1.9087
X2.75Y1.9087
X2.85Y1.9087
X2.95Y1.9087
X3.05Y1.9087
T7
X0.6Y1.7087
X0.6Y0.902
T8
X1.3335Y1.9087
X1.3335Y0.6882
X4.2862Y0.6882
X4.2862Y1.9087
T9
X0.1965Y3.3465
X0.1965Y0.1969
X5.3146Y3.3465
X5.3146Y0.1969
T5
G00X4.3369Y0.3624
M15
G01X4.3369Y0.3349
M16
G05
G00X4.4688Y0.5337
M15
G01X4.4412Y0.5337
M16
G05
G00X4.5731Y0.3624
M15
G01X4.5731Y0.3349
M16
G05
T0
M30
