%TF.GenerationSoftware,KiCad,Pcbnew,(6.0.5-0)*%
%TF.CreationDate,2022-07-21T14:42:38-04:00*%
%TF.ProjectId,Annahs_clock_hps,416e6e61-6873-45f6-936c-6f636b5f6870,rev?*%
%TF.SameCoordinates,PX4c4b400PY8a48640*%
%TF.FileFunction,Legend,Bot*%
%TF.FilePolarity,Positive*%
%FSLAX46Y46*%
G04 Gerber Fmt 4.6, Leading zero omitted, Abs format (unit mm)*
G04 Created by KiCad (PCBNEW (6.0.5-0)) date 2022-07-21 14:42:38*
%MOMM*%
%LPD*%
G01*
G04 APERTURE LIST*
G04 Aperture macros list*
%AMRoundRect*
0 Rectangle with rounded corners*
0 $1 Rounding radius*
0 $2 $3 $4 $5 $6 $7 $8 $9 X,Y pos of 4 corners*
0 Add a 4 corners polygon primitive as box body*
4,1,4,$2,$3,$4,$5,$6,$7,$8,$9,$2,$3,0*
0 Add four circle primitives for the rounded corners*
1,1,$1+$1,$2,$3*
1,1,$1+$1,$4,$5*
1,1,$1+$1,$6,$7*
1,1,$1+$1,$8,$9*
0 Add four rect primitives between the rounded corners*
20,1,$1+$1,$2,$3,$4,$5,0*
20,1,$1+$1,$4,$5,$6,$7,0*
20,1,$1+$1,$6,$7,$8,$9,0*
20,1,$1+$1,$8,$9,$2,$3,0*%
G04 Aperture macros list end*
%ADD10C,0.152400*%
%ADD11C,0.150000*%
%ADD12C,0.203200*%
%ADD13C,0.120000*%
%ADD14C,3.352400*%
%ADD15C,1.592400*%
%ADD16C,2.152400*%
%ADD17RoundRect,0.076200X-0.850000X-0.850000X0.850000X-0.850000X0.850000X0.850000X-0.850000X0.850000X0*%
%ADD18C,1.852400*%
%ADD19RoundRect,0.076200X0.800000X0.800000X-0.800000X0.800000X-0.800000X-0.800000X0.800000X-0.800000X0*%
%ADD20O,1.752400X1.752400*%
%ADD21RoundRect,0.076200X0.800000X-0.800000X0.800000X0.800000X-0.800000X0.800000X-0.800000X-0.800000X0*%
%ADD22RoundRect,0.076200X1.000000X1.000000X-1.000000X1.000000X-1.000000X-1.000000X1.000000X-1.000000X0*%
%ADD23RoundRect,0.076200X-0.800000X-0.800000X0.800000X-0.800000X0.800000X0.800000X-0.800000X0.800000X0*%
%ADD24C,3.152400*%
%ADD25O,1.952400X2.752400*%
%ADD26RoundRect,0.076200X-0.900000X-1.300000X0.900000X-1.300000X0.900000X1.300000X-0.900000X1.300000X0*%
%ADD27RoundRect,0.476200X-0.400000X0.900000X-0.400000X-0.900000X0.400000X-0.900000X0.400000X0.900000X0*%
%ADD28RoundRect,0.476200X-0.900000X0.400000X-0.900000X-0.400000X0.900000X-0.400000X0.900000X0.400000X0*%
%ADD29O,1.852400X1.852400*%
%ADD30RoundRect,0.076200X0.850000X0.850000X-0.850000X0.850000X-0.850000X-0.850000X0.850000X-0.850000X0*%
%ADD31RoundRect,0.076200X-1.500000X1.500000X-1.500000X-1.500000X1.500000X-1.500000X1.500000X1.500000X0*%
G04 APERTURE END LIST*
D10*
%TO.C,J2*%
X118286914Y8094000D02*
X118831200Y8094000D01*
X118940057Y8130286D01*
X119012628Y8202858D01*
X119048914Y8311715D01*
X119048914Y8384286D01*
X118359485Y7767429D02*
X118323200Y7731143D01*
X118286914Y7658572D01*
X118286914Y7477143D01*
X118323200Y7404572D01*
X118359485Y7368286D01*
X118432057Y7332000D01*
X118504628Y7332000D01*
X118613485Y7368286D01*
X119048914Y7803715D01*
X119048914Y7332000D01*
D11*
%TO.C,J1*%
X133693333Y37387620D02*
X133693333Y36673334D01*
X133740952Y36530477D01*
X133836190Y36435239D01*
X133979047Y36387620D01*
X134074285Y36387620D01*
X132693333Y36387620D02*
X133264761Y36387620D01*
X132979047Y36387620D02*
X132979047Y37387620D01*
X133074285Y37244762D01*
X133169523Y37149524D01*
X133264761Y37101905D01*
%TO.C,J3*%
X134323333Y41422620D02*
X134323333Y40708334D01*
X134370952Y40565477D01*
X134466190Y40470239D01*
X134609047Y40422620D01*
X134704285Y40422620D01*
X133942380Y41422620D02*
X133323333Y41422620D01*
X133656666Y41041667D01*
X133513809Y41041667D01*
X133418571Y40994048D01*
X133370952Y40946429D01*
X133323333Y40851191D01*
X133323333Y40613096D01*
X133370952Y40517858D01*
X133418571Y40470239D01*
X133513809Y40422620D01*
X133799523Y40422620D01*
X133894761Y40470239D01*
X133942380Y40517858D01*
%TO.C,TP12*%
X137003095Y14195620D02*
X136431666Y14195620D01*
X136717380Y13195620D02*
X136717380Y14195620D01*
X136098333Y13195620D02*
X136098333Y14195620D01*
X135717380Y14195620D01*
X135622142Y14148000D01*
X135574523Y14100381D01*
X135526904Y14005143D01*
X135526904Y13862286D01*
X135574523Y13767048D01*
X135622142Y13719429D01*
X135717380Y13671810D01*
X136098333Y13671810D01*
X134574523Y13195620D02*
X135145952Y13195620D01*
X134860238Y13195620D02*
X134860238Y14195620D01*
X134955476Y14052762D01*
X135050714Y13957524D01*
X135145952Y13909905D01*
X134193571Y14100381D02*
X134145952Y14148000D01*
X134050714Y14195620D01*
X133812619Y14195620D01*
X133717380Y14148000D01*
X133669761Y14100381D01*
X133622142Y14005143D01*
X133622142Y13909905D01*
X133669761Y13767048D01*
X134241190Y13195620D01*
X133622142Y13195620D01*
%TO.C,BT1*%
X10678571Y45435715D02*
X10726190Y45292858D01*
X10773809Y45245239D01*
X10869047Y45197620D01*
X11011904Y45197620D01*
X11107142Y45245239D01*
X11154761Y45292858D01*
X11202380Y45388096D01*
X11202380Y45769048D01*
X10202380Y45769048D01*
X10202380Y45435715D01*
X10250000Y45340477D01*
X10297619Y45292858D01*
X10392857Y45245239D01*
X10488095Y45245239D01*
X10583333Y45292858D01*
X10630952Y45340477D01*
X10678571Y45435715D01*
X10678571Y45769048D01*
X10202380Y44911905D02*
X10202380Y44340477D01*
X11202380Y44626191D02*
X10202380Y44626191D01*
X11202380Y43483334D02*
X11202380Y44054762D01*
X11202380Y43769048D02*
X10202380Y43769048D01*
X10345238Y43864286D01*
X10440476Y43959524D01*
X10488095Y44054762D01*
X15357142Y41221429D02*
X15357142Y40078572D01*
X15928571Y40650000D02*
X14785714Y40650000D01*
D12*
%TO.C,J2*%
X113294000Y10840000D02*
X103094000Y10840000D01*
X103194000Y3340000D02*
X103194000Y12340000D01*
X103194000Y12340000D02*
X117694000Y12340000D01*
X106694000Y12340000D02*
X106694000Y3340000D01*
X117694000Y3340000D02*
X103194000Y3340000D01*
X113294000Y4840000D02*
X113294000Y10840000D01*
X103194000Y4840000D02*
X113294000Y4840000D01*
X117694000Y12340000D02*
X117694000Y3340000D01*
D13*
%TO.C,J1*%
X134690000Y20480000D02*
X132030000Y20480000D01*
X134690000Y33240000D02*
X134690000Y20480000D01*
X132030000Y33240000D02*
X132030000Y20480000D01*
X134690000Y33240000D02*
X132030000Y33240000D01*
X134690000Y34510000D02*
X134690000Y35840000D01*
X134690000Y35840000D02*
X133360000Y35840000D01*
%TO.C,J3*%
X136595000Y51080000D02*
X135265000Y51080000D01*
X136595000Y49750000D02*
X136595000Y51080000D01*
X133995000Y51080000D02*
X131395000Y51080000D01*
X133995000Y48480000D02*
X133995000Y51080000D01*
X136595000Y48480000D02*
X133995000Y48480000D01*
X131395000Y51080000D02*
X131395000Y43340000D01*
X136595000Y48480000D02*
X136595000Y43340000D01*
X136595000Y43340000D02*
X131395000Y43340000D01*
%TO.C,G\u002A\u002A\u002A*%
G36*
X60399142Y19404697D02*
G01*
X59950152Y19404697D01*
X59950152Y21457222D01*
X60399142Y21457222D01*
X60399142Y19404697D01*
G37*
G36*
X61230013Y21494292D02*
G01*
X61442906Y21393081D01*
X61468811Y21372892D01*
X61601049Y21283440D01*
X61665194Y21280407D01*
X61681970Y21361010D01*
X61721627Y21428537D01*
X61874394Y21457222D01*
X62066818Y21457222D01*
X62066818Y19404697D01*
X61698785Y19404697D01*
X61668800Y20078914D01*
X61655079Y20343878D01*
X61634739Y20570397D01*
X61604413Y20721448D01*
X61557865Y20825933D01*
X61488858Y20912753D01*
X61437092Y20962774D01*
X61280879Y21048621D01*
X61061446Y21072374D01*
X60950846Y21073413D01*
X60834414Y21092116D01*
X60790662Y21156999D01*
X60783990Y21296869D01*
X60784351Y21351715D01*
X60801296Y21468660D01*
X60871283Y21513862D01*
X61031906Y21521364D01*
X61230013Y21494292D01*
G37*
G36*
X50814454Y28900056D02*
G01*
X50707215Y28598532D01*
X50513156Y28341496D01*
X50232727Y28154333D01*
X50120744Y28114904D01*
X49838922Y28071669D01*
X49550144Y28084660D01*
X49315527Y28153906D01*
X49314028Y28154689D01*
X49145648Y28268177D01*
X48983651Y28413850D01*
X48900654Y28510262D01*
X48869979Y28588550D01*
X48919509Y28643457D01*
X48920460Y28644057D01*
X49050236Y28697213D01*
X49189533Y28676969D01*
X49381303Y28577159D01*
X49431284Y28548418D01*
X49713214Y28454022D01*
X49974072Y28483455D01*
X50205591Y28636127D01*
X50237083Y28667948D01*
X50356221Y28803089D01*
X50399760Y28899499D01*
X50357171Y28964284D01*
X50217926Y29004553D01*
X49971494Y29027413D01*
X49607349Y29039970D01*
X48821616Y29057980D01*
X48801078Y29236886D01*
X48814592Y29440981D01*
X48817808Y29449154D01*
X49257625Y29449154D01*
X49305443Y29418842D01*
X49451882Y29388166D01*
X49659696Y29367291D01*
X49891644Y29357575D01*
X50110488Y29360376D01*
X50278986Y29377051D01*
X50359899Y29408960D01*
X50363585Y29435474D01*
X50314132Y29541338D01*
X50201785Y29676063D01*
X50187726Y29690045D01*
X50047585Y29808952D01*
X49917447Y29851387D01*
X49733191Y29839748D01*
X49567429Y29796031D01*
X49390920Y29697071D01*
X49277188Y29572851D01*
X49257625Y29449154D01*
X48817808Y29449154D01*
X48919344Y29707188D01*
X49098453Y29944968D01*
X49326783Y30112458D01*
X49378932Y30136801D01*
X49677740Y30229474D01*
X49958799Y30217494D01*
X50267243Y30100278D01*
X50366210Y30043306D01*
X50610752Y29817692D01*
X50766673Y29535023D01*
X50788129Y29435474D01*
X50834424Y29220682D01*
X50814454Y28900056D01*
G37*
G36*
X60178248Y22355181D02*
G01*
X60342970Y22300934D01*
X60444570Y22171071D01*
X60465025Y22008194D01*
X60386313Y21854899D01*
X60321840Y21812665D01*
X60174647Y21777929D01*
X60084779Y21789663D01*
X59939846Y21888251D01*
X59886010Y22066566D01*
X59897744Y22156434D01*
X59996332Y22301367D01*
X60174647Y22355202D01*
X60178248Y22355181D01*
G37*
G36*
X79187501Y24927266D02*
G01*
X79133440Y24794864D01*
X79030963Y24586168D01*
X78893441Y24324897D01*
X78734243Y24034767D01*
X78566737Y23739497D01*
X78404294Y23462805D01*
X78260283Y23228409D01*
X78148073Y23060026D01*
X78081034Y22981374D01*
X78018664Y22968814D01*
X77843945Y22956846D01*
X77581801Y22949092D01*
X77254637Y22946163D01*
X76884856Y22948672D01*
X75763753Y22964545D01*
X75325330Y23702172D01*
X75310677Y23726847D01*
X75133758Y24028116D01*
X74970022Y24312488D01*
X74837139Y24548967D01*
X74752779Y24706556D01*
X74631648Y24947465D01*
X75324170Y24947465D01*
X75329826Y24924825D01*
X75384946Y24806360D01*
X75485590Y24619065D01*
X75615470Y24390706D01*
X75758298Y24149052D01*
X75897789Y23921871D01*
X76017656Y23736929D01*
X76101611Y23621995D01*
X76154391Y23577061D01*
X76245554Y23542948D01*
X76393883Y23522431D01*
X76623058Y23512400D01*
X76956763Y23509748D01*
X77715714Y23509748D01*
X77865992Y23750278D01*
X77940149Y23869742D01*
X78129379Y24181635D01*
X78296461Y24466696D01*
X78429830Y24704501D01*
X78517921Y24874630D01*
X78549169Y24956660D01*
X78549111Y24957488D01*
X78515290Y25036178D01*
X78428231Y25200268D01*
X78300853Y25426236D01*
X78146077Y25690556D01*
X77744979Y26364040D01*
X76986587Y26382171D01*
X76828578Y26384967D01*
X76485364Y26381422D01*
X76253806Y26362470D01*
X76141813Y26328612D01*
X76089560Y26266347D01*
X75985499Y26113939D01*
X75852360Y25903384D01*
X75706534Y25662371D01*
X75564411Y25418585D01*
X75442382Y25199714D01*
X75356838Y25033445D01*
X75324170Y24947465D01*
X74631648Y24947465D01*
X74618651Y24973313D01*
X75149097Y25893172D01*
X75273212Y26105871D01*
X75448851Y26398103D01*
X75600662Y26640501D01*
X75715606Y26812419D01*
X75780642Y26893207D01*
X75817396Y26907616D01*
X75970094Y26931134D01*
X76209847Y26950082D01*
X76509884Y26964097D01*
X76843436Y26972816D01*
X77183732Y26975878D01*
X77504001Y26972919D01*
X77777474Y26963577D01*
X77977379Y26947490D01*
X78076947Y26924296D01*
X78098150Y26904085D01*
X78185239Y26785448D01*
X78312151Y26587169D01*
X78465517Y26332867D01*
X78631969Y26046163D01*
X78798136Y25750676D01*
X78950650Y25470026D01*
X79076140Y25227833D01*
X79161239Y25047716D01*
X79191459Y24956660D01*
X79192576Y24953295D01*
X79187501Y24927266D01*
G37*
G36*
X65030900Y30424865D02*
G01*
X65049394Y29827677D01*
X66423564Y29791315D01*
X66442034Y30386769D01*
X66460505Y30982222D01*
X66845354Y30982222D01*
X66862616Y29555076D01*
X66879879Y28127929D01*
X66428434Y28127929D01*
X66428434Y29346616D01*
X65017323Y29346616D01*
X65017323Y28127929D01*
X64565879Y28127929D01*
X64583142Y29555076D01*
X64600404Y30982222D01*
X64806405Y31002138D01*
X65012407Y31022054D01*
X65030900Y30424865D01*
G37*
G36*
X57743520Y30180455D02*
G01*
X57767429Y30180197D01*
X57905435Y30166241D01*
X57961768Y30137546D01*
X57959451Y30126259D01*
X57929153Y30020989D01*
X57869956Y29827263D01*
X57789755Y29570025D01*
X57696443Y29274218D01*
X57597913Y28964789D01*
X57502060Y28666680D01*
X57416777Y28404837D01*
X57349958Y28204203D01*
X57269615Y28147495D01*
X57081864Y28140062D01*
X56842343Y28160000D01*
X56625093Y28855083D01*
X56540860Y29109079D01*
X56459092Y29324590D01*
X56394757Y29461087D01*
X56357078Y29496497D01*
X56330271Y29444757D01*
X56270590Y29289282D01*
X56192198Y29060150D01*
X56105024Y28785379D01*
X55903734Y28127929D01*
X55418410Y28127929D01*
X55117764Y29074015D01*
X55061155Y29253713D01*
X54964689Y29567934D01*
X54887489Y29829964D01*
X54836328Y30016525D01*
X54817978Y30104342D01*
X54863819Y30160418D01*
X55022358Y30168483D01*
X55032737Y30167471D01*
X55111723Y30157329D01*
X55172947Y30132449D01*
X55225415Y30074780D01*
X55278131Y29966269D01*
X55340100Y29788864D01*
X55420325Y29524513D01*
X55527812Y29155165D01*
X55667081Y28675077D01*
X55884708Y29370289D01*
X55963982Y29619895D01*
X56044415Y29864985D01*
X56105415Y30041725D01*
X56137857Y30122978D01*
X56140162Y30126181D01*
X56229570Y30164619D01*
X56384529Y30180455D01*
X56595679Y30180455D01*
X56813008Y29474899D01*
X56896294Y29213492D01*
X56975549Y28982951D01*
X57036052Y28826797D01*
X57068981Y28769343D01*
X57083186Y28780538D01*
X57131337Y28877617D01*
X57187122Y29041944D01*
X57294672Y29411253D01*
X57384303Y29713620D01*
X57452088Y29924523D01*
X57506031Y30060344D01*
X57554140Y30137466D01*
X57604421Y30172270D01*
X57664879Y30181139D01*
X57743520Y30180455D01*
G37*
G36*
X66171182Y22322710D02*
G01*
X66367330Y22313491D01*
X66496397Y22280576D01*
X66600561Y22208936D01*
X66721999Y22083543D01*
X66857078Y21916106D01*
X66924806Y21755337D01*
X66941566Y21548040D01*
X66941027Y21515411D01*
X66892601Y21275296D01*
X66756218Y21077622D01*
X66518438Y20908642D01*
X66165822Y20754611D01*
X65937963Y20658021D01*
X65689742Y20511355D01*
X65525622Y20359397D01*
X65466313Y20218030D01*
X65466418Y20214295D01*
X65507132Y20101057D01*
X65599251Y19958549D01*
X65674757Y19876748D01*
X65808588Y19807490D01*
X66011173Y19789545D01*
X66063864Y19790147D01*
X66229134Y19811991D01*
X66357632Y19885457D01*
X66503613Y20037910D01*
X66511434Y20046983D01*
X66650595Y20191240D01*
X66754021Y20247666D01*
X66854826Y20234829D01*
X66944636Y20191965D01*
X67030131Y20122625D01*
X67037077Y20056550D01*
X66973877Y19919509D01*
X66846122Y19759190D01*
X66678202Y19604633D01*
X66494503Y19484874D01*
X66405565Y19444033D01*
X66188605Y19369925D01*
X66011515Y19340556D01*
X65816321Y19366971D01*
X65534774Y19480582D01*
X65288136Y19658385D01*
X65122956Y19872511D01*
X65107051Y19906600D01*
X65034337Y20203452D01*
X65084957Y20479916D01*
X65255143Y20730190D01*
X65541124Y20948472D01*
X65939133Y21128960D01*
X65994385Y21148936D01*
X66294271Y21284473D01*
X66470707Y21424981D01*
X66527900Y21575304D01*
X66470055Y21740285D01*
X66465105Y21747618D01*
X66317254Y21872691D01*
X66117900Y21935460D01*
X65907777Y21935613D01*
X65727619Y21872838D01*
X65618161Y21746821D01*
X65546536Y21669325D01*
X65406035Y21660845D01*
X65238042Y21742469D01*
X65176899Y21794612D01*
X65162646Y21851869D01*
X65218439Y21936328D01*
X65355135Y22079211D01*
X65417271Y22141199D01*
X65536193Y22243861D01*
X65652030Y22298152D01*
X65808566Y22319450D01*
X66049584Y22323131D01*
X66171182Y22322710D01*
G37*
G36*
X58530133Y21494629D02*
G01*
X58748967Y21393081D01*
X58774871Y21372892D01*
X58907110Y21283440D01*
X58971254Y21280407D01*
X58988030Y21361010D01*
X59027688Y21428537D01*
X59180455Y21457222D01*
X59372879Y21457222D01*
X59372879Y19396569D01*
X59164419Y19416668D01*
X58955960Y19436768D01*
X58923889Y20164258D01*
X58919221Y20267358D01*
X58902964Y20554476D01*
X58882561Y20746741D01*
X58852403Y20870124D01*
X58806883Y20950597D01*
X58740394Y21014131D01*
X58566291Y21106783D01*
X58331172Y21128061D01*
X58118345Y21045686D01*
X58116884Y21044614D01*
X58062602Y20988857D01*
X58024326Y20899856D01*
X57997680Y20753854D01*
X57978286Y20527091D01*
X57961768Y20195812D01*
X57929697Y19436768D01*
X57544849Y19436768D01*
X57524991Y20110253D01*
X57521170Y20406766D01*
X57539557Y20774808D01*
X57591250Y21048610D01*
X57680512Y21247209D01*
X57811608Y21389640D01*
X57993881Y21481819D01*
X58260151Y21524141D01*
X58530133Y21494629D01*
G37*
G36*
X60973448Y30153383D02*
G01*
X61186341Y30052172D01*
X61250976Y30002080D01*
X61355920Y29936650D01*
X61409592Y29954821D01*
X61445316Y30057246D01*
X61499098Y30150047D01*
X61629186Y30169493D01*
X61676417Y30160751D01*
X61719313Y30136344D01*
X61748907Y30078929D01*
X61768278Y29969454D01*
X61780506Y29788868D01*
X61788669Y29518120D01*
X61795846Y29138157D01*
X61813510Y28127929D01*
X61361263Y28127929D01*
X61361263Y28773560D01*
X61358972Y28951875D01*
X61346586Y29217849D01*
X61325871Y29423338D01*
X61299573Y29534460D01*
X61260087Y29588710D01*
X61096867Y29703369D01*
X60887265Y29771071D01*
X60689023Y29769579D01*
X60684931Y29768557D01*
X60579253Y29754629D01*
X60535838Y29806277D01*
X60527424Y29954738D01*
X60527789Y30010471D01*
X60544739Y30127728D01*
X60614723Y30172979D01*
X60775340Y30180455D01*
X60973448Y30153383D01*
G37*
G36*
X51412607Y30154413D02*
G01*
X51631847Y30050145D01*
X51797509Y29919835D01*
X51869332Y30054037D01*
X51933776Y30132202D01*
X52081133Y30168312D01*
X52119053Y30161061D01*
X52161335Y30136891D01*
X52190804Y30079558D01*
X52210372Y29970039D01*
X52222950Y29789313D01*
X52231447Y29518360D01*
X52238775Y29138157D01*
X52256439Y28127929D01*
X51804192Y28127929D01*
X51804192Y28774277D01*
X51804072Y28901032D01*
X51800358Y29154552D01*
X51786083Y29322186D01*
X51754136Y29434559D01*
X51697409Y29522297D01*
X51608792Y29616025D01*
X51483571Y29727309D01*
X51353989Y29783204D01*
X51191873Y29775478D01*
X51158247Y29770098D01*
X51027978Y29761289D01*
X50978289Y29813807D01*
X50970354Y29959992D01*
X50970701Y30011898D01*
X50987630Y30127817D01*
X51057628Y30172864D01*
X51218269Y30180455D01*
X51412607Y30154413D01*
G37*
G36*
X57961528Y25037170D02*
G01*
X57958639Y24690662D01*
X57947856Y24444644D01*
X57925650Y24271947D01*
X57888488Y24145116D01*
X57832840Y24036697D01*
X57817100Y24012064D01*
X57689360Y23860743D01*
X57560479Y23768162D01*
X57433485Y23729024D01*
X57112795Y23720622D01*
X56790470Y23830455D01*
X56642281Y23907860D01*
X56537406Y23949506D01*
X56494653Y23933427D01*
X56486515Y23862525D01*
X56446858Y23794998D01*
X56294091Y23766313D01*
X56101667Y23766313D01*
X56101667Y25818838D01*
X56550657Y25818838D01*
X56550657Y25140420D01*
X56550883Y24975180D01*
X56555081Y24724921D01*
X56569561Y24559034D01*
X56600667Y24448209D01*
X56654747Y24363138D01*
X56738147Y24274511D01*
X56929192Y24134682D01*
X57146638Y24093513D01*
X57356200Y24177849D01*
X57357662Y24178922D01*
X57411944Y24234678D01*
X57450220Y24323679D01*
X57476866Y24469682D01*
X57496260Y24696444D01*
X57512778Y25027723D01*
X57544849Y25786768D01*
X57753308Y25806867D01*
X57961768Y25826966D01*
X57961528Y25037170D01*
G37*
G36*
X82085256Y20817960D02*
G01*
X82022980Y20727550D01*
X82018182Y20722195D01*
X81976670Y20693002D01*
X81904763Y20670098D01*
X81788475Y20652745D01*
X81613825Y20640204D01*
X81366829Y20631737D01*
X81033504Y20626604D01*
X80599867Y20624066D01*
X80051935Y20623384D01*
X78168920Y20623384D01*
X78046159Y20382854D01*
X77942069Y20205043D01*
X77756531Y20001581D01*
X77492828Y19832212D01*
X77490836Y19831166D01*
X77260127Y19759083D01*
X76966238Y19731496D01*
X76666039Y19749381D01*
X76416400Y19813716D01*
X76199871Y19935669D01*
X75945054Y20193714D01*
X75784671Y20526715D01*
X75728940Y20918256D01*
X75735775Y20987595D01*
X76306862Y20987595D01*
X76332487Y20739383D01*
X76482601Y20502296D01*
X76687285Y20338225D01*
X76924897Y20275841D01*
X77187608Y20335487D01*
X77294834Y20397874D01*
X77463177Y20581609D01*
X77560709Y20810591D01*
X77563014Y21039059D01*
X77550065Y21084237D01*
X77417059Y21317534D01*
X77214391Y21467563D01*
X76972589Y21525907D01*
X76722183Y21484150D01*
X76493703Y21333873D01*
X76405485Y21228929D01*
X76306862Y20987595D01*
X75735775Y20987595D01*
X75757778Y21210796D01*
X75889047Y21539726D01*
X76135462Y21824338D01*
X76153894Y21840214D01*
X76478080Y22038068D01*
X76830661Y22124626D01*
X77187413Y22104618D01*
X77524111Y21982772D01*
X77816532Y21763816D01*
X78040450Y21452479D01*
X78169969Y21198602D01*
X79910872Y21215664D01*
X81651775Y21232727D01*
X82100801Y21993933D01*
X82125362Y22035633D01*
X82300876Y22340096D01*
X82415833Y22556708D01*
X82478038Y22703510D01*
X82495295Y22798541D01*
X82475409Y22859842D01*
X82364602Y23030034D01*
X82184638Y23430014D01*
X82124190Y23812254D01*
X82133359Y23868216D01*
X82719947Y23868216D01*
X82726346Y23617265D01*
X82834347Y23391262D01*
X83039777Y23221775D01*
X83122897Y23183814D01*
X83394278Y23135812D01*
X83643150Y23213761D01*
X83866040Y23416841D01*
X83866264Y23417126D01*
X83982922Y23646430D01*
X83992029Y23872432D01*
X83913581Y24078366D01*
X83767572Y24247467D01*
X83573998Y24362970D01*
X83352855Y24408109D01*
X83124138Y24366120D01*
X82907844Y24220237D01*
X82819319Y24112544D01*
X82719947Y23868216D01*
X82133359Y23868216D01*
X82182405Y24167551D01*
X82358430Y24486702D01*
X82651415Y24760505D01*
X82769252Y24838711D01*
X82924930Y24911771D01*
X83102914Y24945041D01*
X83355957Y24952929D01*
X83442028Y24952241D01*
X83680548Y24935643D01*
X83854744Y24888192D01*
X84013666Y24798360D01*
X84204929Y24641230D01*
X84433469Y24340422D01*
X84558308Y24002280D01*
X84564873Y23872432D01*
X84576152Y23649363D01*
X84483711Y23304225D01*
X84277691Y22989425D01*
X84105645Y22811988D01*
X83922028Y22675471D01*
X83716037Y22598117D01*
X83437022Y22553671D01*
X83092188Y22515556D01*
X82601599Y21673636D01*
X82518824Y21532236D01*
X82346885Y21242715D01*
X82223237Y21039059D01*
X82197793Y20997152D01*
X82085256Y20817960D01*
G37*
G36*
X62959122Y24228296D02*
G01*
X62749047Y23957420D01*
X62451634Y23774232D01*
X62156571Y23705849D01*
X61807045Y23731277D01*
X61481302Y23859403D01*
X61215637Y24081215D01*
X61072447Y24291965D01*
X60959363Y24615384D01*
X60957661Y24677566D01*
X61387869Y24677566D01*
X61486206Y24422164D01*
X61501390Y24399110D01*
X61638235Y24245744D01*
X61782387Y24149563D01*
X61961687Y24097960D01*
X62152551Y24109141D01*
X62364877Y24210579D01*
X62425525Y24252611D01*
X62600932Y24463591D01*
X62678917Y24727946D01*
X62646651Y25009315D01*
X62545045Y25223266D01*
X62356211Y25395608D01*
X62080895Y25478721D01*
X61856308Y25465657D01*
X61639451Y25356110D01*
X61479252Y25170763D01*
X61390471Y24935841D01*
X61387869Y24677566D01*
X60957661Y24677566D01*
X60950479Y24939966D01*
X61035593Y25245375D01*
X61204507Y25511272D01*
X61447019Y25717320D01*
X61752931Y25843182D01*
X62112041Y25868519D01*
X62287691Y25842265D01*
X62622708Y25710154D01*
X62876319Y25486102D01*
X63036964Y25182559D01*
X63093081Y24811976D01*
X63086231Y24727946D01*
X63073646Y24573574D01*
X62959122Y24228296D01*
G37*
G36*
X81517110Y26315787D02*
G01*
X81266528Y26030036D01*
X80915083Y25819860D01*
X80899937Y25813751D01*
X80645213Y25765816D01*
X80338390Y25779852D01*
X80031585Y25849125D01*
X79776916Y25966901D01*
X79515100Y26207196D01*
X79335692Y26521824D01*
X79255932Y26875962D01*
X79265186Y27006617D01*
X79834975Y27006617D01*
X79879899Y26780712D01*
X80052071Y26550051D01*
X80094577Y26509031D01*
X80285897Y26372936D01*
X80475404Y26331970D01*
X80515590Y26333550D01*
X80702357Y26392226D01*
X80898737Y26550051D01*
X81012114Y26682085D01*
X81112005Y26908990D01*
X81084841Y27136025D01*
X80930958Y27371798D01*
X80822858Y27479801D01*
X80675147Y27559919D01*
X80475404Y27579812D01*
X80327383Y27570865D01*
X80171046Y27512150D01*
X80019850Y27371798D01*
X79916961Y27236373D01*
X79834975Y27006617D01*
X79265186Y27006617D01*
X79281866Y27242101D01*
X79419541Y27592729D01*
X79436764Y27622369D01*
X79522460Y27792024D01*
X79542662Y27908293D01*
X79506440Y28015283D01*
X79475676Y28070754D01*
X79383221Y28232352D01*
X79242622Y28475470D01*
X79063802Y28783014D01*
X78856684Y29137891D01*
X78631191Y29523005D01*
X77831868Y30886010D01*
X76045088Y30886010D01*
X75926450Y30613409D01*
X75926016Y30612413D01*
X75721850Y30284375D01*
X75438940Y30025866D01*
X75105414Y29856428D01*
X74749402Y29795606D01*
X74489633Y29836675D01*
X74178532Y29971997D01*
X73898621Y30176570D01*
X73693774Y30424265D01*
X73609529Y30603523D01*
X73531573Y30929427D01*
X73531167Y31122510D01*
X74126308Y31122510D01*
X74151783Y30873091D01*
X74301793Y30632746D01*
X74467518Y30493223D01*
X74715563Y30406784D01*
X74973480Y30445461D01*
X75229270Y30609557D01*
X75327155Y30745009D01*
X75380807Y30972088D01*
X75355381Y31216664D01*
X75256824Y31436576D01*
X75091078Y31589664D01*
X75070682Y31600058D01*
X74809801Y31661315D01*
X74542033Y31615000D01*
X74312894Y31468217D01*
X74225140Y31363934D01*
X74126308Y31122510D01*
X73531167Y31122510D01*
X73530889Y31254457D01*
X73611055Y31530758D01*
X73617951Y31543953D01*
X73862321Y31877814D01*
X74185587Y32120407D01*
X74567044Y32256024D01*
X74699628Y32270238D01*
X75029402Y32229530D01*
X75353588Y32100342D01*
X75632603Y31901641D01*
X75826866Y31652391D01*
X75924658Y31463283D01*
X77040830Y31463283D01*
X77119522Y31463279D01*
X77501970Y31462526D01*
X77779182Y31458724D01*
X77970794Y31449381D01*
X78096438Y31432003D01*
X78175749Y31404099D01*
X78228360Y31363174D01*
X78273905Y31306738D01*
X78330089Y31221157D01*
X78443560Y31036753D01*
X78482453Y30972088D01*
X78602177Y30773030D01*
X78796078Y30446505D01*
X79015402Y30073700D01*
X79250286Y29671132D01*
X80109765Y28192071D01*
X80422927Y28192071D01*
X80482823Y28191050D01*
X80888488Y28123067D01*
X81223844Y27956383D01*
X81477495Y27701923D01*
X81638043Y27370615D01*
X81694091Y26973384D01*
X81687025Y26908990D01*
X81660565Y26667840D01*
X81517110Y26315787D01*
G37*
G36*
X66428434Y23766313D02*
G01*
X66428434Y24838111D01*
X65976638Y24875988D01*
X65743199Y24905433D01*
X65400987Y25005283D01*
X65152996Y25171384D01*
X64985061Y25411383D01*
X64954267Y25484781D01*
X64904380Y25789697D01*
X64913402Y25830524D01*
X65356965Y25830524D01*
X65364854Y25647445D01*
X65495468Y25463145D01*
X65536467Y25424475D01*
X65652420Y25349775D01*
X65805393Y25314545D01*
X66040670Y25305707D01*
X66428434Y25305707D01*
X66428434Y26203687D01*
X66016171Y26203687D01*
X65817720Y26200077D01*
X65660581Y26179056D01*
X65558381Y26128074D01*
X65470969Y26034683D01*
X65470853Y26034536D01*
X65356965Y25830524D01*
X64913402Y25830524D01*
X64969418Y26084011D01*
X65139997Y26342597D01*
X65406731Y26540330D01*
X65477548Y26571751D01*
X65658127Y26619264D01*
X65906306Y26644880D01*
X66252046Y26652577D01*
X66877424Y26652677D01*
X66877424Y23766313D01*
X66428434Y23766313D01*
G37*
G36*
X64183485Y18570859D02*
G01*
X64183485Y19665103D01*
X63992917Y19524210D01*
X63989970Y19522043D01*
X63722306Y19399588D01*
X63426106Y19383176D01*
X63130864Y19464719D01*
X62866070Y19636134D01*
X62661217Y19889332D01*
X62642542Y19923997D01*
X62541196Y20238577D01*
X62533821Y20484879D01*
X62959123Y20484879D01*
X62996160Y20227137D01*
X63130853Y19986891D01*
X63232848Y19880852D01*
X63373052Y19807576D01*
X63574142Y19789545D01*
X63737237Y19799592D01*
X63884995Y19857876D01*
X64024330Y19995091D01*
X64047476Y20023034D01*
X64141397Y20164083D01*
X64175640Y20309771D01*
X64166551Y20520484D01*
X64141541Y20670627D01*
X64026047Y20924651D01*
X63831734Y21082348D01*
X63565631Y21136515D01*
X63329114Y21085876D01*
X63136084Y20941970D01*
X63009259Y20732398D01*
X62959123Y20484879D01*
X62533821Y20484879D01*
X62531081Y20576389D01*
X62605094Y20903661D01*
X62756136Y21186627D01*
X62977104Y21391516D01*
X63068586Y21438767D01*
X63371676Y21513965D01*
X63691838Y21499012D01*
X63975025Y21393784D01*
X64088371Y21329661D01*
X64164097Y21311120D01*
X64183485Y21361953D01*
X64183740Y21368781D01*
X64241239Y21435990D01*
X64407980Y21457222D01*
X64632475Y21457222D01*
X64632475Y18570859D01*
X64183485Y18570859D01*
G37*
G36*
X80234525Y18371848D02*
G01*
X80052845Y18072001D01*
X79795011Y17831136D01*
X79469348Y17673960D01*
X79289542Y17630410D01*
X79057443Y17622233D01*
X78787152Y17677505D01*
X78696411Y17710619D01*
X78482797Y17830851D01*
X78270544Y17993451D01*
X78098215Y18166801D01*
X78004376Y18319282D01*
X77989797Y18353426D01*
X77952623Y18388812D01*
X77878720Y18413380D01*
X77749779Y18429086D01*
X77547488Y18437883D01*
X77253539Y18441729D01*
X76849621Y18442576D01*
X76496094Y18444330D01*
X76137973Y18452333D01*
X75887151Y18467540D01*
X75731813Y18490748D01*
X75660140Y18522753D01*
X75658027Y18525217D01*
X75601623Y18609201D01*
X75490347Y18787457D01*
X75410832Y18917834D01*
X78486505Y18917834D01*
X78518239Y18669381D01*
X78674511Y18437642D01*
X78690024Y18422567D01*
X78912818Y18282366D01*
X79148621Y18245452D01*
X79374014Y18296969D01*
X79565581Y18422058D01*
X79699902Y18605865D01*
X79753559Y18833533D01*
X79703133Y19090204D01*
X79574510Y19290820D01*
X79366627Y19437176D01*
X79124679Y19488370D01*
X78880416Y19438538D01*
X78665587Y19281816D01*
X78579464Y19168325D01*
X78486505Y18917834D01*
X75410832Y18917834D01*
X75333312Y19044940D01*
X75139635Y19366608D01*
X74918430Y19737417D01*
X74678812Y20142323D01*
X73771341Y21681717D01*
X73387135Y21715778D01*
X73385390Y21715934D01*
X72960350Y21805080D01*
X72616477Y21985705D01*
X72361710Y22251892D01*
X72203984Y22597724D01*
X72181784Y22680323D01*
X72144546Y22876021D01*
X72146896Y22930515D01*
X72778434Y22930515D01*
X72793110Y22766229D01*
X72892757Y22546576D01*
X73097858Y22387937D01*
X73299544Y22314478D01*
X73556543Y22320102D01*
X73778034Y22445859D01*
X73951939Y22687513D01*
X73955950Y22695721D01*
X74023609Y22859648D01*
X74028228Y22986895D01*
X73973027Y23147772D01*
X73923415Y23246157D01*
X73738763Y23445055D01*
X73497903Y23538926D01*
X73224090Y23516327D01*
X73000231Y23402466D01*
X72836266Y23197985D01*
X72778434Y22930515D01*
X72146896Y22930515D01*
X72151946Y23047589D01*
X72203984Y23267225D01*
X72283640Y23478415D01*
X72484599Y23767961D01*
X72751200Y23975200D01*
X73061799Y24098763D01*
X73394756Y24137281D01*
X73728427Y24089387D01*
X74041170Y23953710D01*
X74311344Y23728883D01*
X74517305Y23413535D01*
X74599893Y23158262D01*
X74611325Y22986895D01*
X74622820Y22814593D01*
X74556569Y22488963D01*
X74404958Y22221869D01*
X74357203Y22151105D01*
X74318638Y22029444D01*
X74344802Y21963050D01*
X74428634Y21798810D01*
X74561724Y21554258D01*
X74735400Y21245032D01*
X74940987Y20886767D01*
X75169811Y20495101D01*
X76020174Y19051919D01*
X76924526Y19034174D01*
X77828879Y19016428D01*
X78002355Y19371002D01*
X78126590Y19581898D01*
X78393180Y19855801D01*
X78727499Y20020828D01*
X79128056Y20076044D01*
X79195242Y20074777D01*
X79541876Y20014688D01*
X79838125Y19854471D01*
X80111804Y19580101D01*
X80239364Y19378232D01*
X80336111Y19049669D01*
X80333351Y18833533D01*
X80331722Y18705973D01*
X80234525Y18371848D01*
G37*
G36*
X60510363Y24318487D02*
G01*
X60343932Y24029405D01*
X60079435Y23821096D01*
X59953023Y23765631D01*
X59664197Y23706917D01*
X59385807Y23728679D01*
X59162952Y23830455D01*
X59132990Y23853771D01*
X59002823Y23941051D01*
X58940123Y23941795D01*
X58923889Y23858461D01*
X58921978Y23836315D01*
X58866509Y23781165D01*
X58715429Y23778285D01*
X58506970Y23798384D01*
X58506970Y24839659D01*
X58927448Y24839659D01*
X58950180Y24576408D01*
X59060914Y24343968D01*
X59253898Y24178422D01*
X59497042Y24095597D01*
X59735155Y24122675D01*
X59955086Y24274511D01*
X60065826Y24404275D01*
X60126808Y24555905D01*
X60141150Y24771606D01*
X60140180Y24811957D01*
X60080364Y25098881D01*
X59944033Y25312191D01*
X59753809Y25442018D01*
X59532311Y25478496D01*
X59302160Y25411756D01*
X59085976Y25231929D01*
X58998469Y25097636D01*
X58927448Y24839659D01*
X58506970Y24839659D01*
X58506970Y26620606D01*
X58715429Y26640705D01*
X58923889Y26660805D01*
X58923889Y25566139D01*
X59164419Y25730387D01*
X59286042Y25805618D01*
X59466947Y25866955D01*
X59684878Y25863790D01*
X59760785Y25853081D01*
X60090064Y25738373D01*
X60339928Y25526252D01*
X60503808Y25224273D01*
X60575135Y24839991D01*
X60575771Y24771606D01*
X60576586Y24683937D01*
X60510363Y24318487D01*
G37*
G36*
X71608335Y25555503D02*
G01*
X71399351Y25271763D01*
X71099964Y25058489D01*
X70835859Y24962398D01*
X70455404Y24929367D01*
X70085872Y25008655D01*
X69753179Y25193547D01*
X69483243Y25477330D01*
X69397039Y25624824D01*
X69298990Y25955739D01*
X69303264Y26170229D01*
X69881294Y26170229D01*
X69925066Y25917521D01*
X70079561Y25685622D01*
X70201441Y25588701D01*
X70447624Y25500448D01*
X70700424Y25520238D01*
X70929185Y25642765D01*
X71103251Y25862728D01*
X71145780Y25969663D01*
X71160969Y26211158D01*
X71079459Y26431358D01*
X70923051Y26609791D01*
X70713548Y26725984D01*
X70472754Y26759465D01*
X70222471Y26689760D01*
X70108517Y26615809D01*
X69943894Y26413181D01*
X69881294Y26170229D01*
X69303264Y26170229D01*
X69305745Y26294717D01*
X69405647Y26620263D01*
X69587035Y26910883D01*
X69838249Y27145080D01*
X70147631Y27301362D01*
X70503520Y27358232D01*
X70774085Y27358232D01*
X71272924Y28229356D01*
X71368995Y28395895D01*
X71540228Y28686582D01*
X71688466Y28930536D01*
X71728837Y28993838D01*
X76306212Y28993838D01*
X76306583Y28968277D01*
X76352464Y28759965D01*
X76493703Y28571985D01*
X76509451Y28556692D01*
X76731873Y28416998D01*
X76967530Y28380243D01*
X77192964Y28431615D01*
X77384717Y28556302D01*
X77519334Y28739492D01*
X77573355Y28966373D01*
X77523325Y29222133D01*
X77415141Y29405834D01*
X77210765Y29554689D01*
X76928421Y29603182D01*
X76749233Y29576712D01*
X76521418Y29451802D01*
X76364590Y29248546D01*
X76306212Y28993838D01*
X71728837Y28993838D01*
X71800410Y29106065D01*
X71862762Y29191477D01*
X71879200Y29204117D01*
X71944652Y29228518D01*
X72059876Y29247513D01*
X72237956Y29261704D01*
X72491974Y29271694D01*
X72835014Y29278085D01*
X73280157Y29281478D01*
X73840489Y29282475D01*
X75727218Y29282475D01*
X75816391Y29490934D01*
X75969693Y29736676D01*
X76200367Y29963138D01*
X76454706Y30112233D01*
X76592191Y30152890D01*
X76936346Y30181710D01*
X77290160Y30129300D01*
X77611741Y30004492D01*
X77859195Y29816119D01*
X77947687Y29703945D01*
X78101212Y29378825D01*
X78153381Y29020826D01*
X78146306Y28966373D01*
X78106465Y28659749D01*
X77962734Y28325395D01*
X77724459Y28047564D01*
X77705040Y28031758D01*
X77469102Y27888749D01*
X77194933Y27784277D01*
X76947626Y27743796D01*
X76856810Y27749266D01*
X76544844Y27835765D01*
X76240345Y28006819D01*
X75983561Y28235715D01*
X75814737Y28495740D01*
X75727218Y28705202D01*
X72230740Y28705202D01*
X71761383Y27897470D01*
X71292026Y27089739D01*
X71418384Y26951385D01*
X71457954Y26905970D01*
X71651725Y26584944D01*
X71738636Y26236553D01*
X71737491Y26211158D01*
X71722801Y25885253D01*
X71608335Y25555503D01*
G37*
G36*
X56819931Y22075158D02*
G01*
X56862201Y21983605D01*
X56883885Y21793965D01*
X56890851Y21700300D01*
X56916173Y21558576D01*
X56971911Y21493504D01*
X57079823Y21468997D01*
X57104831Y21465683D01*
X57223907Y21416502D01*
X57256212Y21300626D01*
X57255118Y21272274D01*
X57206883Y21168548D01*
X57063788Y21114066D01*
X56871364Y21075581D01*
X56869324Y20416528D01*
X56869095Y20365565D01*
X56861209Y20045001D01*
X56836714Y19822619D01*
X56787526Y19672015D01*
X56705558Y19566785D01*
X56582727Y19480524D01*
X56560835Y19469529D01*
X56397365Y19429218D01*
X56197879Y19421038D01*
X56153024Y19424023D01*
X56009261Y19447625D01*
X55945261Y19511219D01*
X55921044Y19647512D01*
X55915534Y19786470D01*
X55954788Y19834036D01*
X56066195Y19816738D01*
X56075455Y19814462D01*
X56221482Y19799566D01*
X56321261Y19848190D01*
X56382719Y19976319D01*
X56413781Y20199936D01*
X56422374Y20535026D01*
X56422374Y21136515D01*
X56197879Y21136515D01*
X56065635Y21144035D01*
X55990157Y21188428D01*
X55973384Y21296869D01*
X55983911Y21391329D01*
X56046062Y21445242D01*
X56197879Y21457222D01*
X56291537Y21458689D01*
X56382990Y21482730D01*
X56417219Y21564389D01*
X56422374Y21738996D01*
X56423686Y21805047D01*
X56458503Y21985236D01*
X56557887Y22074557D01*
X56744813Y22098636D01*
X56819931Y22075158D01*
G37*
G36*
X54797912Y25865874D02*
G01*
X54859370Y25857274D01*
X55190330Y25743524D01*
X55449901Y25535164D01*
X55627064Y25248942D01*
X55710802Y24901602D01*
X55690096Y24509890D01*
X55678635Y24460086D01*
X55554702Y24193486D01*
X55352368Y23954816D01*
X55110655Y23792393D01*
X54910157Y23727564D01*
X54551321Y23708765D01*
X54205570Y23803766D01*
X53904823Y24006889D01*
X53817826Y24094198D01*
X53742008Y24206042D01*
X53769046Y24281903D01*
X53898464Y24347265D01*
X53936571Y24360747D01*
X54074673Y24371616D01*
X54203135Y24286290D01*
X54295936Y24213854D01*
X54538000Y24118653D01*
X54788001Y24123202D01*
X55011645Y24223007D01*
X55174641Y24413577D01*
X55267185Y24689691D01*
X55262195Y24968623D01*
X55160924Y25208968D01*
X54973829Y25386707D01*
X54711367Y25477818D01*
X54544777Y25490114D01*
X54408610Y25454863D01*
X54277550Y25347523D01*
X54192775Y25270193D01*
X54079271Y25217170D01*
X53951967Y25241932D01*
X53894295Y25267979D01*
X53804512Y25363899D01*
X53836276Y25490878D01*
X53989944Y25652802D01*
X54018262Y25676127D01*
X54242972Y25817071D01*
X54486867Y25876104D01*
X54797912Y25865874D01*
G37*
G36*
X81629931Y22613440D02*
G01*
X81482587Y22298222D01*
X81256176Y22029623D01*
X80959118Y21834352D01*
X80748728Y21759629D01*
X80386415Y21721828D01*
X80044865Y21789239D01*
X79741752Y21947557D01*
X79494752Y22182477D01*
X79321539Y22479692D01*
X79239788Y22824899D01*
X79249202Y22955160D01*
X79822896Y22955160D01*
X79854443Y22728671D01*
X79975228Y22528200D01*
X80189871Y22381843D01*
X80214560Y22371756D01*
X80378475Y22315294D01*
X80489379Y22293629D01*
X80515287Y22295790D01*
X80701894Y22366047D01*
X80888450Y22507237D01*
X81023868Y22682217D01*
X81055927Y22755822D01*
X81086462Y23002268D01*
X81015018Y23231427D01*
X80860957Y23417031D01*
X80643639Y23532811D01*
X80382426Y23552499D01*
X80217464Y23509791D01*
X80009027Y23373815D01*
X79875964Y23179574D01*
X79822896Y22955160D01*
X79249202Y22955160D01*
X79267172Y23203790D01*
X79307741Y23345493D01*
X79487042Y23676701D01*
X79757181Y23929500D01*
X80102534Y24091943D01*
X80507475Y24152085D01*
X80828182Y24155826D01*
X81629950Y25540438D01*
X81799902Y25834327D01*
X82009062Y26197149D01*
X82191426Y26514773D01*
X82337587Y26770763D01*
X82438141Y26948688D01*
X82483682Y27032111D01*
X82487450Y27042296D01*
X82477774Y27140700D01*
X82409805Y27312115D01*
X82278609Y27567342D01*
X82079249Y27917185D01*
X81622850Y28695201D01*
X81284569Y28660287D01*
X81222346Y28655215D01*
X80852459Y28685571D01*
X80537287Y28811097D01*
X80282224Y29012763D01*
X80092667Y29271540D01*
X79974012Y29568398D01*
X79931653Y29884308D01*
X79936669Y29924593D01*
X80539267Y29924593D01*
X80556028Y29690741D01*
X80660261Y29478063D01*
X80858969Y29315209D01*
X81106783Y29235538D01*
X81358895Y29257008D01*
X81566128Y29380566D01*
X81706551Y29592464D01*
X81758232Y29878953D01*
X81731763Y30058141D01*
X81606853Y30285956D01*
X81403597Y30442783D01*
X81148889Y30501162D01*
X80943769Y30466681D01*
X80740141Y30341214D01*
X80602972Y30150967D01*
X80539267Y29924593D01*
X79936669Y29924593D01*
X79970988Y30200239D01*
X80097410Y30497163D01*
X80316317Y30756050D01*
X80633104Y30957870D01*
X80735648Y30999442D01*
X81113503Y31072961D01*
X81480766Y31030459D01*
X81815574Y30880641D01*
X82096064Y30632215D01*
X82300373Y30293887D01*
X82301991Y30290002D01*
X82386858Y29985333D01*
X82382582Y29878953D01*
X82374739Y29683816D01*
X82264040Y29343808D01*
X82128434Y29028582D01*
X82648889Y28132777D01*
X82761371Y27936641D01*
X82923269Y27644341D01*
X83052604Y27398269D01*
X83138315Y27219735D01*
X83169344Y27130048D01*
X83168961Y27126254D01*
X83131284Y27033503D01*
X83037809Y26847088D01*
X82896807Y26582299D01*
X82716551Y26254421D01*
X82505312Y25878742D01*
X82271364Y25470549D01*
X82242841Y25421195D01*
X82011482Y25017854D01*
X81803724Y24650466D01*
X81627802Y24333985D01*
X81491948Y24083368D01*
X81404397Y23913570D01*
X81373384Y23839547D01*
X81373982Y23831362D01*
X81417496Y23722088D01*
X81508793Y23577968D01*
X81513364Y23571727D01*
X81653739Y23276900D01*
X81683892Y23002268D01*
X81689788Y22948568D01*
X81629931Y22613440D01*
G37*
G36*
X64162114Y28593609D02*
G01*
X64052530Y28332568D01*
X63855718Y28153298D01*
X63791018Y28123114D01*
X63525628Y28070718D01*
X63235868Y28094326D01*
X62980833Y28191368D01*
X62867488Y28255491D01*
X62791761Y28274032D01*
X62772374Y28223199D01*
X62772119Y28216371D01*
X62714620Y28149162D01*
X62547879Y28127929D01*
X62323384Y28127929D01*
X62323742Y28785379D01*
X62324852Y28839812D01*
X62792192Y28839812D01*
X62843870Y28686228D01*
X62985698Y28549818D01*
X63125293Y28473078D01*
X63343101Y28418339D01*
X63542071Y28467681D01*
X63561598Y28478201D01*
X63692401Y28615933D01*
X63718914Y28792799D01*
X63633496Y28967057D01*
X63485152Y29052609D01*
X63271547Y29089736D01*
X63048987Y29074784D01*
X62872985Y29004986D01*
X62839566Y28974622D01*
X62792192Y28839812D01*
X62324852Y28839812D01*
X62331564Y29168909D01*
X62361859Y29503844D01*
X62419616Y29748748D01*
X62509721Y29923295D01*
X62637060Y30047165D01*
X62822766Y30146363D01*
X63131174Y30218620D01*
X63453818Y30210995D01*
X63750703Y30125909D01*
X63981834Y29965781D01*
X64124606Y29813808D01*
X63970818Y29713042D01*
X63893920Y29666423D01*
X63804102Y29647904D01*
X63720446Y29708861D01*
X63704247Y29722882D01*
X63562313Y29792911D01*
X63374507Y29838704D01*
X63314132Y29845341D01*
X63119137Y29829758D01*
X62948763Y29732917D01*
X62934314Y29721166D01*
X62819468Y29596405D01*
X62772360Y29486279D01*
X62772482Y29480075D01*
X62793896Y29427878D01*
X62869330Y29397066D01*
X63023497Y29382411D01*
X63281107Y29378687D01*
X63420186Y29378072D01*
X63632377Y29369173D01*
X63772327Y29341638D01*
X63877830Y29285377D01*
X63986677Y29190298D01*
X64035470Y29141131D01*
X64150453Y28970037D01*
X64178175Y28792799D01*
X64181212Y28773379D01*
X64162114Y28593609D01*
G37*
G36*
X52938452Y26395440D02*
G01*
X53034581Y26373787D01*
X53079314Y26294999D01*
X53099368Y26123510D01*
X53102045Y26088610D01*
X53126587Y25931306D01*
X53182537Y25858045D01*
X53295480Y25830613D01*
X53358434Y25820488D01*
X53449897Y25763489D01*
X53471869Y25626414D01*
X53469105Y25560460D01*
X53424529Y25459971D01*
X53295480Y25422215D01*
X53119091Y25401919D01*
X53087020Y24706499D01*
X53084118Y24644538D01*
X53067531Y24353092D01*
X53046933Y24158366D01*
X53016191Y24033472D01*
X52969170Y23951522D01*
X52899735Y23885626D01*
X52863097Y23858355D01*
X52690532Y23787605D01*
X52450745Y23779279D01*
X52381083Y23784365D01*
X52231925Y23808905D01*
X52162806Y23863551D01*
X52137070Y23970670D01*
X52136102Y23979256D01*
X52138478Y24089161D01*
X52201048Y24140551D01*
X52357855Y24163095D01*
X52508649Y24186504D01*
X52599978Y24252275D01*
X52653304Y24395995D01*
X52673988Y24517527D01*
X52690451Y24752322D01*
X52689085Y25005338D01*
X52670101Y25401919D01*
X52429571Y25421827D01*
X52425658Y25422152D01*
X52269199Y25446165D01*
X52202829Y25503618D01*
X52189041Y25626414D01*
X52189043Y25629418D01*
X52203453Y25750741D01*
X52271126Y25807302D01*
X52429571Y25831002D01*
X52511571Y25838802D01*
X52622418Y25869831D01*
X52670398Y25951878D01*
X52689824Y26123510D01*
X52694950Y26188045D01*
X52719727Y26327348D01*
X52777370Y26384848D01*
X52894596Y26396111D01*
X52938452Y26395440D01*
G37*
G36*
X60321193Y28684164D02*
G01*
X60168688Y28403414D01*
X59931529Y28189794D01*
X59836307Y28141364D01*
X59536870Y28070529D01*
X59219621Y28087226D01*
X58939924Y28191368D01*
X58826579Y28255491D01*
X58750852Y28274032D01*
X58731465Y28223199D01*
X58731139Y28215503D01*
X58672968Y28148925D01*
X58505743Y28127929D01*
X58280021Y28127929D01*
X58291645Y29088974D01*
X58735890Y29088974D01*
X58796601Y28834934D01*
X58955653Y28603466D01*
X59097305Y28500199D01*
X59342827Y28448636D01*
X59377002Y28449580D01*
X59619580Y28517804D01*
X59804536Y28673807D01*
X59921596Y28889215D01*
X59960486Y29135651D01*
X59910933Y29384743D01*
X59762661Y29608116D01*
X59569275Y29751511D01*
X59354392Y29795606D01*
X59296579Y29793077D01*
X59053864Y29717637D01*
X58873514Y29557214D01*
X58764525Y29338697D01*
X58735890Y29088974D01*
X58291645Y29088974D01*
X58297283Y29555076D01*
X58314546Y30982222D01*
X58699394Y30982222D01*
X58718064Y30450564D01*
X58736733Y29918905D01*
X58928572Y30055506D01*
X59002926Y30100557D01*
X59277488Y30183805D01*
X59582178Y30182729D01*
X59864961Y30095128D01*
X60104466Y29911908D01*
X60280680Y29645916D01*
X60376200Y29333742D01*
X60384504Y29135651D01*
X60390034Y29003716D01*
X60321193Y28684164D01*
G37*
G36*
X73884199Y19784927D02*
G01*
X73826909Y19593570D01*
X73706558Y19392666D01*
X73684570Y19362308D01*
X73472200Y19139434D01*
X73229011Y18971742D01*
X72907609Y18860805D01*
X72541290Y18845069D01*
X72193478Y18935742D01*
X71887098Y19122639D01*
X71645073Y19395572D01*
X71490328Y19744356D01*
X71454265Y20015965D01*
X71459933Y20059235D01*
X72069491Y20059235D01*
X72113522Y19814669D01*
X72260369Y19592187D01*
X72444281Y19460359D01*
X72680760Y19403850D01*
X72909432Y19447885D01*
X73104592Y19580670D01*
X73240538Y19790412D01*
X73291566Y20065317D01*
X73265096Y20244505D01*
X73140186Y20472320D01*
X72936930Y20629147D01*
X72682222Y20687525D01*
X72444315Y20639889D01*
X72245884Y20500400D01*
X72117277Y20297330D01*
X72069491Y20059235D01*
X71459933Y20059235D01*
X71496307Y20336934D01*
X71625094Y20719596D01*
X71642012Y20764322D01*
X71657180Y20840508D01*
X71646365Y20928991D01*
X71601548Y21049303D01*
X71514707Y21220975D01*
X71377823Y21463538D01*
X71182877Y21796522D01*
X71073661Y21984380D01*
X70910456Y22275495D01*
X70780108Y22521213D01*
X70693829Y22700097D01*
X70662832Y22790714D01*
X70664049Y22798248D01*
X70706901Y22899576D01*
X70805028Y23093545D01*
X70950249Y23365074D01*
X71134386Y23699080D01*
X71349257Y24080479D01*
X71586684Y24494189D01*
X72509473Y26087973D01*
X72357014Y26312635D01*
X72353516Y26317820D01*
X72197187Y26659939D01*
X72154553Y27030919D01*
X72169419Y27109748D01*
X72758259Y27109748D01*
X72769550Y26883993D01*
X72853795Y26649374D01*
X72987270Y26473184D01*
X73021810Y26448123D01*
X73230692Y26372226D01*
X73474656Y26364457D01*
X73690837Y26428784D01*
X73832681Y26530549D01*
X73958570Y26725270D01*
X73997121Y26997661D01*
X73981039Y27138667D01*
X73874374Y27363017D01*
X73692708Y27521065D01*
X73465409Y27599258D01*
X73221841Y27584042D01*
X72991372Y27461863D01*
X72962690Y27436196D01*
X72830931Y27275832D01*
X72759808Y27118422D01*
X72758259Y27109748D01*
X72169419Y27109748D01*
X72224644Y27402597D01*
X72406486Y27746811D01*
X72500937Y27855157D01*
X72779185Y28050234D01*
X73112383Y28162364D01*
X73467201Y28187384D01*
X73810311Y28121128D01*
X74108384Y27959434D01*
X74168578Y27908660D01*
X74417791Y27610974D01*
X74560215Y27273557D01*
X74588299Y26997661D01*
X74596285Y26919203D01*
X74526436Y26570706D01*
X74351103Y26250862D01*
X74070718Y25982465D01*
X74057625Y25973276D01*
X73866314Y25860523D01*
X73672335Y25803483D01*
X73413518Y25783317D01*
X73024075Y25773319D01*
X72221101Y24401003D01*
X72056189Y24118627D01*
X71844299Y23754152D01*
X71658725Y23433045D01*
X71509135Y23172116D01*
X71405197Y22988173D01*
X71356581Y22898024D01*
X71355332Y22895305D01*
X71342648Y22820998D01*
X71367283Y22713656D01*
X71437394Y22554652D01*
X71561137Y22325362D01*
X71746668Y22007160D01*
X72198301Y21246958D01*
X72674899Y21239843D01*
X72715424Y21239177D01*
X72958790Y21228601D01*
X73124129Y21199224D01*
X73255740Y21138406D01*
X73397921Y21033503D01*
X73481406Y20962792D01*
X73723590Y20691001D01*
X73857554Y20391889D01*
X73895227Y20065317D01*
X73898771Y20034599D01*
X73884199Y19784927D01*
G37*
G36*
X54578570Y28522874D02*
G01*
X54408333Y28281869D01*
X54265014Y28154944D01*
X54110979Y28082030D01*
X53911237Y28064028D01*
X53661269Y28097171D01*
X53423763Y28191368D01*
X53310417Y28255491D01*
X53234691Y28274032D01*
X53215303Y28223199D01*
X53214705Y28212846D01*
X53154456Y28148202D01*
X52985711Y28127929D01*
X52756119Y28127929D01*
X52776028Y28908839D01*
X53214723Y28908839D01*
X53226847Y28764516D01*
X53359621Y28592855D01*
X53527832Y28477546D01*
X53741863Y28418791D01*
X53940085Y28442210D01*
X54091485Y28543041D01*
X54165051Y28716522D01*
X54165543Y28776428D01*
X54092675Y28937005D01*
X53928139Y29048221D01*
X53698127Y29089175D01*
X53526973Y29078152D01*
X53316885Y29016493D01*
X53214723Y28908839D01*
X52776028Y28908839D01*
X52777251Y28956798D01*
X52785029Y29230160D01*
X52797189Y29492189D01*
X52815750Y29670269D01*
X52845185Y29789488D01*
X52889964Y29874938D01*
X52954560Y29951710D01*
X53170198Y30107471D01*
X53467610Y30203897D01*
X53791470Y30223178D01*
X54100747Y30163254D01*
X54354414Y30022061D01*
X54384725Y29995868D01*
X54477649Y29902356D01*
X54483349Y29833559D01*
X54411492Y29742043D01*
X54382242Y29710052D01*
X54307672Y29649425D01*
X54228064Y29658327D01*
X54091386Y29735732D01*
X54087416Y29738137D01*
X53853046Y29831887D01*
X53618803Y29848179D01*
X53414534Y29794724D01*
X53270085Y29679233D01*
X53215303Y29509415D01*
X53215324Y29500621D01*
X53224632Y29421693D01*
X53271500Y29383587D01*
X53385928Y29377212D01*
X53597920Y29393475D01*
X53651047Y29397726D01*
X54012365Y29385680D01*
X54290075Y29289754D01*
X54500305Y29104789D01*
X54556799Y29020769D01*
X54628287Y28776428D01*
X54628708Y28774989D01*
X54578570Y28522874D01*
G37*
G36*
X63625823Y25851572D02*
G01*
X63881389Y25727619D01*
X63963669Y25672475D01*
X64068906Y25612334D01*
X64111422Y25620390D01*
X64119344Y25692489D01*
X64121120Y25723103D01*
X64170572Y25798405D01*
X64311768Y25818838D01*
X64504192Y25818838D01*
X64504192Y23766313D01*
X64131365Y23766313D01*
X64109319Y24403211D01*
X64100783Y24588854D01*
X64065632Y24922937D01*
X63999947Y25155428D01*
X63893339Y25304154D01*
X63735417Y25386943D01*
X63515791Y25421624D01*
X63375683Y25432464D01*
X63265040Y25459153D01*
X63228270Y25521948D01*
X63233609Y25646119D01*
X63249147Y25746855D01*
X63309140Y25837086D01*
X63448434Y25870005D01*
X63625823Y25851572D01*
G37*
%TO.C,TP12*%
X136465000Y11650000D02*
G75*
G03*
X136465000Y11650000I-1200000J0D01*
G01*
%TO.C,BT1*%
X18300000Y44900000D02*
X18300000Y42450000D01*
X12200000Y42450000D02*
X12200000Y44900000D01*
X12750000Y45450000D02*
X17750000Y45450000D01*
X14734009Y18136557D02*
G75*
G03*
X18770000Y41750000I515991J12063443D01*
G01*
X18300000Y44900000D02*
G75*
G03*
X17750000Y45450000I-549999J1D01*
G01*
X12750000Y45450000D02*
G75*
G03*
X12200000Y44900000I-1J-549999D01*
G01*
X11730000Y41750000D02*
G75*
G03*
X15765991Y18136557I3520000J-11550000D01*
G01*
X11706515Y41745231D02*
G75*
G03*
X12200000Y42450000I-256515J704769D01*
G01*
X18300000Y42450000D02*
G75*
G03*
X18793485Y41745231I750000J0D01*
G01*
%TD*%
%LPC*%
D14*
%TO.C,H4*%
X135000000Y5000000D03*
%TD*%
D15*
%TO.C,RV1*%
X65665000Y56617500D03*
X68205000Y59157500D03*
X65665000Y61697500D03*
%TD*%
D16*
%TO.C,TP9*%
X67955000Y82135000D03*
%TD*%
D17*
%TO.C,U5*%
X47127000Y66387000D03*
D18*
X49667000Y66387000D03*
X52207000Y66387000D03*
X54747000Y66387000D03*
X57287000Y66387000D03*
X57287000Y81627000D03*
X54747000Y81627000D03*
X52207000Y81627000D03*
X49667000Y81627000D03*
X47127000Y81627000D03*
%TD*%
D16*
%TO.C,TP7*%
X62240000Y70705000D03*
%TD*%
D19*
%TO.C,U2*%
X30490000Y55465000D03*
D20*
X30490000Y58005000D03*
X30490000Y60545000D03*
X30490000Y63085000D03*
X30490000Y65625000D03*
X30490000Y68165000D03*
X30490000Y70705000D03*
X30490000Y73245000D03*
X30490000Y75785000D03*
X30490000Y78325000D03*
X30490000Y80865000D03*
X30490000Y83405000D03*
X22870000Y83405000D03*
X22870000Y80865000D03*
X22870000Y78325000D03*
X22870000Y75785000D03*
X22870000Y73245000D03*
X22870000Y70705000D03*
X22870000Y68165000D03*
X22870000Y65625000D03*
X22870000Y63085000D03*
X22870000Y60545000D03*
X22870000Y58005000D03*
X22870000Y55465000D03*
%TD*%
D16*
%TO.C,TP5*%
X74940000Y70705000D03*
%TD*%
%TO.C,TP16*%
X6614000Y48734000D03*
%TD*%
%TO.C,TP14*%
X127645000Y80230000D03*
%TD*%
%TO.C,TP15*%
X6106000Y54322000D03*
%TD*%
%TO.C,TP10*%
X81290000Y70705000D03*
%TD*%
D21*
%TO.C,U1*%
X5100000Y66260000D03*
D20*
X7640000Y66260000D03*
X10180000Y66260000D03*
X12720000Y66260000D03*
X12720000Y73880000D03*
X10180000Y73880000D03*
X7640000Y73880000D03*
X5100000Y73880000D03*
%TD*%
D16*
%TO.C,TP4*%
X81290000Y82135000D03*
%TD*%
%TO.C,BZ1*%
X116930000Y80865000D03*
D22*
X121930000Y80865000D03*
%TD*%
D14*
%TO.C,H2*%
X135000000Y85000000D03*
%TD*%
%TO.C,H3*%
X5000000Y5000000D03*
%TD*%
D16*
%TO.C,TP1*%
X101610000Y72610000D03*
%TD*%
D14*
%TO.C,H1*%
X5000000Y85000000D03*
%TD*%
D16*
%TO.C,TP6*%
X67955000Y70705000D03*
%TD*%
%TO.C,TP2*%
X135265000Y16095000D03*
%TD*%
%TO.C,TP3*%
X74940000Y82135000D03*
%TD*%
%TO.C,TP13*%
X127645000Y75785000D03*
%TD*%
%TO.C,TP11*%
X40015000Y71340000D03*
%TD*%
%TO.C,TP8*%
X61605000Y82135000D03*
%TD*%
D17*
%TO.C,U4*%
X85227000Y66387000D03*
D18*
X87767000Y66387000D03*
X90307000Y66387000D03*
X92847000Y66387000D03*
X95387000Y66387000D03*
X95387000Y81627000D03*
X92847000Y81627000D03*
X90307000Y81627000D03*
X87767000Y81627000D03*
X85227000Y81627000D03*
%TD*%
D23*
%TO.C,UI1*%
X120035000Y71330000D03*
D20*
X120035000Y68790000D03*
X120035000Y66250000D03*
X120035000Y63710000D03*
X120035000Y61170000D03*
X120035000Y58630000D03*
X120035000Y56090000D03*
X120035000Y53550000D03*
X120035000Y51010000D03*
X120035000Y48470000D03*
X120035000Y45930000D03*
X120035000Y43390000D03*
X120035000Y40850000D03*
X120035000Y38310000D03*
X127655000Y38310000D03*
X127655000Y40850000D03*
X127655000Y43390000D03*
X127655000Y45930000D03*
X127655000Y48470000D03*
X127655000Y51010000D03*
X127655000Y53550000D03*
X127655000Y56090000D03*
X127655000Y58630000D03*
X127655000Y61170000D03*
X127655000Y63710000D03*
X127655000Y66250000D03*
X127655000Y68790000D03*
X127655000Y71330000D03*
%TD*%
D24*
%TO.C,DS1*%
X108880000Y48480000D03*
X108879480Y17479300D03*
X33880900Y17479300D03*
X33880900Y48480000D03*
D25*
X77480000Y48480000D03*
X74940000Y48480000D03*
X72400000Y48480000D03*
X69860000Y48480000D03*
X67320000Y48480000D03*
X64780000Y48480000D03*
X62240000Y48480000D03*
X59700000Y48480000D03*
X57160000Y48480000D03*
X54620000Y48480000D03*
X52080000Y48480000D03*
X49540000Y48480000D03*
X47000000Y48480000D03*
X44460000Y48480000D03*
X41920000Y48480000D03*
D26*
X39380000Y48480000D03*
%TD*%
D27*
%TO.C,J2*%
X116294000Y7840000D03*
X110294000Y7840000D03*
D28*
X113294000Y12540000D03*
%TD*%
D29*
%TO.C,J1*%
X133360000Y21810000D03*
X133360000Y24350000D03*
X133360000Y26890000D03*
X133360000Y29430000D03*
X133360000Y31970000D03*
D30*
X133360000Y34510000D03*
%TD*%
%TO.C,J3*%
X135265000Y49750000D03*
D29*
X132725000Y49750000D03*
X135265000Y47210000D03*
X132725000Y47210000D03*
X135265000Y44670000D03*
X132725000Y44670000D03*
%TD*%
D16*
%TO.C,TP12*%
X135265000Y11650000D03*
%TD*%
D31*
%TO.C,BT1*%
X15250000Y43400000D03*
D24*
X15250000Y22910000D03*
%TD*%
M02*
