M48
; DRILL file {KiCad (6.0.5-0)} date Sunday, July 17, 2022 at 01:45:35 PM
; FORMAT={-:-/ absolute / inch / decimal}
; #@! TF.CreationDate,2022-07-17T13:45:35-04:00
; #@! TF.GenerationSoftware,Kicad,Pcbnew,(6.0.5-0)
; #@! TF.FileFunction,MixedPlating,1,2
FMAT,2
INCH
; #@! TA.AperFunction,Plated,PTH,ViaDrill
T1C0.0160
; #@! TA.AperFunction,Plated,PTH,ComponentDrill
T2C0.0315
; #@! TA.AperFunction,Plated,PTH,ComponentDrill
T3C0.0394
; #@! TA.AperFunction,Plated,PTH,ComponentDrill
T4C0.0472
; #@! TA.AperFunction,Plated,PTH,ComponentDrill
T5C0.0591
; #@! TA.AperFunction,Plated,PTH,ComponentDrill
T6C0.0984
; #@! TA.AperFunction,NonPlated,NPTH,ComponentDrill
T7C0.1260
%
G90
G05
T1
X0.475Y3.4337
X0.625Y3.3837
X0.625Y3.2337
X0.65Y0.3587
X0.7Y0.5337
X0.725Y3.2337
X0.775Y2.4587
X0.8Y3.1837
X0.822Y2.9337
X0.972Y2.4203
X0.975Y3.1087
X0.975Y2.7337
X0.975Y2.2337
X1.0Y2.5837
X1.0Y1.7337
X1.05Y3.0337
X1.125Y1.6587
X1.275Y3.2087
X1.275Y2.3087
X1.325Y3.3587
X1.325Y3.3087
X1.325Y1.3337
X1.375Y3.2087
X1.375Y2.4837
X1.5Y3.0837
X1.5Y2.8337
X1.55Y0.5837
X1.575Y2.3587
X1.775Y3.1587
X1.775Y2.079
X1.85Y2.2057
X1.9Y2.2807
X1.925Y2.9837
X1.925Y2.1337
X1.95Y2.2337
X2.0Y3.3307
X2.0Y2.3587
X2.025Y2.3087
X2.05Y3.0837
X2.05Y0.4087
X2.075Y2.1587
X2.1Y3.1587
X2.125Y2.3837
X2.175Y3.1337
X2.2Y2.7337
X2.225Y2.6837
X2.25Y2.5337
X2.3Y2.9837
X2.3Y2.6837
X2.425Y3.1087
X2.425Y2.3087
X2.425Y0.6337
X2.5Y2.4087
X2.575Y2.3337
X2.6Y1.5087
X2.675Y3.0587
X2.675Y2.5337
X2.6848Y2.1027
X2.7Y2.4337
X2.7Y2.1837
X2.7Y1.4807
X2.775Y2.3837
X2.8Y1.4557
X2.85Y2.1837
X2.95Y1.4307
X3.0Y2.5837
X3.0Y0.3337
X3.05Y3.0087
X3.05Y2.3837
X3.175Y3.0337
X3.275Y2.2837
X3.3Y2.7837
X3.3Y2.5337
X3.325Y3.0837
X3.325Y2.0587
X3.375Y0.6587
X3.45Y2.4087
X3.525Y2.4587
X3.55Y3.3337
X3.575Y2.3587
X3.625Y3.1337
X3.65Y2.9837
X3.725Y2.6837
X3.9008Y0.6027
X3.925Y0.6557
X3.925Y0.3087
X3.975Y2.4087
X4.0Y2.3087
X4.0Y0.6837
X4.025Y1.8087
X4.05Y2.1337
X4.075Y2.8087
X4.225Y1.3087
X4.3Y3.1587
X4.375Y2.1087
X4.375Y2.0587
X4.375Y1.8087
X4.4Y2.5337
X4.45Y3.2587
X4.475Y1.2337
X4.55Y3.2587
X4.575Y2.0587
X4.575Y1.6087
X4.575Y1.4587
X4.6Y1.5587
X4.625Y1.9837
X4.625Y1.9087
X4.775Y0.8587
X4.825Y1.3837
X4.85Y1.8587
X4.875Y2.2337
X4.875Y1.7087
X4.9Y0.9587
X4.903Y2.4337
X4.903Y2.3337
X4.95Y2.2337
X5.025Y0.7837
X5.0498Y0.1937
X5.05Y1.3837
X5.0583Y0.6687
X5.072Y1.4574
X5.1Y3.3587
X5.1Y2.0337
X5.1Y1.1837
X5.15Y3.2087
X5.25Y2.1337
X5.3Y2.1087
X5.3Y2.0587
X5.35Y2.4587
X5.35Y2.0587
X5.375Y0.7837
X5.4Y1.6837
T2
X0.2004Y2.9087
X0.2004Y2.6087
X0.3004Y2.9087
X0.3004Y2.6087
X0.4004Y2.9087
X0.4004Y2.6087
X0.5004Y2.9087
X0.5004Y2.6087
X0.9Y3.2837
X0.9Y3.1837
X0.9Y3.0837
X0.9Y2.9837
X0.9Y2.8837
X0.9Y2.7837
X0.9Y2.6837
X0.9Y2.5837
X0.9Y2.4837
X0.9Y2.3837
X0.9Y2.2837
X0.9Y2.1837
X1.2Y3.2837
X1.2Y3.1837
X1.2Y3.0837
X1.2Y2.9837
X1.2Y2.8837
X1.2Y2.7837
X1.2Y2.6837
X1.2Y2.5837
X1.2Y2.4837
X1.2Y2.3837
X1.2Y2.2837
X1.2Y2.1837
X2.5848Y2.429
X2.5848Y2.229
X2.6848Y2.329
X4.7254Y2.8083
X4.7254Y2.7083
X4.7254Y2.6083
X4.7254Y2.5083
X4.7254Y2.4083
X4.7254Y2.3083
X4.7254Y2.2083
X4.7254Y2.1083
X4.7254Y2.0083
X4.7254Y1.9083
X4.7254Y1.8083
X4.7254Y1.7083
X4.7254Y1.6083
X4.7254Y1.5083
X5.0254Y2.8083
X5.0254Y2.7083
X5.0254Y2.6083
X5.0254Y2.5083
X5.0254Y2.4083
X5.0254Y2.3083
X5.0254Y2.2083
X5.0254Y2.1083
X5.0254Y2.0083
X5.0254Y1.9083
X5.0254Y1.8083
X5.0254Y1.7083
X5.0254Y1.6083
X5.0254Y1.5083
T3
X1.575Y2.8087
X1.855Y3.2137
X1.855Y2.6137
X1.955Y3.2137
X1.955Y2.6137
X2.055Y3.2137
X2.055Y2.6137
X2.155Y3.2137
X2.155Y2.6137
X2.255Y3.2137
X2.255Y2.6137
X2.425Y3.2337
X2.45Y2.7837
X2.675Y3.2337
X2.675Y2.7837
X2.95Y3.2337
X2.95Y2.7837
X3.2Y3.2337
X3.2Y2.7837
X3.355Y3.2137
X3.355Y2.6137
X3.455Y3.2137
X3.455Y2.6137
X3.555Y3.2137
X3.555Y2.6137
X3.655Y3.2137
X3.655Y2.6137
X3.755Y3.2137
X3.755Y2.6137
X4.0Y2.8587
X4.6031Y3.1837
X4.8Y3.1837
X5.025Y3.1587
X5.025Y2.9837
X5.2248Y1.9581
X5.2248Y1.8581
X5.2248Y1.7581
X5.25Y1.3587
X5.25Y1.2587
X5.25Y1.1587
X5.25Y1.0587
X5.25Y0.9587
X5.25Y0.8587
X5.3248Y1.9581
X5.3248Y1.8581
X5.3248Y1.7581
X5.325Y0.6337
X5.325Y0.4587
T4
X1.55Y1.9087
X1.65Y1.9087
X1.75Y1.9087
X1.85Y1.9087
X1.95Y1.9087
X2.05Y1.9087
X2.15Y1.9087
X2.25Y1.9087
X2.35Y1.9087
X2.45Y1.9087
X2.55Y1.9087
X2.65Y1.9087
X2.75Y1.9087
X2.85Y1.9087
X2.95Y1.9087
X3.05Y1.9087
T5
X0.6Y1.7087
X0.6Y0.902
T6
X1.3335Y1.9087
X1.3335Y0.6882
X4.2862Y0.6882
X4.2862Y1.9087
T7
X0.1965Y3.3465
X0.1965Y0.1969
X5.3146Y3.3465
X5.3146Y0.1969
T3
G00X4.4539Y0.4215
M15
G01X4.3555Y0.4215
M16
G05
G00X4.515Y0.2246
M15
G01X4.515Y0.1459
M16
G05
G00X4.6134Y0.3703
M15
G01X4.6134Y0.2915
M16
G05
T0
M30
