%TF.GenerationSoftware,KiCad,Pcbnew,(6.0.5-0)*%
%TF.CreationDate,2022-07-21T14:42:39-04:00*%
%TF.ProjectId,Annahs_clock_hps,416e6e61-6873-45f6-936c-6f636b5f6870,rev?*%
%TF.SameCoordinates,PX4c4b400PY8a48640*%
%TF.FileFunction,Soldermask,Bot*%
%TF.FilePolarity,Negative*%
%FSLAX46Y46*%
G04 Gerber Fmt 4.6, Leading zero omitted, Abs format (unit mm)*
G04 Created by KiCad (PCBNEW (6.0.5-0)) date 2022-07-21 14:42:39*
%MOMM*%
%LPD*%
G01*
G04 APERTURE LIST*
G04 Aperture macros list*
%AMRoundRect*
0 Rectangle with rounded corners*
0 $1 Rounding radius*
0 $2 $3 $4 $5 $6 $7 $8 $9 X,Y pos of 4 corners*
0 Add a 4 corners polygon primitive as box body*
4,1,4,$2,$3,$4,$5,$6,$7,$8,$9,$2,$3,0*
0 Add four circle primitives for the rounded corners*
1,1,$1+$1,$2,$3*
1,1,$1+$1,$4,$5*
1,1,$1+$1,$6,$7*
1,1,$1+$1,$8,$9*
0 Add four rect primitives between the rounded corners*
20,1,$1+$1,$2,$3,$4,$5,0*
20,1,$1+$1,$4,$5,$6,$7,0*
20,1,$1+$1,$6,$7,$8,$9,0*
20,1,$1+$1,$8,$9,$2,$3,0*%
G04 Aperture macros list end*
%ADD10C,3.352400*%
%ADD11C,1.592400*%
%ADD12C,2.152400*%
%ADD13RoundRect,0.076200X-0.850000X-0.850000X0.850000X-0.850000X0.850000X0.850000X-0.850000X0.850000X0*%
%ADD14C,1.852400*%
%ADD15RoundRect,0.076200X0.800000X0.800000X-0.800000X0.800000X-0.800000X-0.800000X0.800000X-0.800000X0*%
%ADD16O,1.752400X1.752400*%
%ADD17RoundRect,0.076200X0.800000X-0.800000X0.800000X0.800000X-0.800000X0.800000X-0.800000X-0.800000X0*%
%ADD18RoundRect,0.076200X1.000000X1.000000X-1.000000X1.000000X-1.000000X-1.000000X1.000000X-1.000000X0*%
%ADD19RoundRect,0.076200X-0.800000X-0.800000X0.800000X-0.800000X0.800000X0.800000X-0.800000X0.800000X0*%
%ADD20C,3.152400*%
%ADD21O,1.952400X2.752400*%
%ADD22RoundRect,0.076200X-0.900000X-1.300000X0.900000X-1.300000X0.900000X1.300000X-0.900000X1.300000X0*%
%ADD23RoundRect,0.476200X-0.400000X0.900000X-0.400000X-0.900000X0.400000X-0.900000X0.400000X0.900000X0*%
%ADD24RoundRect,0.476200X-0.900000X0.400000X-0.900000X-0.400000X0.900000X-0.400000X0.900000X0.400000X0*%
%ADD25O,1.852400X1.852400*%
%ADD26RoundRect,0.076200X0.850000X0.850000X-0.850000X0.850000X-0.850000X-0.850000X0.850000X-0.850000X0*%
%ADD27RoundRect,0.076200X-1.500000X1.500000X-1.500000X-1.500000X1.500000X-1.500000X1.500000X1.500000X0*%
G04 APERTURE END LIST*
D10*
%TO.C,H4*%
X135000000Y5000000D03*
%TD*%
D11*
%TO.C,RV1*%
X65665000Y56617500D03*
X68205000Y59157500D03*
X65665000Y61697500D03*
%TD*%
D12*
%TO.C,TP9*%
X67955000Y82135000D03*
%TD*%
D13*
%TO.C,U5*%
X47127000Y66387000D03*
D14*
X49667000Y66387000D03*
X52207000Y66387000D03*
X54747000Y66387000D03*
X57287000Y66387000D03*
X57287000Y81627000D03*
X54747000Y81627000D03*
X52207000Y81627000D03*
X49667000Y81627000D03*
X47127000Y81627000D03*
%TD*%
D12*
%TO.C,TP7*%
X62240000Y70705000D03*
%TD*%
D15*
%TO.C,U2*%
X30490000Y55465000D03*
D16*
X30490000Y58005000D03*
X30490000Y60545000D03*
X30490000Y63085000D03*
X30490000Y65625000D03*
X30490000Y68165000D03*
X30490000Y70705000D03*
X30490000Y73245000D03*
X30490000Y75785000D03*
X30490000Y78325000D03*
X30490000Y80865000D03*
X30490000Y83405000D03*
X22870000Y83405000D03*
X22870000Y80865000D03*
X22870000Y78325000D03*
X22870000Y75785000D03*
X22870000Y73245000D03*
X22870000Y70705000D03*
X22870000Y68165000D03*
X22870000Y65625000D03*
X22870000Y63085000D03*
X22870000Y60545000D03*
X22870000Y58005000D03*
X22870000Y55465000D03*
%TD*%
D12*
%TO.C,TP5*%
X74940000Y70705000D03*
%TD*%
%TO.C,TP16*%
X6614000Y48734000D03*
%TD*%
%TO.C,TP14*%
X127645000Y80230000D03*
%TD*%
%TO.C,TP15*%
X6106000Y54322000D03*
%TD*%
%TO.C,TP10*%
X81290000Y70705000D03*
%TD*%
D17*
%TO.C,U1*%
X5100000Y66260000D03*
D16*
X7640000Y66260000D03*
X10180000Y66260000D03*
X12720000Y66260000D03*
X12720000Y73880000D03*
X10180000Y73880000D03*
X7640000Y73880000D03*
X5100000Y73880000D03*
%TD*%
D12*
%TO.C,TP4*%
X81290000Y82135000D03*
%TD*%
%TO.C,BZ1*%
X116930000Y80865000D03*
D18*
X121930000Y80865000D03*
%TD*%
D10*
%TO.C,H2*%
X135000000Y85000000D03*
%TD*%
%TO.C,H3*%
X5000000Y5000000D03*
%TD*%
D12*
%TO.C,TP1*%
X101610000Y72610000D03*
%TD*%
D10*
%TO.C,H1*%
X5000000Y85000000D03*
%TD*%
D12*
%TO.C,TP6*%
X67955000Y70705000D03*
%TD*%
%TO.C,TP2*%
X135265000Y16095000D03*
%TD*%
%TO.C,TP3*%
X74940000Y82135000D03*
%TD*%
%TO.C,TP13*%
X127645000Y75785000D03*
%TD*%
%TO.C,TP11*%
X40015000Y71340000D03*
%TD*%
%TO.C,TP8*%
X61605000Y82135000D03*
%TD*%
D13*
%TO.C,U4*%
X85227000Y66387000D03*
D14*
X87767000Y66387000D03*
X90307000Y66387000D03*
X92847000Y66387000D03*
X95387000Y66387000D03*
X95387000Y81627000D03*
X92847000Y81627000D03*
X90307000Y81627000D03*
X87767000Y81627000D03*
X85227000Y81627000D03*
%TD*%
D19*
%TO.C,UI1*%
X120035000Y71330000D03*
D16*
X120035000Y68790000D03*
X120035000Y66250000D03*
X120035000Y63710000D03*
X120035000Y61170000D03*
X120035000Y58630000D03*
X120035000Y56090000D03*
X120035000Y53550000D03*
X120035000Y51010000D03*
X120035000Y48470000D03*
X120035000Y45930000D03*
X120035000Y43390000D03*
X120035000Y40850000D03*
X120035000Y38310000D03*
X127655000Y38310000D03*
X127655000Y40850000D03*
X127655000Y43390000D03*
X127655000Y45930000D03*
X127655000Y48470000D03*
X127655000Y51010000D03*
X127655000Y53550000D03*
X127655000Y56090000D03*
X127655000Y58630000D03*
X127655000Y61170000D03*
X127655000Y63710000D03*
X127655000Y66250000D03*
X127655000Y68790000D03*
X127655000Y71330000D03*
%TD*%
D20*
%TO.C,DS1*%
X108880000Y48480000D03*
X108879480Y17479300D03*
X33880900Y17479300D03*
X33880900Y48480000D03*
D21*
X77480000Y48480000D03*
X74940000Y48480000D03*
X72400000Y48480000D03*
X69860000Y48480000D03*
X67320000Y48480000D03*
X64780000Y48480000D03*
X62240000Y48480000D03*
X59700000Y48480000D03*
X57160000Y48480000D03*
X54620000Y48480000D03*
X52080000Y48480000D03*
X49540000Y48480000D03*
X47000000Y48480000D03*
X44460000Y48480000D03*
X41920000Y48480000D03*
D22*
X39380000Y48480000D03*
%TD*%
D23*
%TO.C,J2*%
X116294000Y7840000D03*
X110294000Y7840000D03*
D24*
X113294000Y12540000D03*
%TD*%
D25*
%TO.C,J1*%
X133360000Y21810000D03*
X133360000Y24350000D03*
X133360000Y26890000D03*
X133360000Y29430000D03*
X133360000Y31970000D03*
D26*
X133360000Y34510000D03*
%TD*%
%TO.C,J3*%
X135265000Y49750000D03*
D25*
X132725000Y49750000D03*
X135265000Y47210000D03*
X132725000Y47210000D03*
X135265000Y44670000D03*
X132725000Y44670000D03*
%TD*%
D12*
%TO.C,TP12*%
X135265000Y11650000D03*
%TD*%
D27*
%TO.C,BT1*%
X15250000Y43400000D03*
D20*
X15250000Y22910000D03*
%TD*%
M02*
