%TF.GenerationSoftware,KiCad,Pcbnew,(6.0.5-0)*%
%TF.CreationDate,2022-07-21T01:55:02-04:00*%
%TF.ProjectId,Annahs_clock_hps,416e6e61-6873-45f6-936c-6f636b5f6870,rev?*%
%TF.SameCoordinates,Original*%
%TF.FileFunction,Legend,Top*%
%TF.FilePolarity,Positive*%
%FSLAX46Y46*%
G04 Gerber Fmt 4.6, Leading zero omitted, Abs format (unit mm)*
G04 Created by KiCad (PCBNEW (6.0.5-0)) date 2022-07-21 01:55:02*
%MOMM*%
%LPD*%
G01*
G04 APERTURE LIST*
G04 Aperture macros list*
%AMRoundRect*
0 Rectangle with rounded corners*
0 $1 Rounding radius*
0 $2 $3 $4 $5 $6 $7 $8 $9 X,Y pos of 4 corners*
0 Add a 4 corners polygon primitive as box body*
4,1,4,$2,$3,$4,$5,$6,$7,$8,$9,$2,$3,0*
0 Add four circle primitives for the rounded corners*
1,1,$1+$1,$2,$3*
1,1,$1+$1,$4,$5*
1,1,$1+$1,$6,$7*
1,1,$1+$1,$8,$9*
0 Add four rect primitives between the rounded corners*
20,1,$1+$1,$2,$3,$4,$5,0*
20,1,$1+$1,$4,$5,$6,$7,0*
20,1,$1+$1,$6,$7,$8,$9,0*
20,1,$1+$1,$8,$9,$2,$3,0*%
G04 Aperture macros list end*
%ADD10C,0.150000*%
%ADD11C,0.120000*%
%ADD12RoundRect,0.476200X-0.400000X0.900000X-0.400000X-0.900000X0.400000X-0.900000X0.400000X0.900000X0*%
%ADD13RoundRect,0.476200X-0.900000X0.400000X-0.900000X-0.400000X0.900000X-0.400000X0.900000X0.400000X0*%
%ADD14RoundRect,0.076200X-0.575000X-0.700000X0.575000X-0.700000X0.575000X0.700000X-0.575000X0.700000X0*%
%ADD15C,3.352400*%
%ADD16RoundRect,0.076200X0.575000X0.700000X-0.575000X0.700000X-0.575000X-0.700000X0.575000X-0.700000X0*%
%ADD17C,1.592400*%
%ADD18RoundRect,0.076200X-0.500000X-0.900000X0.500000X-0.900000X0.500000X0.900000X-0.500000X0.900000X0*%
%ADD19C,2.152400*%
%ADD20RoundRect,0.076200X-1.100000X-0.600000X1.100000X-0.600000X1.100000X0.600000X-1.100000X0.600000X0*%
%ADD21RoundRect,0.076200X-3.200000X-2.900000X3.200000X-2.900000X3.200000X2.900000X-3.200000X2.900000X0*%
%ADD22RoundRect,0.076200X-0.850000X-0.850000X0.850000X-0.850000X0.850000X0.850000X-0.850000X0.850000X0*%
%ADD23C,1.852400*%
%ADD24RoundRect,0.076200X0.700000X-0.575000X0.700000X0.575000X-0.700000X0.575000X-0.700000X-0.575000X0*%
%ADD25RoundRect,0.076200X0.800000X0.800000X-0.800000X0.800000X-0.800000X-0.800000X0.800000X-0.800000X0*%
%ADD26O,1.752400X1.752400*%
%ADD27RoundRect,0.076200X-0.450000X-0.400000X0.450000X-0.400000X0.450000X0.400000X-0.450000X0.400000X0*%
%ADD28RoundRect,0.319950X-0.456250X0.243750X-0.456250X-0.243750X0.456250X-0.243750X0.456250X0.243750X0*%
%ADD29RoundRect,0.076200X-0.700000X0.575000X-0.700000X-0.575000X0.700000X-0.575000X0.700000X0.575000X0*%
%ADD30RoundRect,0.076200X-0.700000X0.800000X-0.700000X-0.800000X0.700000X-0.800000X0.700000X0.800000X0*%
%ADD31RoundRect,0.076200X0.800000X-0.800000X0.800000X0.800000X-0.800000X0.800000X-0.800000X-0.800000X0*%
%ADD32RoundRect,0.076200X-2.250000X-1.000000X2.250000X-1.000000X2.250000X1.000000X-2.250000X1.000000X0*%
%ADD33RoundRect,0.076200X1.000000X1.000000X-1.000000X1.000000X-1.000000X-1.000000X1.000000X-1.000000X0*%
%ADD34RoundRect,0.076200X0.800000X0.700000X-0.800000X0.700000X-0.800000X-0.700000X0.800000X-0.700000X0*%
%ADD35RoundRect,0.076200X-0.800000X-0.800000X0.800000X-0.800000X0.800000X0.800000X-0.800000X0.800000X0*%
%ADD36C,3.152400*%
%ADD37RoundRect,0.076200X-0.900000X-1.300000X0.900000X-1.300000X0.900000X1.300000X-0.900000X1.300000X0*%
%ADD38O,1.952400X2.752400*%
%ADD39RoundRect,0.076200X0.850000X0.850000X-0.850000X0.850000X-0.850000X-0.850000X0.850000X-0.850000X0*%
%ADD40O,1.852400X1.852400*%
%ADD41RoundRect,0.076200X-1.500000X1.500000X-1.500000X-1.500000X1.500000X-1.500000X1.500000X1.500000X0*%
G04 APERTURE END LIST*
D10*
%TO.C,C6*%
X202271333Y-125707142D02*
X202223714Y-125754761D01*
X202080857Y-125802380D01*
X201985619Y-125802380D01*
X201842761Y-125754761D01*
X201747523Y-125659523D01*
X201699904Y-125564285D01*
X201652285Y-125373809D01*
X201652285Y-125230952D01*
X201699904Y-125040476D01*
X201747523Y-124945238D01*
X201842761Y-124850000D01*
X201985619Y-124802380D01*
X202080857Y-124802380D01*
X202223714Y-124850000D01*
X202271333Y-124897619D01*
X203128476Y-124802380D02*
X202938000Y-124802380D01*
X202842761Y-124850000D01*
X202795142Y-124897619D01*
X202699904Y-125040476D01*
X202652285Y-125230952D01*
X202652285Y-125611904D01*
X202699904Y-125707142D01*
X202747523Y-125754761D01*
X202842761Y-125802380D01*
X203033238Y-125802380D01*
X203128476Y-125754761D01*
X203176095Y-125707142D01*
X203223714Y-125611904D01*
X203223714Y-125373809D01*
X203176095Y-125278571D01*
X203128476Y-125230952D01*
X203033238Y-125183333D01*
X202842761Y-125183333D01*
X202747523Y-125230952D01*
X202699904Y-125278571D01*
X202652285Y-125373809D01*
%TO.C,H4*%
X214503095Y-135707380D02*
X214503095Y-134707380D01*
X214503095Y-135183571D02*
X215074523Y-135183571D01*
X215074523Y-135707380D02*
X215074523Y-134707380D01*
X215979285Y-135040714D02*
X215979285Y-135707380D01*
X215741190Y-134659761D02*
X215503095Y-135374047D01*
X216122142Y-135374047D01*
%TO.C,R6*%
X93813333Y-69412380D02*
X93480000Y-68936190D01*
X93241904Y-69412380D02*
X93241904Y-68412380D01*
X93622857Y-68412380D01*
X93718095Y-68460000D01*
X93765714Y-68507619D01*
X93813333Y-68602857D01*
X93813333Y-68745714D01*
X93765714Y-68840952D01*
X93718095Y-68888571D01*
X93622857Y-68936190D01*
X93241904Y-68936190D01*
X94670476Y-68412380D02*
X94480000Y-68412380D01*
X94384761Y-68460000D01*
X94337142Y-68507619D01*
X94241904Y-68650476D01*
X94194285Y-68840952D01*
X94194285Y-69221904D01*
X94241904Y-69317142D01*
X94289523Y-69364761D01*
X94384761Y-69412380D01*
X94575238Y-69412380D01*
X94670476Y-69364761D01*
X94718095Y-69317142D01*
X94765714Y-69221904D01*
X94765714Y-68983809D01*
X94718095Y-68888571D01*
X94670476Y-68840952D01*
X94575238Y-68793333D01*
X94384761Y-68793333D01*
X94289523Y-68840952D01*
X94241904Y-68888571D01*
X94194285Y-68983809D01*
%TO.C,RV1*%
X145054761Y-80279880D02*
X144721428Y-79803690D01*
X144483333Y-80279880D02*
X144483333Y-79279880D01*
X144864285Y-79279880D01*
X144959523Y-79327500D01*
X145007142Y-79375119D01*
X145054761Y-79470357D01*
X145054761Y-79613214D01*
X145007142Y-79708452D01*
X144959523Y-79756071D01*
X144864285Y-79803690D01*
X144483333Y-79803690D01*
X145340476Y-79279880D02*
X145673809Y-80279880D01*
X146007142Y-79279880D01*
X146864285Y-80279880D02*
X146292857Y-80279880D01*
X146578571Y-80279880D02*
X146578571Y-79279880D01*
X146483333Y-79422738D01*
X146388095Y-79517976D01*
X146292857Y-79565595D01*
%TO.C,Y2*%
X85629809Y-81084190D02*
X85629809Y-81560380D01*
X85296476Y-80560380D02*
X85629809Y-81084190D01*
X85963142Y-80560380D01*
X86248857Y-80655619D02*
X86296476Y-80608000D01*
X86391714Y-80560380D01*
X86629809Y-80560380D01*
X86725047Y-80608000D01*
X86772666Y-80655619D01*
X86820285Y-80750857D01*
X86820285Y-80846095D01*
X86772666Y-80988952D01*
X86201238Y-81560380D01*
X86820285Y-81560380D01*
%TO.C,TP9*%
X146693095Y-60319380D02*
X147264523Y-60319380D01*
X146978809Y-61319380D02*
X146978809Y-60319380D01*
X147597857Y-61319380D02*
X147597857Y-60319380D01*
X147978809Y-60319380D01*
X148074047Y-60367000D01*
X148121666Y-60414619D01*
X148169285Y-60509857D01*
X148169285Y-60652714D01*
X148121666Y-60747952D01*
X148074047Y-60795571D01*
X147978809Y-60843190D01*
X147597857Y-60843190D01*
X148645476Y-61319380D02*
X148835952Y-61319380D01*
X148931190Y-61271761D01*
X148978809Y-61224142D01*
X149074047Y-61081285D01*
X149121666Y-60890809D01*
X149121666Y-60509857D01*
X149074047Y-60414619D01*
X149026428Y-60367000D01*
X148931190Y-60319380D01*
X148740714Y-60319380D01*
X148645476Y-60367000D01*
X148597857Y-60414619D01*
X148550238Y-60509857D01*
X148550238Y-60747952D01*
X148597857Y-60843190D01*
X148645476Y-60890809D01*
X148740714Y-60938428D01*
X148931190Y-60938428D01*
X149026428Y-60890809D01*
X149074047Y-60843190D01*
X149121666Y-60747952D01*
%TO.C,R17*%
X156202142Y-92527380D02*
X155868809Y-92051190D01*
X155630714Y-92527380D02*
X155630714Y-91527380D01*
X156011666Y-91527380D01*
X156106904Y-91575000D01*
X156154523Y-91622619D01*
X156202142Y-91717857D01*
X156202142Y-91860714D01*
X156154523Y-91955952D01*
X156106904Y-92003571D01*
X156011666Y-92051190D01*
X155630714Y-92051190D01*
X157154523Y-92527380D02*
X156583095Y-92527380D01*
X156868809Y-92527380D02*
X156868809Y-91527380D01*
X156773571Y-91670238D01*
X156678333Y-91765476D01*
X156583095Y-91813095D01*
X157487857Y-91527380D02*
X158154523Y-91527380D01*
X157725952Y-92527380D01*
%TO.C,U3*%
X202946095Y-128937380D02*
X202946095Y-129746904D01*
X202993714Y-129842142D01*
X203041333Y-129889761D01*
X203136571Y-129937380D01*
X203327047Y-129937380D01*
X203422285Y-129889761D01*
X203469904Y-129842142D01*
X203517523Y-129746904D01*
X203517523Y-128937380D01*
X203898476Y-128937380D02*
X204517523Y-128937380D01*
X204184190Y-129318333D01*
X204327047Y-129318333D01*
X204422285Y-129365952D01*
X204469904Y-129413571D01*
X204517523Y-129508809D01*
X204517523Y-129746904D01*
X204469904Y-129842142D01*
X204422285Y-129889761D01*
X204327047Y-129937380D01*
X204041333Y-129937380D01*
X203946095Y-129889761D01*
X203898476Y-129842142D01*
%TO.C,R18*%
X191127142Y-69922380D02*
X190793809Y-69446190D01*
X190555714Y-69922380D02*
X190555714Y-68922380D01*
X190936666Y-68922380D01*
X191031904Y-68970000D01*
X191079523Y-69017619D01*
X191127142Y-69112857D01*
X191127142Y-69255714D01*
X191079523Y-69350952D01*
X191031904Y-69398571D01*
X190936666Y-69446190D01*
X190555714Y-69446190D01*
X192079523Y-69922380D02*
X191508095Y-69922380D01*
X191793809Y-69922380D02*
X191793809Y-68922380D01*
X191698571Y-69065238D01*
X191603333Y-69160476D01*
X191508095Y-69208095D01*
X192650952Y-69350952D02*
X192555714Y-69303333D01*
X192508095Y-69255714D01*
X192460476Y-69160476D01*
X192460476Y-69112857D01*
X192508095Y-69017619D01*
X192555714Y-68970000D01*
X192650952Y-68922380D01*
X192841428Y-68922380D01*
X192936666Y-68970000D01*
X192984285Y-69017619D01*
X193031904Y-69112857D01*
X193031904Y-69160476D01*
X192984285Y-69255714D01*
X192936666Y-69303333D01*
X192841428Y-69350952D01*
X192650952Y-69350952D01*
X192555714Y-69398571D01*
X192508095Y-69446190D01*
X192460476Y-69541428D01*
X192460476Y-69731904D01*
X192508095Y-69827142D01*
X192555714Y-69874761D01*
X192650952Y-69922380D01*
X192841428Y-69922380D01*
X192936666Y-69874761D01*
X192984285Y-69827142D01*
X193031904Y-69731904D01*
X193031904Y-69541428D01*
X192984285Y-69446190D01*
X192936666Y-69398571D01*
X192841428Y-69350952D01*
%TO.C,U5*%
X127635095Y-60285380D02*
X127635095Y-61094904D01*
X127682714Y-61190142D01*
X127730333Y-61237761D01*
X127825571Y-61285380D01*
X128016047Y-61285380D01*
X128111285Y-61237761D01*
X128158904Y-61190142D01*
X128206523Y-61094904D01*
X128206523Y-60285380D01*
X129158904Y-60285380D02*
X128682714Y-60285380D01*
X128635095Y-60761571D01*
X128682714Y-60713952D01*
X128777952Y-60666333D01*
X129016047Y-60666333D01*
X129111285Y-60713952D01*
X129158904Y-60761571D01*
X129206523Y-60856809D01*
X129206523Y-61094904D01*
X129158904Y-61190142D01*
X129111285Y-61237761D01*
X129016047Y-61285380D01*
X128777952Y-61285380D01*
X128682714Y-61237761D01*
X128635095Y-61190142D01*
%TO.C,TP7*%
X140978095Y-71749380D02*
X141549523Y-71749380D01*
X141263809Y-72749380D02*
X141263809Y-71749380D01*
X141882857Y-72749380D02*
X141882857Y-71749380D01*
X142263809Y-71749380D01*
X142359047Y-71797000D01*
X142406666Y-71844619D01*
X142454285Y-71939857D01*
X142454285Y-72082714D01*
X142406666Y-72177952D01*
X142359047Y-72225571D01*
X142263809Y-72273190D01*
X141882857Y-72273190D01*
X142787619Y-71749380D02*
X143454285Y-71749380D01*
X143025714Y-72749380D01*
%TO.C,R5*%
X193492380Y-119546666D02*
X193016190Y-119880000D01*
X193492380Y-120118095D02*
X192492380Y-120118095D01*
X192492380Y-119737142D01*
X192540000Y-119641904D01*
X192587619Y-119594285D01*
X192682857Y-119546666D01*
X192825714Y-119546666D01*
X192920952Y-119594285D01*
X192968571Y-119641904D01*
X193016190Y-119737142D01*
X193016190Y-120118095D01*
X192492380Y-118641904D02*
X192492380Y-119118095D01*
X192968571Y-119165714D01*
X192920952Y-119118095D01*
X192873333Y-119022857D01*
X192873333Y-118784761D01*
X192920952Y-118689523D01*
X192968571Y-118641904D01*
X193063809Y-118594285D01*
X193301904Y-118594285D01*
X193397142Y-118641904D01*
X193444761Y-118689523D01*
X193492380Y-118784761D01*
X193492380Y-119022857D01*
X193444761Y-119118095D01*
X193397142Y-119165714D01*
%TO.C,C2*%
X210653333Y-90147142D02*
X210605714Y-90194761D01*
X210462857Y-90242380D01*
X210367619Y-90242380D01*
X210224761Y-90194761D01*
X210129523Y-90099523D01*
X210081904Y-90004285D01*
X210034285Y-89813809D01*
X210034285Y-89670952D01*
X210081904Y-89480476D01*
X210129523Y-89385238D01*
X210224761Y-89290000D01*
X210367619Y-89242380D01*
X210462857Y-89242380D01*
X210605714Y-89290000D01*
X210653333Y-89337619D01*
X211034285Y-89337619D02*
X211081904Y-89290000D01*
X211177142Y-89242380D01*
X211415238Y-89242380D01*
X211510476Y-89290000D01*
X211558095Y-89337619D01*
X211605714Y-89432857D01*
X211605714Y-89528095D01*
X211558095Y-89670952D01*
X210986666Y-90242380D01*
X211605714Y-90242380D01*
%TO.C,R10*%
X97782142Y-73097380D02*
X97448809Y-72621190D01*
X97210714Y-73097380D02*
X97210714Y-72097380D01*
X97591666Y-72097380D01*
X97686904Y-72145000D01*
X97734523Y-72192619D01*
X97782142Y-72287857D01*
X97782142Y-72430714D01*
X97734523Y-72525952D01*
X97686904Y-72573571D01*
X97591666Y-72621190D01*
X97210714Y-72621190D01*
X98734523Y-73097380D02*
X98163095Y-73097380D01*
X98448809Y-73097380D02*
X98448809Y-72097380D01*
X98353571Y-72240238D01*
X98258333Y-72335476D01*
X98163095Y-72383095D01*
X99353571Y-72097380D02*
X99448809Y-72097380D01*
X99544047Y-72145000D01*
X99591666Y-72192619D01*
X99639285Y-72287857D01*
X99686904Y-72478333D01*
X99686904Y-72716428D01*
X99639285Y-72906904D01*
X99591666Y-73002142D01*
X99544047Y-73049761D01*
X99448809Y-73097380D01*
X99353571Y-73097380D01*
X99258333Y-73049761D01*
X99210714Y-73002142D01*
X99163095Y-72906904D01*
X99115476Y-72716428D01*
X99115476Y-72478333D01*
X99163095Y-72287857D01*
X99210714Y-72192619D01*
X99258333Y-72145000D01*
X99353571Y-72097380D01*
%TO.C,C10*%
X118024142Y-135865142D02*
X117976523Y-135912761D01*
X117833666Y-135960380D01*
X117738428Y-135960380D01*
X117595571Y-135912761D01*
X117500333Y-135817523D01*
X117452714Y-135722285D01*
X117405095Y-135531809D01*
X117405095Y-135388952D01*
X117452714Y-135198476D01*
X117500333Y-135103238D01*
X117595571Y-135008000D01*
X117738428Y-134960380D01*
X117833666Y-134960380D01*
X117976523Y-135008000D01*
X118024142Y-135055619D01*
X118976523Y-135960380D02*
X118405095Y-135960380D01*
X118690809Y-135960380D02*
X118690809Y-134960380D01*
X118595571Y-135103238D01*
X118500333Y-135198476D01*
X118405095Y-135246095D01*
X119595571Y-134960380D02*
X119690809Y-134960380D01*
X119786047Y-135008000D01*
X119833666Y-135055619D01*
X119881285Y-135150857D01*
X119928904Y-135341333D01*
X119928904Y-135579428D01*
X119881285Y-135769904D01*
X119833666Y-135865142D01*
X119786047Y-135912761D01*
X119690809Y-135960380D01*
X119595571Y-135960380D01*
X119500333Y-135912761D01*
X119452714Y-135865142D01*
X119405095Y-135769904D01*
X119357476Y-135579428D01*
X119357476Y-135341333D01*
X119405095Y-135150857D01*
X119452714Y-135055619D01*
X119500333Y-135008000D01*
X119595571Y-134960380D01*
%TO.C,U2*%
X105918095Y-91317380D02*
X105918095Y-92126904D01*
X105965714Y-92222142D01*
X106013333Y-92269761D01*
X106108571Y-92317380D01*
X106299047Y-92317380D01*
X106394285Y-92269761D01*
X106441904Y-92222142D01*
X106489523Y-92126904D01*
X106489523Y-91317380D01*
X106918095Y-91412619D02*
X106965714Y-91365000D01*
X107060952Y-91317380D01*
X107299047Y-91317380D01*
X107394285Y-91365000D01*
X107441904Y-91412619D01*
X107489523Y-91507857D01*
X107489523Y-91603095D01*
X107441904Y-91745952D01*
X106870476Y-92317380D01*
X107489523Y-92317380D01*
%TO.C,C8*%
X98258333Y-68557142D02*
X98210714Y-68604761D01*
X98067857Y-68652380D01*
X97972619Y-68652380D01*
X97829761Y-68604761D01*
X97734523Y-68509523D01*
X97686904Y-68414285D01*
X97639285Y-68223809D01*
X97639285Y-68080952D01*
X97686904Y-67890476D01*
X97734523Y-67795238D01*
X97829761Y-67700000D01*
X97972619Y-67652380D01*
X98067857Y-67652380D01*
X98210714Y-67700000D01*
X98258333Y-67747619D01*
X98829761Y-68080952D02*
X98734523Y-68033333D01*
X98686904Y-67985714D01*
X98639285Y-67890476D01*
X98639285Y-67842857D01*
X98686904Y-67747619D01*
X98734523Y-67700000D01*
X98829761Y-67652380D01*
X99020238Y-67652380D01*
X99115476Y-67700000D01*
X99163095Y-67747619D01*
X99210714Y-67842857D01*
X99210714Y-67890476D01*
X99163095Y-67985714D01*
X99115476Y-68033333D01*
X99020238Y-68080952D01*
X98829761Y-68080952D01*
X98734523Y-68128571D01*
X98686904Y-68176190D01*
X98639285Y-68271428D01*
X98639285Y-68461904D01*
X98686904Y-68557142D01*
X98734523Y-68604761D01*
X98829761Y-68652380D01*
X99020238Y-68652380D01*
X99115476Y-68604761D01*
X99163095Y-68557142D01*
X99210714Y-68461904D01*
X99210714Y-68271428D01*
X99163095Y-68176190D01*
X99115476Y-68128571D01*
X99020238Y-68080952D01*
%TO.C,Q1*%
X189784761Y-60442619D02*
X189689523Y-60395000D01*
X189594285Y-60299761D01*
X189451428Y-60156904D01*
X189356190Y-60109285D01*
X189260952Y-60109285D01*
X189308571Y-60347380D02*
X189213333Y-60299761D01*
X189118095Y-60204523D01*
X189070476Y-60014047D01*
X189070476Y-59680714D01*
X189118095Y-59490238D01*
X189213333Y-59395000D01*
X189308571Y-59347380D01*
X189499047Y-59347380D01*
X189594285Y-59395000D01*
X189689523Y-59490238D01*
X189737142Y-59680714D01*
X189737142Y-60014047D01*
X189689523Y-60204523D01*
X189594285Y-60299761D01*
X189499047Y-60347380D01*
X189308571Y-60347380D01*
X190689523Y-60347380D02*
X190118095Y-60347380D01*
X190403809Y-60347380D02*
X190403809Y-59347380D01*
X190308571Y-59490238D01*
X190213333Y-59585476D01*
X190118095Y-59633095D01*
%TO.C,C7*%
X201636333Y-139042142D02*
X201588714Y-139089761D01*
X201445857Y-139137380D01*
X201350619Y-139137380D01*
X201207761Y-139089761D01*
X201112523Y-138994523D01*
X201064904Y-138899285D01*
X201017285Y-138708809D01*
X201017285Y-138565952D01*
X201064904Y-138375476D01*
X201112523Y-138280238D01*
X201207761Y-138185000D01*
X201350619Y-138137380D01*
X201445857Y-138137380D01*
X201588714Y-138185000D01*
X201636333Y-138232619D01*
X201969666Y-138137380D02*
X202636333Y-138137380D01*
X202207761Y-139137380D01*
%TO.C,D1*%
X213558380Y-85574095D02*
X212558380Y-85574095D01*
X212558380Y-85336000D01*
X212606000Y-85193142D01*
X212701238Y-85097904D01*
X212796476Y-85050285D01*
X212986952Y-85002666D01*
X213129809Y-85002666D01*
X213320285Y-85050285D01*
X213415523Y-85097904D01*
X213510761Y-85193142D01*
X213558380Y-85336000D01*
X213558380Y-85574095D01*
X213558380Y-84050285D02*
X213558380Y-84621714D01*
X213558380Y-84336000D02*
X212558380Y-84336000D01*
X212701238Y-84431238D01*
X212796476Y-84526476D01*
X212844095Y-84621714D01*
%TO.C,TP5*%
X153678095Y-71749380D02*
X154249523Y-71749380D01*
X153963809Y-72749380D02*
X153963809Y-71749380D01*
X154582857Y-72749380D02*
X154582857Y-71749380D01*
X154963809Y-71749380D01*
X155059047Y-71797000D01*
X155106666Y-71844619D01*
X155154285Y-71939857D01*
X155154285Y-72082714D01*
X155106666Y-72177952D01*
X155059047Y-72225571D01*
X154963809Y-72273190D01*
X154582857Y-72273190D01*
X156059047Y-71749380D02*
X155582857Y-71749380D01*
X155535238Y-72225571D01*
X155582857Y-72177952D01*
X155678095Y-72130333D01*
X155916190Y-72130333D01*
X156011428Y-72177952D01*
X156059047Y-72225571D01*
X156106666Y-72320809D01*
X156106666Y-72558904D01*
X156059047Y-72654142D01*
X156011428Y-72701761D01*
X155916190Y-72749380D01*
X155678095Y-72749380D01*
X155582857Y-72701761D01*
X155535238Y-72654142D01*
%TO.C,TP16*%
X84875904Y-93720380D02*
X85447333Y-93720380D01*
X85161619Y-94720380D02*
X85161619Y-93720380D01*
X85780666Y-94720380D02*
X85780666Y-93720380D01*
X86161619Y-93720380D01*
X86256857Y-93768000D01*
X86304476Y-93815619D01*
X86352095Y-93910857D01*
X86352095Y-94053714D01*
X86304476Y-94148952D01*
X86256857Y-94196571D01*
X86161619Y-94244190D01*
X85780666Y-94244190D01*
X87304476Y-94720380D02*
X86733047Y-94720380D01*
X87018761Y-94720380D02*
X87018761Y-93720380D01*
X86923523Y-93863238D01*
X86828285Y-93958476D01*
X86733047Y-94006095D01*
X88161619Y-93720380D02*
X87971142Y-93720380D01*
X87875904Y-93768000D01*
X87828285Y-93815619D01*
X87733047Y-93958476D01*
X87685428Y-94148952D01*
X87685428Y-94529904D01*
X87733047Y-94625142D01*
X87780666Y-94672761D01*
X87875904Y-94720380D01*
X88066380Y-94720380D01*
X88161619Y-94672761D01*
X88209238Y-94625142D01*
X88256857Y-94529904D01*
X88256857Y-94291809D01*
X88209238Y-94196571D01*
X88161619Y-94148952D01*
X88066380Y-94101333D01*
X87875904Y-94101333D01*
X87780666Y-94148952D01*
X87733047Y-94196571D01*
X87685428Y-94291809D01*
%TO.C,R13*%
X166440380Y-138628357D02*
X165964190Y-138961690D01*
X166440380Y-139199785D02*
X165440380Y-139199785D01*
X165440380Y-138818833D01*
X165488000Y-138723595D01*
X165535619Y-138675976D01*
X165630857Y-138628357D01*
X165773714Y-138628357D01*
X165868952Y-138675976D01*
X165916571Y-138723595D01*
X165964190Y-138818833D01*
X165964190Y-139199785D01*
X166440380Y-137675976D02*
X166440380Y-138247404D01*
X166440380Y-137961690D02*
X165440380Y-137961690D01*
X165583238Y-138056928D01*
X165678476Y-138152166D01*
X165726095Y-138247404D01*
X165440380Y-137342642D02*
X165440380Y-136723595D01*
X165821333Y-137056928D01*
X165821333Y-136914071D01*
X165868952Y-136818833D01*
X165916571Y-136771214D01*
X166011809Y-136723595D01*
X166249904Y-136723595D01*
X166345142Y-136771214D01*
X166392761Y-136818833D01*
X166440380Y-136914071D01*
X166440380Y-137199785D01*
X166392761Y-137295023D01*
X166345142Y-137342642D01*
%TO.C,R15*%
X141382142Y-137232380D02*
X141048809Y-136756190D01*
X140810714Y-137232380D02*
X140810714Y-136232380D01*
X141191666Y-136232380D01*
X141286904Y-136280000D01*
X141334523Y-136327619D01*
X141382142Y-136422857D01*
X141382142Y-136565714D01*
X141334523Y-136660952D01*
X141286904Y-136708571D01*
X141191666Y-136756190D01*
X140810714Y-136756190D01*
X142334523Y-137232380D02*
X141763095Y-137232380D01*
X142048809Y-137232380D02*
X142048809Y-136232380D01*
X141953571Y-136375238D01*
X141858333Y-136470476D01*
X141763095Y-136518095D01*
X143239285Y-136232380D02*
X142763095Y-136232380D01*
X142715476Y-136708571D01*
X142763095Y-136660952D01*
X142858333Y-136613333D01*
X143096428Y-136613333D01*
X143191666Y-136660952D01*
X143239285Y-136708571D01*
X143286904Y-136803809D01*
X143286904Y-137041904D01*
X143239285Y-137137142D01*
X143191666Y-137184761D01*
X143096428Y-137232380D01*
X142858333Y-137232380D01*
X142763095Y-137184761D01*
X142715476Y-137137142D01*
%TO.C,TP14*%
X212177380Y-67143095D02*
X212177380Y-66571666D01*
X213177380Y-66857380D02*
X212177380Y-66857380D01*
X213177380Y-66238333D02*
X212177380Y-66238333D01*
X212177380Y-65857380D01*
X212225000Y-65762142D01*
X212272619Y-65714523D01*
X212367857Y-65666904D01*
X212510714Y-65666904D01*
X212605952Y-65714523D01*
X212653571Y-65762142D01*
X212701190Y-65857380D01*
X212701190Y-66238333D01*
X213177380Y-64714523D02*
X213177380Y-65285952D01*
X213177380Y-65000238D02*
X212177380Y-65000238D01*
X212320238Y-65095476D01*
X212415476Y-65190714D01*
X212463095Y-65285952D01*
X212510714Y-63857380D02*
X213177380Y-63857380D01*
X212129761Y-64095476D02*
X212844047Y-64333571D01*
X212844047Y-63714523D01*
%TO.C,R12*%
X117809142Y-137740380D02*
X117475809Y-137264190D01*
X117237714Y-137740380D02*
X117237714Y-136740380D01*
X117618666Y-136740380D01*
X117713904Y-136788000D01*
X117761523Y-136835619D01*
X117809142Y-136930857D01*
X117809142Y-137073714D01*
X117761523Y-137168952D01*
X117713904Y-137216571D01*
X117618666Y-137264190D01*
X117237714Y-137264190D01*
X118761523Y-137740380D02*
X118190095Y-137740380D01*
X118475809Y-137740380D02*
X118475809Y-136740380D01*
X118380571Y-136883238D01*
X118285333Y-136978476D01*
X118190095Y-137026095D01*
X119142476Y-136835619D02*
X119190095Y-136788000D01*
X119285333Y-136740380D01*
X119523428Y-136740380D01*
X119618666Y-136788000D01*
X119666285Y-136835619D01*
X119713904Y-136930857D01*
X119713904Y-137026095D01*
X119666285Y-137168952D01*
X119094857Y-137740380D01*
X119713904Y-137740380D01*
%TO.C,SW6*%
X153199761Y-86540833D02*
X153247380Y-86397976D01*
X153247380Y-86159880D01*
X153199761Y-86064642D01*
X153152142Y-86017023D01*
X153056904Y-85969404D01*
X152961666Y-85969404D01*
X152866428Y-86017023D01*
X152818809Y-86064642D01*
X152771190Y-86159880D01*
X152723571Y-86350357D01*
X152675952Y-86445595D01*
X152628333Y-86493214D01*
X152533095Y-86540833D01*
X152437857Y-86540833D01*
X152342619Y-86493214D01*
X152295000Y-86445595D01*
X152247380Y-86350357D01*
X152247380Y-86112261D01*
X152295000Y-85969404D01*
X152247380Y-85636071D02*
X153247380Y-85397976D01*
X152533095Y-85207500D01*
X153247380Y-85017023D01*
X152247380Y-84778928D01*
X152247380Y-83969404D02*
X152247380Y-84159880D01*
X152295000Y-84255119D01*
X152342619Y-84302738D01*
X152485476Y-84397976D01*
X152675952Y-84445595D01*
X153056904Y-84445595D01*
X153152142Y-84397976D01*
X153199761Y-84350357D01*
X153247380Y-84255119D01*
X153247380Y-84064642D01*
X153199761Y-83969404D01*
X153152142Y-83921785D01*
X153056904Y-83874166D01*
X152818809Y-83874166D01*
X152723571Y-83921785D01*
X152675952Y-83969404D01*
X152628333Y-84064642D01*
X152628333Y-84255119D01*
X152675952Y-84350357D01*
X152723571Y-84397976D01*
X152818809Y-84445595D01*
%TO.C,R14*%
X182062380Y-63507857D02*
X181586190Y-63841190D01*
X182062380Y-64079285D02*
X181062380Y-64079285D01*
X181062380Y-63698333D01*
X181110000Y-63603095D01*
X181157619Y-63555476D01*
X181252857Y-63507857D01*
X181395714Y-63507857D01*
X181490952Y-63555476D01*
X181538571Y-63603095D01*
X181586190Y-63698333D01*
X181586190Y-64079285D01*
X182062380Y-62555476D02*
X182062380Y-63126904D01*
X182062380Y-62841190D02*
X181062380Y-62841190D01*
X181205238Y-62936428D01*
X181300476Y-63031666D01*
X181348095Y-63126904D01*
X181395714Y-61698333D02*
X182062380Y-61698333D01*
X181014761Y-61936428D02*
X181729047Y-62174523D01*
X181729047Y-61555476D01*
%TO.C,TP15*%
X84367904Y-88132380D02*
X84939333Y-88132380D01*
X84653619Y-89132380D02*
X84653619Y-88132380D01*
X85272666Y-89132380D02*
X85272666Y-88132380D01*
X85653619Y-88132380D01*
X85748857Y-88180000D01*
X85796476Y-88227619D01*
X85844095Y-88322857D01*
X85844095Y-88465714D01*
X85796476Y-88560952D01*
X85748857Y-88608571D01*
X85653619Y-88656190D01*
X85272666Y-88656190D01*
X86796476Y-89132380D02*
X86225047Y-89132380D01*
X86510761Y-89132380D02*
X86510761Y-88132380D01*
X86415523Y-88275238D01*
X86320285Y-88370476D01*
X86225047Y-88418095D01*
X87701238Y-88132380D02*
X87225047Y-88132380D01*
X87177428Y-88608571D01*
X87225047Y-88560952D01*
X87320285Y-88513333D01*
X87558380Y-88513333D01*
X87653619Y-88560952D01*
X87701238Y-88608571D01*
X87748857Y-88703809D01*
X87748857Y-88941904D01*
X87701238Y-89037142D01*
X87653619Y-89084761D01*
X87558380Y-89132380D01*
X87320285Y-89132380D01*
X87225047Y-89084761D01*
X87177428Y-89037142D01*
%TO.C,C11*%
X164545142Y-135127642D02*
X164497523Y-135175261D01*
X164354666Y-135222880D01*
X164259428Y-135222880D01*
X164116571Y-135175261D01*
X164021333Y-135080023D01*
X163973714Y-134984785D01*
X163926095Y-134794309D01*
X163926095Y-134651452D01*
X163973714Y-134460976D01*
X164021333Y-134365738D01*
X164116571Y-134270500D01*
X164259428Y-134222880D01*
X164354666Y-134222880D01*
X164497523Y-134270500D01*
X164545142Y-134318119D01*
X165497523Y-135222880D02*
X164926095Y-135222880D01*
X165211809Y-135222880D02*
X165211809Y-134222880D01*
X165116571Y-134365738D01*
X165021333Y-134460976D01*
X164926095Y-134508595D01*
X166449904Y-135222880D02*
X165878476Y-135222880D01*
X166164190Y-135222880D02*
X166164190Y-134222880D01*
X166068952Y-134365738D01*
X165973714Y-134460976D01*
X165878476Y-134508595D01*
%TO.C,TP10*%
X159551904Y-71749380D02*
X160123333Y-71749380D01*
X159837619Y-72749380D02*
X159837619Y-71749380D01*
X160456666Y-72749380D02*
X160456666Y-71749380D01*
X160837619Y-71749380D01*
X160932857Y-71797000D01*
X160980476Y-71844619D01*
X161028095Y-71939857D01*
X161028095Y-72082714D01*
X160980476Y-72177952D01*
X160932857Y-72225571D01*
X160837619Y-72273190D01*
X160456666Y-72273190D01*
X161980476Y-72749380D02*
X161409047Y-72749380D01*
X161694761Y-72749380D02*
X161694761Y-71749380D01*
X161599523Y-71892238D01*
X161504285Y-71987476D01*
X161409047Y-72035095D01*
X162599523Y-71749380D02*
X162694761Y-71749380D01*
X162790000Y-71797000D01*
X162837619Y-71844619D01*
X162885238Y-71939857D01*
X162932857Y-72130333D01*
X162932857Y-72368428D01*
X162885238Y-72558904D01*
X162837619Y-72654142D01*
X162790000Y-72701761D01*
X162694761Y-72749380D01*
X162599523Y-72749380D01*
X162504285Y-72701761D01*
X162456666Y-72654142D01*
X162409047Y-72558904D01*
X162361428Y-72368428D01*
X162361428Y-72130333D01*
X162409047Y-71939857D01*
X162456666Y-71844619D01*
X162504285Y-71797000D01*
X162599523Y-71749380D01*
%TO.C,U1*%
X82256380Y-72897904D02*
X83065904Y-72897904D01*
X83161142Y-72850285D01*
X83208761Y-72802666D01*
X83256380Y-72707428D01*
X83256380Y-72516952D01*
X83208761Y-72421714D01*
X83161142Y-72374095D01*
X83065904Y-72326476D01*
X82256380Y-72326476D01*
X83256380Y-71326476D02*
X83256380Y-71897904D01*
X83256380Y-71612190D02*
X82256380Y-71612190D01*
X82399238Y-71707428D01*
X82494476Y-71802666D01*
X82542095Y-71897904D01*
%TO.C,R1*%
X133129380Y-138469666D02*
X132653190Y-138803000D01*
X133129380Y-139041095D02*
X132129380Y-139041095D01*
X132129380Y-138660142D01*
X132177000Y-138564904D01*
X132224619Y-138517285D01*
X132319857Y-138469666D01*
X132462714Y-138469666D01*
X132557952Y-138517285D01*
X132605571Y-138564904D01*
X132653190Y-138660142D01*
X132653190Y-139041095D01*
X133129380Y-137517285D02*
X133129380Y-138088714D01*
X133129380Y-137803000D02*
X132129380Y-137803000D01*
X132272238Y-137898238D01*
X132367476Y-137993476D01*
X132415095Y-138088714D01*
%TO.C,Y1*%
X189388809Y-85961190D02*
X189388809Y-86437380D01*
X189055476Y-85437380D02*
X189388809Y-85961190D01*
X189722142Y-85437380D01*
X190579285Y-86437380D02*
X190007857Y-86437380D01*
X190293571Y-86437380D02*
X190293571Y-85437380D01*
X190198333Y-85580238D01*
X190103095Y-85675476D01*
X190007857Y-85723095D01*
%TO.C,TP4*%
X160028095Y-60319380D02*
X160599523Y-60319380D01*
X160313809Y-61319380D02*
X160313809Y-60319380D01*
X160932857Y-61319380D02*
X160932857Y-60319380D01*
X161313809Y-60319380D01*
X161409047Y-60367000D01*
X161456666Y-60414619D01*
X161504285Y-60509857D01*
X161504285Y-60652714D01*
X161456666Y-60747952D01*
X161409047Y-60795571D01*
X161313809Y-60843190D01*
X160932857Y-60843190D01*
X162361428Y-60652714D02*
X162361428Y-61319380D01*
X162123333Y-60271761D02*
X161885238Y-60986047D01*
X162504285Y-60986047D01*
%TO.C,BZ1*%
X198549047Y-71614571D02*
X198691904Y-71662190D01*
X198739523Y-71709809D01*
X198787142Y-71805047D01*
X198787142Y-71947904D01*
X198739523Y-72043142D01*
X198691904Y-72090761D01*
X198596666Y-72138380D01*
X198215714Y-72138380D01*
X198215714Y-71138380D01*
X198549047Y-71138380D01*
X198644285Y-71186000D01*
X198691904Y-71233619D01*
X198739523Y-71328857D01*
X198739523Y-71424095D01*
X198691904Y-71519333D01*
X198644285Y-71566952D01*
X198549047Y-71614571D01*
X198215714Y-71614571D01*
X199120476Y-71138380D02*
X199787142Y-71138380D01*
X199120476Y-72138380D01*
X199787142Y-72138380D01*
X200691904Y-72138380D02*
X200120476Y-72138380D01*
X200406190Y-72138380D02*
X200406190Y-71138380D01*
X200310952Y-71281238D01*
X200215714Y-71376476D01*
X200120476Y-71424095D01*
%TO.C,R8*%
X109292380Y-138254666D02*
X108816190Y-138588000D01*
X109292380Y-138826095D02*
X108292380Y-138826095D01*
X108292380Y-138445142D01*
X108340000Y-138349904D01*
X108387619Y-138302285D01*
X108482857Y-138254666D01*
X108625714Y-138254666D01*
X108720952Y-138302285D01*
X108768571Y-138349904D01*
X108816190Y-138445142D01*
X108816190Y-138826095D01*
X108720952Y-137683238D02*
X108673333Y-137778476D01*
X108625714Y-137826095D01*
X108530476Y-137873714D01*
X108482857Y-137873714D01*
X108387619Y-137826095D01*
X108340000Y-137778476D01*
X108292380Y-137683238D01*
X108292380Y-137492761D01*
X108340000Y-137397523D01*
X108387619Y-137349904D01*
X108482857Y-137302285D01*
X108530476Y-137302285D01*
X108625714Y-137349904D01*
X108673333Y-137397523D01*
X108720952Y-137492761D01*
X108720952Y-137683238D01*
X108768571Y-137778476D01*
X108816190Y-137826095D01*
X108911428Y-137873714D01*
X109101904Y-137873714D01*
X109197142Y-137826095D01*
X109244761Y-137778476D01*
X109292380Y-137683238D01*
X109292380Y-137492761D01*
X109244761Y-137397523D01*
X109197142Y-137349904D01*
X109101904Y-137302285D01*
X108911428Y-137302285D01*
X108816190Y-137349904D01*
X108768571Y-137397523D01*
X108720952Y-137492761D01*
%TO.C,R9*%
X157044380Y-137160666D02*
X156568190Y-137494000D01*
X157044380Y-137732095D02*
X156044380Y-137732095D01*
X156044380Y-137351142D01*
X156092000Y-137255904D01*
X156139619Y-137208285D01*
X156234857Y-137160666D01*
X156377714Y-137160666D01*
X156472952Y-137208285D01*
X156520571Y-137255904D01*
X156568190Y-137351142D01*
X156568190Y-137732095D01*
X157044380Y-136684476D02*
X157044380Y-136494000D01*
X156996761Y-136398761D01*
X156949142Y-136351142D01*
X156806285Y-136255904D01*
X156615809Y-136208285D01*
X156234857Y-136208285D01*
X156139619Y-136255904D01*
X156092000Y-136303523D01*
X156044380Y-136398761D01*
X156044380Y-136589238D01*
X156092000Y-136684476D01*
X156139619Y-136732095D01*
X156234857Y-136779714D01*
X156472952Y-136779714D01*
X156568190Y-136732095D01*
X156615809Y-136684476D01*
X156663428Y-136589238D01*
X156663428Y-136398761D01*
X156615809Y-136303523D01*
X156568190Y-136255904D01*
X156472952Y-136208285D01*
%TO.C,H2*%
X214238095Y-56252380D02*
X214238095Y-55252380D01*
X214238095Y-55728571D02*
X214809523Y-55728571D01*
X214809523Y-56252380D02*
X214809523Y-55252380D01*
X215238095Y-55347619D02*
X215285714Y-55300000D01*
X215380952Y-55252380D01*
X215619047Y-55252380D01*
X215714285Y-55300000D01*
X215761904Y-55347619D01*
X215809523Y-55442857D01*
X215809523Y-55538095D01*
X215761904Y-55680952D01*
X215190476Y-56252380D01*
X215809523Y-56252380D01*
%TO.C,SW2*%
X125158666Y-132502761D02*
X125301523Y-132550380D01*
X125539619Y-132550380D01*
X125634857Y-132502761D01*
X125682476Y-132455142D01*
X125730095Y-132359904D01*
X125730095Y-132264666D01*
X125682476Y-132169428D01*
X125634857Y-132121809D01*
X125539619Y-132074190D01*
X125349142Y-132026571D01*
X125253904Y-131978952D01*
X125206285Y-131931333D01*
X125158666Y-131836095D01*
X125158666Y-131740857D01*
X125206285Y-131645619D01*
X125253904Y-131598000D01*
X125349142Y-131550380D01*
X125587238Y-131550380D01*
X125730095Y-131598000D01*
X126063428Y-131550380D02*
X126301523Y-132550380D01*
X126492000Y-131836095D01*
X126682476Y-132550380D01*
X126920571Y-131550380D01*
X127253904Y-131645619D02*
X127301523Y-131598000D01*
X127396761Y-131550380D01*
X127634857Y-131550380D01*
X127730095Y-131598000D01*
X127777714Y-131645619D01*
X127825333Y-131740857D01*
X127825333Y-131836095D01*
X127777714Y-131978952D01*
X127206285Y-132550380D01*
X127825333Y-132550380D01*
%TO.C,H3*%
X84238095Y-136252380D02*
X84238095Y-135252380D01*
X84238095Y-135728571D02*
X84809523Y-135728571D01*
X84809523Y-136252380D02*
X84809523Y-135252380D01*
X85190476Y-135252380D02*
X85809523Y-135252380D01*
X85476190Y-135633333D01*
X85619047Y-135633333D01*
X85714285Y-135680952D01*
X85761904Y-135728571D01*
X85809523Y-135823809D01*
X85809523Y-136061904D01*
X85761904Y-136157142D01*
X85714285Y-136204761D01*
X85619047Y-136252380D01*
X85333333Y-136252380D01*
X85238095Y-136204761D01*
X85190476Y-136157142D01*
%TO.C,TP1*%
X180348095Y-69844380D02*
X180919523Y-69844380D01*
X180633809Y-70844380D02*
X180633809Y-69844380D01*
X181252857Y-70844380D02*
X181252857Y-69844380D01*
X181633809Y-69844380D01*
X181729047Y-69892000D01*
X181776666Y-69939619D01*
X181824285Y-70034857D01*
X181824285Y-70177714D01*
X181776666Y-70272952D01*
X181729047Y-70320571D01*
X181633809Y-70368190D01*
X181252857Y-70368190D01*
X182776666Y-70844380D02*
X182205238Y-70844380D01*
X182490952Y-70844380D02*
X182490952Y-69844380D01*
X182395714Y-69987238D01*
X182300476Y-70082476D01*
X182205238Y-70130095D01*
%TO.C,R11*%
X212082142Y-88082380D02*
X211748809Y-87606190D01*
X211510714Y-88082380D02*
X211510714Y-87082380D01*
X211891666Y-87082380D01*
X211986904Y-87130000D01*
X212034523Y-87177619D01*
X212082142Y-87272857D01*
X212082142Y-87415714D01*
X212034523Y-87510952D01*
X211986904Y-87558571D01*
X211891666Y-87606190D01*
X211510714Y-87606190D01*
X213034523Y-88082380D02*
X212463095Y-88082380D01*
X212748809Y-88082380D02*
X212748809Y-87082380D01*
X212653571Y-87225238D01*
X212558333Y-87320476D01*
X212463095Y-87368095D01*
X213986904Y-88082380D02*
X213415476Y-88082380D01*
X213701190Y-88082380D02*
X213701190Y-87082380D01*
X213605952Y-87225238D01*
X213510714Y-87320476D01*
X213415476Y-87368095D01*
%TO.C,C4*%
X194143333Y-96242142D02*
X194095714Y-96289761D01*
X193952857Y-96337380D01*
X193857619Y-96337380D01*
X193714761Y-96289761D01*
X193619523Y-96194523D01*
X193571904Y-96099285D01*
X193524285Y-95908809D01*
X193524285Y-95765952D01*
X193571904Y-95575476D01*
X193619523Y-95480238D01*
X193714761Y-95385000D01*
X193857619Y-95337380D01*
X193952857Y-95337380D01*
X194095714Y-95385000D01*
X194143333Y-95432619D01*
X195000476Y-95670714D02*
X195000476Y-96337380D01*
X194762380Y-95289761D02*
X194524285Y-96004047D01*
X195143333Y-96004047D01*
%TO.C,R16*%
X161282142Y-90994880D02*
X160948809Y-90518690D01*
X160710714Y-90994880D02*
X160710714Y-89994880D01*
X161091666Y-89994880D01*
X161186904Y-90042500D01*
X161234523Y-90090119D01*
X161282142Y-90185357D01*
X161282142Y-90328214D01*
X161234523Y-90423452D01*
X161186904Y-90471071D01*
X161091666Y-90518690D01*
X160710714Y-90518690D01*
X162234523Y-90994880D02*
X161663095Y-90994880D01*
X161948809Y-90994880D02*
X161948809Y-89994880D01*
X161853571Y-90137738D01*
X161758333Y-90232976D01*
X161663095Y-90280595D01*
X163091666Y-89994880D02*
X162901190Y-89994880D01*
X162805952Y-90042500D01*
X162758333Y-90090119D01*
X162663095Y-90232976D01*
X162615476Y-90423452D01*
X162615476Y-90804404D01*
X162663095Y-90899642D01*
X162710714Y-90947261D01*
X162805952Y-90994880D01*
X162996428Y-90994880D01*
X163091666Y-90947261D01*
X163139285Y-90899642D01*
X163186904Y-90804404D01*
X163186904Y-90566309D01*
X163139285Y-90471071D01*
X163091666Y-90423452D01*
X162996428Y-90375833D01*
X162805952Y-90375833D01*
X162710714Y-90423452D01*
X162663095Y-90471071D01*
X162615476Y-90566309D01*
%TO.C,C5*%
X178792142Y-89701666D02*
X178839761Y-89749285D01*
X178887380Y-89892142D01*
X178887380Y-89987380D01*
X178839761Y-90130238D01*
X178744523Y-90225476D01*
X178649285Y-90273095D01*
X178458809Y-90320714D01*
X178315952Y-90320714D01*
X178125476Y-90273095D01*
X178030238Y-90225476D01*
X177935000Y-90130238D01*
X177887380Y-89987380D01*
X177887380Y-89892142D01*
X177935000Y-89749285D01*
X177982619Y-89701666D01*
X177887380Y-88796904D02*
X177887380Y-89273095D01*
X178363571Y-89320714D01*
X178315952Y-89273095D01*
X178268333Y-89177857D01*
X178268333Y-88939761D01*
X178315952Y-88844523D01*
X178363571Y-88796904D01*
X178458809Y-88749285D01*
X178696904Y-88749285D01*
X178792142Y-88796904D01*
X178839761Y-88844523D01*
X178887380Y-88939761D01*
X178887380Y-89177857D01*
X178839761Y-89273095D01*
X178792142Y-89320714D01*
%TO.C,R4*%
X208748333Y-119452380D02*
X208415000Y-118976190D01*
X208176904Y-119452380D02*
X208176904Y-118452380D01*
X208557857Y-118452380D01*
X208653095Y-118500000D01*
X208700714Y-118547619D01*
X208748333Y-118642857D01*
X208748333Y-118785714D01*
X208700714Y-118880952D01*
X208653095Y-118928571D01*
X208557857Y-118976190D01*
X208176904Y-118976190D01*
X209605476Y-118785714D02*
X209605476Y-119452380D01*
X209367380Y-118404761D02*
X209129285Y-119119047D01*
X209748333Y-119119047D01*
%TO.C,H1*%
X84238095Y-56252380D02*
X84238095Y-55252380D01*
X84238095Y-55728571D02*
X84809523Y-55728571D01*
X84809523Y-56252380D02*
X84809523Y-55252380D01*
X85809523Y-56252380D02*
X85238095Y-56252380D01*
X85523809Y-56252380D02*
X85523809Y-55252380D01*
X85428571Y-55395238D01*
X85333333Y-55490476D01*
X85238095Y-55538095D01*
%TO.C,SW1*%
X171894666Y-132502761D02*
X172037523Y-132550380D01*
X172275619Y-132550380D01*
X172370857Y-132502761D01*
X172418476Y-132455142D01*
X172466095Y-132359904D01*
X172466095Y-132264666D01*
X172418476Y-132169428D01*
X172370857Y-132121809D01*
X172275619Y-132074190D01*
X172085142Y-132026571D01*
X171989904Y-131978952D01*
X171942285Y-131931333D01*
X171894666Y-131836095D01*
X171894666Y-131740857D01*
X171942285Y-131645619D01*
X171989904Y-131598000D01*
X172085142Y-131550380D01*
X172323238Y-131550380D01*
X172466095Y-131598000D01*
X172799428Y-131550380D02*
X173037523Y-132550380D01*
X173228000Y-131836095D01*
X173418476Y-132550380D01*
X173656571Y-131550380D01*
X174561333Y-132550380D02*
X173989904Y-132550380D01*
X174275619Y-132550380D02*
X174275619Y-131550380D01*
X174180380Y-131693238D01*
X174085142Y-131788476D01*
X173989904Y-131836095D01*
%TO.C,TP18*%
X107148380Y-111974095D02*
X107148380Y-111402666D01*
X108148380Y-111688380D02*
X107148380Y-111688380D01*
X108148380Y-111069333D02*
X107148380Y-111069333D01*
X107148380Y-110688380D01*
X107196000Y-110593142D01*
X107243619Y-110545523D01*
X107338857Y-110497904D01*
X107481714Y-110497904D01*
X107576952Y-110545523D01*
X107624571Y-110593142D01*
X107672190Y-110688380D01*
X107672190Y-111069333D01*
X108148380Y-109545523D02*
X108148380Y-110116952D01*
X108148380Y-109831238D02*
X107148380Y-109831238D01*
X107291238Y-109926476D01*
X107386476Y-110021714D01*
X107434095Y-110116952D01*
X107576952Y-108974095D02*
X107529333Y-109069333D01*
X107481714Y-109116952D01*
X107386476Y-109164571D01*
X107338857Y-109164571D01*
X107243619Y-109116952D01*
X107196000Y-109069333D01*
X107148380Y-108974095D01*
X107148380Y-108783619D01*
X107196000Y-108688380D01*
X107243619Y-108640761D01*
X107338857Y-108593142D01*
X107386476Y-108593142D01*
X107481714Y-108640761D01*
X107529333Y-108688380D01*
X107576952Y-108783619D01*
X107576952Y-108974095D01*
X107624571Y-109069333D01*
X107672190Y-109116952D01*
X107767428Y-109164571D01*
X107957904Y-109164571D01*
X108053142Y-109116952D01*
X108100761Y-109069333D01*
X108148380Y-108974095D01*
X108148380Y-108783619D01*
X108100761Y-108688380D01*
X108053142Y-108640761D01*
X107957904Y-108593142D01*
X107767428Y-108593142D01*
X107672190Y-108640761D01*
X107624571Y-108688380D01*
X107576952Y-108783619D01*
%TO.C,TP6*%
X146693095Y-71749380D02*
X147264523Y-71749380D01*
X146978809Y-72749380D02*
X146978809Y-71749380D01*
X147597857Y-72749380D02*
X147597857Y-71749380D01*
X147978809Y-71749380D01*
X148074047Y-71797000D01*
X148121666Y-71844619D01*
X148169285Y-71939857D01*
X148169285Y-72082714D01*
X148121666Y-72177952D01*
X148074047Y-72225571D01*
X147978809Y-72273190D01*
X147597857Y-72273190D01*
X149026428Y-71749380D02*
X148835952Y-71749380D01*
X148740714Y-71797000D01*
X148693095Y-71844619D01*
X148597857Y-71987476D01*
X148550238Y-72177952D01*
X148550238Y-72558904D01*
X148597857Y-72654142D01*
X148645476Y-72701761D01*
X148740714Y-72749380D01*
X148931190Y-72749380D01*
X149026428Y-72701761D01*
X149074047Y-72654142D01*
X149121666Y-72558904D01*
X149121666Y-72320809D01*
X149074047Y-72225571D01*
X149026428Y-72177952D01*
X148931190Y-72130333D01*
X148740714Y-72130333D01*
X148645476Y-72177952D01*
X148597857Y-72225571D01*
X148550238Y-72320809D01*
%TO.C,TP2*%
X213114095Y-125978380D02*
X213685523Y-125978380D01*
X213399809Y-126978380D02*
X213399809Y-125978380D01*
X214018857Y-126978380D02*
X214018857Y-125978380D01*
X214399809Y-125978380D01*
X214495047Y-126026000D01*
X214542666Y-126073619D01*
X214590285Y-126168857D01*
X214590285Y-126311714D01*
X214542666Y-126406952D01*
X214495047Y-126454571D01*
X214399809Y-126502190D01*
X214018857Y-126502190D01*
X214971238Y-126073619D02*
X215018857Y-126026000D01*
X215114095Y-125978380D01*
X215352190Y-125978380D01*
X215447428Y-126026000D01*
X215495047Y-126073619D01*
X215542666Y-126168857D01*
X215542666Y-126264095D01*
X215495047Y-126406952D01*
X214923619Y-126978380D01*
X215542666Y-126978380D01*
%TO.C,C13*%
X141597142Y-135865142D02*
X141549523Y-135912761D01*
X141406666Y-135960380D01*
X141311428Y-135960380D01*
X141168571Y-135912761D01*
X141073333Y-135817523D01*
X141025714Y-135722285D01*
X140978095Y-135531809D01*
X140978095Y-135388952D01*
X141025714Y-135198476D01*
X141073333Y-135103238D01*
X141168571Y-135008000D01*
X141311428Y-134960380D01*
X141406666Y-134960380D01*
X141549523Y-135008000D01*
X141597142Y-135055619D01*
X142549523Y-135960380D02*
X141978095Y-135960380D01*
X142263809Y-135960380D02*
X142263809Y-134960380D01*
X142168571Y-135103238D01*
X142073333Y-135198476D01*
X141978095Y-135246095D01*
X142882857Y-134960380D02*
X143501904Y-134960380D01*
X143168571Y-135341333D01*
X143311428Y-135341333D01*
X143406666Y-135388952D01*
X143454285Y-135436571D01*
X143501904Y-135531809D01*
X143501904Y-135769904D01*
X143454285Y-135865142D01*
X143406666Y-135912761D01*
X143311428Y-135960380D01*
X143025714Y-135960380D01*
X142930476Y-135912761D01*
X142882857Y-135865142D01*
%TO.C,R2*%
X179650380Y-137834666D02*
X179174190Y-138168000D01*
X179650380Y-138406095D02*
X178650380Y-138406095D01*
X178650380Y-138025142D01*
X178698000Y-137929904D01*
X178745619Y-137882285D01*
X178840857Y-137834666D01*
X178983714Y-137834666D01*
X179078952Y-137882285D01*
X179126571Y-137929904D01*
X179174190Y-138025142D01*
X179174190Y-138406095D01*
X178745619Y-137453714D02*
X178698000Y-137406095D01*
X178650380Y-137310857D01*
X178650380Y-137072761D01*
X178698000Y-136977523D01*
X178745619Y-136929904D01*
X178840857Y-136882285D01*
X178936095Y-136882285D01*
X179078952Y-136929904D01*
X179650380Y-137501333D01*
X179650380Y-136882285D01*
%TO.C,TP3*%
X153678095Y-60319380D02*
X154249523Y-60319380D01*
X153963809Y-61319380D02*
X153963809Y-60319380D01*
X154582857Y-61319380D02*
X154582857Y-60319380D01*
X154963809Y-60319380D01*
X155059047Y-60367000D01*
X155106666Y-60414619D01*
X155154285Y-60509857D01*
X155154285Y-60652714D01*
X155106666Y-60747952D01*
X155059047Y-60795571D01*
X154963809Y-60843190D01*
X154582857Y-60843190D01*
X155487619Y-60319380D02*
X156106666Y-60319380D01*
X155773333Y-60700333D01*
X155916190Y-60700333D01*
X156011428Y-60747952D01*
X156059047Y-60795571D01*
X156106666Y-60890809D01*
X156106666Y-61128904D01*
X156059047Y-61224142D01*
X156011428Y-61271761D01*
X155916190Y-61319380D01*
X155630476Y-61319380D01*
X155535238Y-61271761D01*
X155487619Y-61224142D01*
%TO.C,C3*%
X196683333Y-121897142D02*
X196635714Y-121944761D01*
X196492857Y-121992380D01*
X196397619Y-121992380D01*
X196254761Y-121944761D01*
X196159523Y-121849523D01*
X196111904Y-121754285D01*
X196064285Y-121563809D01*
X196064285Y-121420952D01*
X196111904Y-121230476D01*
X196159523Y-121135238D01*
X196254761Y-121040000D01*
X196397619Y-120992380D01*
X196492857Y-120992380D01*
X196635714Y-121040000D01*
X196683333Y-121087619D01*
X197016666Y-120992380D02*
X197635714Y-120992380D01*
X197302380Y-121373333D01*
X197445238Y-121373333D01*
X197540476Y-121420952D01*
X197588095Y-121468571D01*
X197635714Y-121563809D01*
X197635714Y-121801904D01*
X197588095Y-121897142D01*
X197540476Y-121944761D01*
X197445238Y-121992380D01*
X197159523Y-121992380D01*
X197064285Y-121944761D01*
X197016666Y-121897142D01*
%TO.C,TP13*%
X212177380Y-71588095D02*
X212177380Y-71016666D01*
X213177380Y-71302380D02*
X212177380Y-71302380D01*
X213177380Y-70683333D02*
X212177380Y-70683333D01*
X212177380Y-70302380D01*
X212225000Y-70207142D01*
X212272619Y-70159523D01*
X212367857Y-70111904D01*
X212510714Y-70111904D01*
X212605952Y-70159523D01*
X212653571Y-70207142D01*
X212701190Y-70302380D01*
X212701190Y-70683333D01*
X213177380Y-69159523D02*
X213177380Y-69730952D01*
X213177380Y-69445238D02*
X212177380Y-69445238D01*
X212320238Y-69540476D01*
X212415476Y-69635714D01*
X212463095Y-69730952D01*
X212177380Y-68826190D02*
X212177380Y-68207142D01*
X212558333Y-68540476D01*
X212558333Y-68397619D01*
X212605952Y-68302380D01*
X212653571Y-68254761D01*
X212748809Y-68207142D01*
X212986904Y-68207142D01*
X213082142Y-68254761D01*
X213129761Y-68302380D01*
X213177380Y-68397619D01*
X213177380Y-68683333D01*
X213129761Y-68778571D01*
X213082142Y-68826190D01*
%TO.C,SW3*%
X101536666Y-132502761D02*
X101679523Y-132550380D01*
X101917619Y-132550380D01*
X102012857Y-132502761D01*
X102060476Y-132455142D01*
X102108095Y-132359904D01*
X102108095Y-132264666D01*
X102060476Y-132169428D01*
X102012857Y-132121809D01*
X101917619Y-132074190D01*
X101727142Y-132026571D01*
X101631904Y-131978952D01*
X101584285Y-131931333D01*
X101536666Y-131836095D01*
X101536666Y-131740857D01*
X101584285Y-131645619D01*
X101631904Y-131598000D01*
X101727142Y-131550380D01*
X101965238Y-131550380D01*
X102108095Y-131598000D01*
X102441428Y-131550380D02*
X102679523Y-132550380D01*
X102870000Y-131836095D01*
X103060476Y-132550380D01*
X103298571Y-131550380D01*
X103584285Y-131550380D02*
X104203333Y-131550380D01*
X103870000Y-131931333D01*
X104012857Y-131931333D01*
X104108095Y-131978952D01*
X104155714Y-132026571D01*
X104203333Y-132121809D01*
X104203333Y-132359904D01*
X104155714Y-132455142D01*
X104108095Y-132502761D01*
X104012857Y-132550380D01*
X103727142Y-132550380D01*
X103631904Y-132502761D01*
X103584285Y-132455142D01*
%TO.C,TP17*%
X107402380Y-122642095D02*
X107402380Y-122070666D01*
X108402380Y-122356380D02*
X107402380Y-122356380D01*
X108402380Y-121737333D02*
X107402380Y-121737333D01*
X107402380Y-121356380D01*
X107450000Y-121261142D01*
X107497619Y-121213523D01*
X107592857Y-121165904D01*
X107735714Y-121165904D01*
X107830952Y-121213523D01*
X107878571Y-121261142D01*
X107926190Y-121356380D01*
X107926190Y-121737333D01*
X108402380Y-120213523D02*
X108402380Y-120784952D01*
X108402380Y-120499238D02*
X107402380Y-120499238D01*
X107545238Y-120594476D01*
X107640476Y-120689714D01*
X107688095Y-120784952D01*
X107402380Y-119880190D02*
X107402380Y-119213523D01*
X108402380Y-119642095D01*
%TO.C,SW4*%
X148526666Y-132502761D02*
X148669523Y-132550380D01*
X148907619Y-132550380D01*
X149002857Y-132502761D01*
X149050476Y-132455142D01*
X149098095Y-132359904D01*
X149098095Y-132264666D01*
X149050476Y-132169428D01*
X149002857Y-132121809D01*
X148907619Y-132074190D01*
X148717142Y-132026571D01*
X148621904Y-131978952D01*
X148574285Y-131931333D01*
X148526666Y-131836095D01*
X148526666Y-131740857D01*
X148574285Y-131645619D01*
X148621904Y-131598000D01*
X148717142Y-131550380D01*
X148955238Y-131550380D01*
X149098095Y-131598000D01*
X149431428Y-131550380D02*
X149669523Y-132550380D01*
X149860000Y-131836095D01*
X150050476Y-132550380D01*
X150288571Y-131550380D01*
X151098095Y-131883714D02*
X151098095Y-132550380D01*
X150860000Y-131502761D02*
X150621904Y-132217047D01*
X151240952Y-132217047D01*
%TO.C,TP11*%
X118276904Y-77210380D02*
X118848333Y-77210380D01*
X118562619Y-78210380D02*
X118562619Y-77210380D01*
X119181666Y-78210380D02*
X119181666Y-77210380D01*
X119562619Y-77210380D01*
X119657857Y-77258000D01*
X119705476Y-77305619D01*
X119753095Y-77400857D01*
X119753095Y-77543714D01*
X119705476Y-77638952D01*
X119657857Y-77686571D01*
X119562619Y-77734190D01*
X119181666Y-77734190D01*
X120705476Y-78210380D02*
X120134047Y-78210380D01*
X120419761Y-78210380D02*
X120419761Y-77210380D01*
X120324523Y-77353238D01*
X120229285Y-77448476D01*
X120134047Y-77496095D01*
X121657857Y-78210380D02*
X121086428Y-78210380D01*
X121372142Y-78210380D02*
X121372142Y-77210380D01*
X121276904Y-77353238D01*
X121181666Y-77448476D01*
X121086428Y-77496095D01*
%TO.C,TP8*%
X140343095Y-60319380D02*
X140914523Y-60319380D01*
X140628809Y-61319380D02*
X140628809Y-60319380D01*
X141247857Y-61319380D02*
X141247857Y-60319380D01*
X141628809Y-60319380D01*
X141724047Y-60367000D01*
X141771666Y-60414619D01*
X141819285Y-60509857D01*
X141819285Y-60652714D01*
X141771666Y-60747952D01*
X141724047Y-60795571D01*
X141628809Y-60843190D01*
X141247857Y-60843190D01*
X142390714Y-60747952D02*
X142295476Y-60700333D01*
X142247857Y-60652714D01*
X142200238Y-60557476D01*
X142200238Y-60509857D01*
X142247857Y-60414619D01*
X142295476Y-60367000D01*
X142390714Y-60319380D01*
X142581190Y-60319380D01*
X142676428Y-60367000D01*
X142724047Y-60414619D01*
X142771666Y-60509857D01*
X142771666Y-60557476D01*
X142724047Y-60652714D01*
X142676428Y-60700333D01*
X142581190Y-60747952D01*
X142390714Y-60747952D01*
X142295476Y-60795571D01*
X142247857Y-60843190D01*
X142200238Y-60938428D01*
X142200238Y-61128904D01*
X142247857Y-61224142D01*
X142295476Y-61271761D01*
X142390714Y-61319380D01*
X142581190Y-61319380D01*
X142676428Y-61271761D01*
X142724047Y-61224142D01*
X142771666Y-61128904D01*
X142771666Y-60938428D01*
X142724047Y-60843190D01*
X142676428Y-60795571D01*
X142581190Y-60747952D01*
%TO.C,U4*%
X165735095Y-60285380D02*
X165735095Y-61094904D01*
X165782714Y-61190142D01*
X165830333Y-61237761D01*
X165925571Y-61285380D01*
X166116047Y-61285380D01*
X166211285Y-61237761D01*
X166258904Y-61190142D01*
X166306523Y-61094904D01*
X166306523Y-60285380D01*
X167211285Y-60618714D02*
X167211285Y-61285380D01*
X166973190Y-60237761D02*
X166735095Y-60952047D01*
X167354142Y-60952047D01*
%TO.C,C1*%
X196048333Y-86042142D02*
X196000714Y-86089761D01*
X195857857Y-86137380D01*
X195762619Y-86137380D01*
X195619761Y-86089761D01*
X195524523Y-85994523D01*
X195476904Y-85899285D01*
X195429285Y-85708809D01*
X195429285Y-85565952D01*
X195476904Y-85375476D01*
X195524523Y-85280238D01*
X195619761Y-85185000D01*
X195762619Y-85137380D01*
X195857857Y-85137380D01*
X196000714Y-85185000D01*
X196048333Y-85232619D01*
X197000714Y-86137380D02*
X196429285Y-86137380D01*
X196715000Y-86137380D02*
X196715000Y-85137380D01*
X196619761Y-85280238D01*
X196524523Y-85375476D01*
X196429285Y-85423095D01*
%TO.C,TP19*%
X107402380Y-117562095D02*
X107402380Y-116990666D01*
X108402380Y-117276380D02*
X107402380Y-117276380D01*
X108402380Y-116657333D02*
X107402380Y-116657333D01*
X107402380Y-116276380D01*
X107450000Y-116181142D01*
X107497619Y-116133523D01*
X107592857Y-116085904D01*
X107735714Y-116085904D01*
X107830952Y-116133523D01*
X107878571Y-116181142D01*
X107926190Y-116276380D01*
X107926190Y-116657333D01*
X108402380Y-115133523D02*
X108402380Y-115704952D01*
X108402380Y-115419238D02*
X107402380Y-115419238D01*
X107545238Y-115514476D01*
X107640476Y-115609714D01*
X107688095Y-115704952D01*
X108402380Y-114657333D02*
X108402380Y-114466857D01*
X108354761Y-114371619D01*
X108307142Y-114324000D01*
X108164285Y-114228761D01*
X107973809Y-114181142D01*
X107592857Y-114181142D01*
X107497619Y-114228761D01*
X107450000Y-114276380D01*
X107402380Y-114371619D01*
X107402380Y-114562095D01*
X107450000Y-114657333D01*
X107497619Y-114704952D01*
X107592857Y-114752571D01*
X107830952Y-114752571D01*
X107926190Y-114704952D01*
X107973809Y-114657333D01*
X108021428Y-114562095D01*
X108021428Y-114371619D01*
X107973809Y-114276380D01*
X107926190Y-114228761D01*
X107830952Y-114181142D01*
%TO.C,R3*%
X208748333Y-115642380D02*
X208415000Y-115166190D01*
X208176904Y-115642380D02*
X208176904Y-114642380D01*
X208557857Y-114642380D01*
X208653095Y-114690000D01*
X208700714Y-114737619D01*
X208748333Y-114832857D01*
X208748333Y-114975714D01*
X208700714Y-115070952D01*
X208653095Y-115118571D01*
X208557857Y-115166190D01*
X208176904Y-115166190D01*
X209081666Y-114642380D02*
X209700714Y-114642380D01*
X209367380Y-115023333D01*
X209510238Y-115023333D01*
X209605476Y-115070952D01*
X209653095Y-115118571D01*
X209700714Y-115213809D01*
X209700714Y-115451904D01*
X209653095Y-115547142D01*
X209605476Y-115594761D01*
X209510238Y-115642380D01*
X209224523Y-115642380D01*
X209129285Y-115594761D01*
X209081666Y-115547142D01*
%TO.C,UI1*%
X202845000Y-70792380D02*
X202845000Y-71601904D01*
X202892619Y-71697142D01*
X202940238Y-71744761D01*
X203035476Y-71792380D01*
X203225952Y-71792380D01*
X203321190Y-71744761D01*
X203368809Y-71697142D01*
X203416428Y-71601904D01*
X203416428Y-70792380D01*
X203892619Y-71792380D02*
X203892619Y-70792380D01*
X204892619Y-71792380D02*
X204321190Y-71792380D01*
X204606904Y-71792380D02*
X204606904Y-70792380D01*
X204511666Y-70935238D01*
X204416428Y-71030476D01*
X204321190Y-71078095D01*
%TO.C,C9*%
X98258333Y-64747142D02*
X98210714Y-64794761D01*
X98067857Y-64842380D01*
X97972619Y-64842380D01*
X97829761Y-64794761D01*
X97734523Y-64699523D01*
X97686904Y-64604285D01*
X97639285Y-64413809D01*
X97639285Y-64270952D01*
X97686904Y-64080476D01*
X97734523Y-63985238D01*
X97829761Y-63890000D01*
X97972619Y-63842380D01*
X98067857Y-63842380D01*
X98210714Y-63890000D01*
X98258333Y-63937619D01*
X98734523Y-64842380D02*
X98925000Y-64842380D01*
X99020238Y-64794761D01*
X99067857Y-64747142D01*
X99163095Y-64604285D01*
X99210714Y-64413809D01*
X99210714Y-64032857D01*
X99163095Y-63937619D01*
X99115476Y-63890000D01*
X99020238Y-63842380D01*
X98829761Y-63842380D01*
X98734523Y-63890000D01*
X98686904Y-63937619D01*
X98639285Y-64032857D01*
X98639285Y-64270952D01*
X98686904Y-64366190D01*
X98734523Y-64413809D01*
X98829761Y-64461428D01*
X99020238Y-64461428D01*
X99115476Y-64413809D01*
X99163095Y-64366190D01*
X99210714Y-64270952D01*
%TO.C,SW5*%
X198691666Y-111039761D02*
X198834523Y-111087380D01*
X199072619Y-111087380D01*
X199167857Y-111039761D01*
X199215476Y-110992142D01*
X199263095Y-110896904D01*
X199263095Y-110801666D01*
X199215476Y-110706428D01*
X199167857Y-110658809D01*
X199072619Y-110611190D01*
X198882142Y-110563571D01*
X198786904Y-110515952D01*
X198739285Y-110468333D01*
X198691666Y-110373095D01*
X198691666Y-110277857D01*
X198739285Y-110182619D01*
X198786904Y-110135000D01*
X198882142Y-110087380D01*
X199120238Y-110087380D01*
X199263095Y-110135000D01*
X199596428Y-110087380D02*
X199834523Y-111087380D01*
X200025000Y-110373095D01*
X200215476Y-111087380D01*
X200453571Y-110087380D01*
X201310714Y-110087380D02*
X200834523Y-110087380D01*
X200786904Y-110563571D01*
X200834523Y-110515952D01*
X200929761Y-110468333D01*
X201167857Y-110468333D01*
X201263095Y-110515952D01*
X201310714Y-110563571D01*
X201358333Y-110658809D01*
X201358333Y-110896904D01*
X201310714Y-110992142D01*
X201263095Y-111039761D01*
X201167857Y-111087380D01*
X200929761Y-111087380D01*
X200834523Y-111039761D01*
X200786904Y-110992142D01*
%TO.C,DS1*%
X112345714Y-93162380D02*
X112345714Y-92162380D01*
X112583809Y-92162380D01*
X112726666Y-92210000D01*
X112821904Y-92305238D01*
X112869523Y-92400476D01*
X112917142Y-92590952D01*
X112917142Y-92733809D01*
X112869523Y-92924285D01*
X112821904Y-93019523D01*
X112726666Y-93114761D01*
X112583809Y-93162380D01*
X112345714Y-93162380D01*
X113298095Y-93114761D02*
X113440952Y-93162380D01*
X113679047Y-93162380D01*
X113774285Y-93114761D01*
X113821904Y-93067142D01*
X113869523Y-92971904D01*
X113869523Y-92876666D01*
X113821904Y-92781428D01*
X113774285Y-92733809D01*
X113679047Y-92686190D01*
X113488571Y-92638571D01*
X113393333Y-92590952D01*
X113345714Y-92543333D01*
X113298095Y-92448095D01*
X113298095Y-92352857D01*
X113345714Y-92257619D01*
X113393333Y-92210000D01*
X113488571Y-92162380D01*
X113726666Y-92162380D01*
X113869523Y-92210000D01*
X114821904Y-93162380D02*
X114250476Y-93162380D01*
X114536190Y-93162380D02*
X114536190Y-92162380D01*
X114440952Y-92305238D01*
X114345714Y-92400476D01*
X114250476Y-92448095D01*
%TO.C,R7*%
X89788333Y-69412380D02*
X89455000Y-68936190D01*
X89216904Y-69412380D02*
X89216904Y-68412380D01*
X89597857Y-68412380D01*
X89693095Y-68460000D01*
X89740714Y-68507619D01*
X89788333Y-68602857D01*
X89788333Y-68745714D01*
X89740714Y-68840952D01*
X89693095Y-68888571D01*
X89597857Y-68936190D01*
X89216904Y-68936190D01*
X90121666Y-68412380D02*
X90788333Y-68412380D01*
X90359761Y-69412380D01*
D11*
%TO.C,RV1*%
X150535000Y-80957500D02*
X150535000Y-90727500D01*
X140765000Y-90727500D02*
X150535000Y-90727500D01*
X140765000Y-80957500D02*
X150535000Y-80957500D01*
X140765000Y-80957500D02*
X140765000Y-90727500D01*
%TO.C,Y2*%
X85556000Y-82108000D02*
X86656000Y-82108000D01*
X85556000Y-84008000D02*
X86656000Y-84008000D01*
X84156000Y-82158000D02*
X84156000Y-83958000D01*
%TO.C,TP9*%
X149155000Y-62865000D02*
G75*
G03*
X149155000Y-62865000I-1200000J0D01*
G01*
%TO.C,U3*%
X202738000Y-137435000D02*
X201238000Y-137435000D01*
X201238000Y-130535000D02*
X201238000Y-130805000D01*
X201238000Y-137165000D02*
X200138000Y-137165000D01*
X201238000Y-130805000D02*
X198408000Y-130805000D01*
X202738000Y-130535000D02*
X201238000Y-130535000D01*
X201238000Y-137435000D02*
X201238000Y-137165000D01*
%TO.C,U5*%
X125603000Y-79248000D02*
X125603000Y-80772000D01*
X125603000Y-80772000D02*
X127127000Y-80772000D01*
X125857000Y-61468000D02*
X138557000Y-61468000D01*
X138557000Y-61468000D02*
X138557000Y-80518000D01*
X138557000Y-80518000D02*
X125857000Y-80518000D01*
X125857000Y-80518000D02*
X125857000Y-61468000D01*
%TO.C,TP7*%
X143440000Y-74295000D02*
G75*
G03*
X143440000Y-74295000I-1200000J0D01*
G01*
%TO.C,U2*%
X109330000Y-60265000D02*
X104030000Y-60265000D01*
X109330000Y-90865000D02*
X109330000Y-60265000D01*
X104030000Y-60265000D02*
X104030000Y-90865000D01*
X107680000Y-90865000D02*
X109330000Y-90865000D01*
X104030000Y-90865000D02*
X105680000Y-90865000D01*
X107680000Y-90865000D02*
G75*
G03*
X105680000Y-90865000I-1000000J0D01*
G01*
%TO.C,Q1*%
X190640000Y-63975000D02*
X189180000Y-63975000D01*
X190640000Y-63975000D02*
X190640000Y-63045000D01*
X190640000Y-60815000D02*
X188480000Y-60815000D01*
X190640000Y-60815000D02*
X190640000Y-61745000D01*
%TO.C,D1*%
X216352000Y-83326500D02*
X214432000Y-83326500D01*
X216352000Y-86011500D02*
X216352000Y-83326500D01*
X214432000Y-83326500D02*
X214432000Y-86011500D01*
%TO.C,TP5*%
X156140000Y-74295000D02*
G75*
G03*
X156140000Y-74295000I-1200000J0D01*
G01*
%TO.C,TP16*%
X87814000Y-96266000D02*
G75*
G03*
X87814000Y-96266000I-1200000J0D01*
G01*
%TO.C,TP14*%
X208845000Y-64770000D02*
G75*
G03*
X208845000Y-64770000I-1200000J0D01*
G01*
%TO.C,SW6*%
X153845000Y-82307500D02*
X153845000Y-88107500D01*
X154795000Y-90307500D02*
X153795000Y-90307500D01*
X155795000Y-88307500D02*
X158395000Y-88307500D01*
X155795000Y-82107500D02*
X158395000Y-82107500D01*
X160345000Y-82207500D02*
X160345000Y-88207500D01*
X153795000Y-90307500D02*
X153795000Y-89307500D01*
%TO.C,TP15*%
X87306000Y-90678000D02*
G75*
G03*
X87306000Y-90678000I-1200000J0D01*
G01*
%TO.C,TP10*%
X162490000Y-74295000D02*
G75*
G03*
X162490000Y-74295000I-1200000J0D01*
G01*
%TO.C,U1*%
X94050000Y-77580000D02*
X94050000Y-72280000D01*
X83770000Y-77580000D02*
X94050000Y-77580000D01*
X94050000Y-72280000D02*
X83770000Y-72280000D01*
X83770000Y-72280000D02*
X83770000Y-73930000D01*
X83770000Y-75930000D02*
X83770000Y-77580000D01*
X83770000Y-75930000D02*
G75*
G03*
X83770000Y-73930000I0J1000000D01*
G01*
%TO.C,Y1*%
X195765000Y-86985000D02*
X183165000Y-86985000D01*
X183165000Y-92085000D02*
X195765000Y-92085000D01*
X183165000Y-86985000D02*
X183165000Y-92085000D01*
%TO.C,TP4*%
X162490000Y-62865000D02*
G75*
G03*
X162490000Y-62865000I-1200000J0D01*
G01*
%TO.C,BZ1*%
X205660000Y-64516000D02*
G75*
G03*
X205660000Y-64516000I-6230000J0D01*
G01*
X205830000Y-66016000D02*
G75*
G03*
X205830000Y-63016001I-6400000J1500000D01*
G01*
%TO.C,SW2*%
X129592000Y-135098000D02*
X129592000Y-137698000D01*
X123392000Y-135098000D02*
X123392000Y-137698000D01*
X129492000Y-139648000D02*
X123492000Y-139648000D01*
X121392000Y-133098000D02*
X122392000Y-133098000D01*
X129392000Y-133148000D02*
X123592000Y-133148000D01*
X121392000Y-134098000D02*
X121392000Y-133098000D01*
%TO.C,TP1*%
X182810000Y-72390000D02*
G75*
G03*
X182810000Y-72390000I-1200000J0D01*
G01*
%TO.C,SW1*%
X168128000Y-133098000D02*
X169128000Y-133098000D01*
X170128000Y-135098000D02*
X170128000Y-137698000D01*
X176328000Y-135098000D02*
X176328000Y-137698000D01*
X168128000Y-134098000D02*
X168128000Y-133098000D01*
X176228000Y-139648000D02*
X170228000Y-139648000D01*
X176128000Y-133148000D02*
X170328000Y-133148000D01*
%TO.C,TP18*%
X105340000Y-109982000D02*
G75*
G03*
X105340000Y-109982000I-1200000J0D01*
G01*
%TO.C,TP6*%
X149155000Y-74295000D02*
G75*
G03*
X149155000Y-74295000I-1200000J0D01*
G01*
%TO.C,TP2*%
X215576000Y-128524000D02*
G75*
G03*
X215576000Y-128524000I-1200000J0D01*
G01*
%TO.C,TP3*%
X156140000Y-62865000D02*
G75*
G03*
X156140000Y-62865000I-1200000J0D01*
G01*
%TO.C,TP13*%
X208845000Y-69215000D02*
G75*
G03*
X208845000Y-69215000I-1200000J0D01*
G01*
%TO.C,SW3*%
X99770000Y-135098000D02*
X99770000Y-137698000D01*
X105970000Y-135098000D02*
X105970000Y-137698000D01*
X97770000Y-133098000D02*
X98770000Y-133098000D01*
X105870000Y-139648000D02*
X99870000Y-139648000D01*
X97770000Y-134098000D02*
X97770000Y-133098000D01*
X105770000Y-133148000D02*
X99970000Y-133148000D01*
%TO.C,TP17*%
X105086000Y-120650000D02*
G75*
G03*
X105086000Y-120650000I-1200000J0D01*
G01*
%TO.C,SW4*%
X152960000Y-135098000D02*
X152960000Y-137698000D01*
X144760000Y-134098000D02*
X144760000Y-133098000D01*
X146760000Y-135098000D02*
X146760000Y-137698000D01*
X152760000Y-133148000D02*
X146960000Y-133148000D01*
X152860000Y-139648000D02*
X146860000Y-139648000D01*
X144760000Y-133098000D02*
X145760000Y-133098000D01*
%TO.C,TP11*%
X121215000Y-79756000D02*
G75*
G03*
X121215000Y-79756000I-1200000J0D01*
G01*
%TO.C,TP8*%
X142805000Y-62865000D02*
G75*
G03*
X142805000Y-62865000I-1200000J0D01*
G01*
%TO.C,U4*%
X163703000Y-80772000D02*
X165227000Y-80772000D01*
X163703000Y-79248000D02*
X163703000Y-80772000D01*
X163957000Y-61468000D02*
X176657000Y-61468000D01*
X176657000Y-61468000D02*
X176657000Y-80518000D01*
X176657000Y-80518000D02*
X163957000Y-80518000D01*
X163957000Y-80518000D02*
X163957000Y-61468000D01*
%TO.C,TP19*%
X105340000Y-115316000D02*
G75*
G03*
X105340000Y-115316000I-1200000J0D01*
G01*
%TO.C,UI1*%
X201195000Y-72340000D02*
X201195000Y-108020000D01*
X201195000Y-108020000D02*
X206495000Y-108020000D01*
X206495000Y-72340000D02*
X204845000Y-72340000D01*
X206495000Y-108020000D02*
X206495000Y-72340000D01*
X202845000Y-72340000D02*
X201195000Y-72340000D01*
X202845000Y-72340000D02*
G75*
G03*
X204845000Y-72340000I1000000J0D01*
G01*
%TO.C,SW5*%
X196925000Y-113635000D02*
X196925000Y-116235000D01*
X202925000Y-111685000D02*
X197125000Y-111685000D01*
X194925000Y-111635000D02*
X195925000Y-111635000D01*
X203025000Y-118185000D02*
X197025000Y-118185000D01*
X203125000Y-113635000D02*
X203125000Y-116235000D01*
X194925000Y-112635000D02*
X194925000Y-111635000D01*
%TO.C,DS1*%
X191520000Y-93880000D02*
X112040000Y-93880000D01*
X187380000Y-124520000D02*
X114380000Y-124520000D01*
X191520000Y-130160000D02*
X191520000Y-93880000D01*
X111250000Y-93880000D02*
X112040000Y-93880000D01*
X183580000Y-105020000D02*
X183580000Y-119020000D01*
X114380000Y-124520000D02*
X114380000Y-99520000D01*
X114380000Y-99520000D02*
X187380000Y-99520000D01*
X183080660Y-119520000D02*
X119580000Y-119520000D01*
X111240000Y-93880000D02*
X111240000Y-130160000D01*
X117880000Y-93520000D02*
X120880000Y-93520000D01*
X111240000Y-130160000D02*
X191520000Y-130160000D01*
X119580000Y-104520000D02*
X183080000Y-104520000D01*
X187380000Y-99520000D02*
X187380000Y-124520000D01*
X119080280Y-119019320D02*
X119080280Y-105020000D01*
X183580000Y-105020000D02*
G75*
G03*
X183080000Y-104520000I-500000J0D01*
G01*
X119080280Y-119019320D02*
G75*
G03*
X119580660Y-119519700I500380J0D01*
G01*
X119580660Y-104518460D02*
G75*
G03*
X119080280Y-105018840I0J-500380D01*
G01*
X183080660Y-119519740D02*
G75*
G03*
X183581040Y-119019320I-60J500440D01*
G01*
%TD*%
%LPC*%
D12*
%TO.C,J2*%
X196167000Y-136144000D03*
X190167000Y-136144000D03*
D13*
X193167000Y-131444000D03*
%TD*%
D14*
%TO.C,C6*%
X203288000Y-127000000D03*
X201588000Y-127000000D03*
%TD*%
D15*
%TO.C,H4*%
X215000000Y-140000000D03*
%TD*%
D16*
%TO.C,R6*%
X94830000Y-67310000D03*
X93130000Y-67310000D03*
%TD*%
D17*
%TO.C,RV1*%
X145665000Y-88382500D03*
X148205000Y-85842500D03*
X145665000Y-83302500D03*
%TD*%
D18*
%TO.C,Y2*%
X87356000Y-83058000D03*
X84856000Y-83058000D03*
%TD*%
D19*
%TO.C,TP9*%
X147955000Y-62865000D03*
%TD*%
D16*
%TO.C,R17*%
X153885000Y-92075000D03*
X152185000Y-92075000D03*
%TD*%
D20*
%TO.C,U3*%
X199508000Y-131705000D03*
D21*
X205808000Y-133985000D03*
D20*
X199508000Y-136265000D03*
%TD*%
D14*
%TO.C,R18*%
X190920000Y-71120000D03*
X192620000Y-71120000D03*
%TD*%
D22*
%TO.C,U5*%
X127127000Y-78613000D03*
D23*
X129667000Y-78613000D03*
X132207000Y-78613000D03*
X134747000Y-78613000D03*
X137287000Y-78613000D03*
X137287000Y-63373000D03*
X134747000Y-63373000D03*
X132207000Y-63373000D03*
X129667000Y-63373000D03*
X127127000Y-63373000D03*
%TD*%
D19*
%TO.C,TP7*%
X142240000Y-74295000D03*
%TD*%
D24*
%TO.C,R5*%
X193040000Y-117270000D03*
X193040000Y-115570000D03*
%TD*%
D14*
%TO.C,C2*%
X209970000Y-91440000D03*
X211670000Y-91440000D03*
%TD*%
%TO.C,R10*%
X97575000Y-74295000D03*
X99275000Y-74295000D03*
%TD*%
D16*
%TO.C,C10*%
X119517000Y-133858000D03*
X117817000Y-133858000D03*
%TD*%
D25*
%TO.C,U2*%
X110490000Y-89535000D03*
D26*
X110490000Y-86995000D03*
X110490000Y-84455000D03*
X110490000Y-81915000D03*
X110490000Y-79375000D03*
X110490000Y-76835000D03*
X110490000Y-74295000D03*
X110490000Y-71755000D03*
X110490000Y-69215000D03*
X110490000Y-66675000D03*
X110490000Y-64135000D03*
X110490000Y-61595000D03*
X102870000Y-61595000D03*
X102870000Y-64135000D03*
X102870000Y-66675000D03*
X102870000Y-69215000D03*
X102870000Y-71755000D03*
X102870000Y-74295000D03*
X102870000Y-76835000D03*
X102870000Y-79375000D03*
X102870000Y-81915000D03*
X102870000Y-84455000D03*
X102870000Y-86995000D03*
X102870000Y-89535000D03*
%TD*%
D14*
%TO.C,C8*%
X97575000Y-69850000D03*
X99275000Y-69850000D03*
%TD*%
D27*
%TO.C,Q1*%
X188880000Y-61445000D03*
X188880000Y-63345000D03*
X190880000Y-62395000D03*
%TD*%
D14*
%TO.C,C7*%
X202653000Y-140335000D03*
X200953000Y-140335000D03*
%TD*%
D28*
%TO.C,D1*%
X215392000Y-85949000D03*
X215392000Y-84074000D03*
%TD*%
D19*
%TO.C,TP5*%
X154940000Y-74295000D03*
%TD*%
%TO.C,TP16*%
X86614000Y-96266000D03*
%TD*%
D29*
%TO.C,R13*%
X164338000Y-138835500D03*
X164338000Y-137135500D03*
%TD*%
D14*
%TO.C,R15*%
X141175000Y-138938000D03*
X142875000Y-138938000D03*
%TD*%
D19*
%TO.C,TP14*%
X207645000Y-64770000D03*
%TD*%
D14*
%TO.C,R12*%
X117602000Y-138938000D03*
X119302000Y-138938000D03*
%TD*%
D30*
%TO.C,SW6*%
X154845000Y-89207500D03*
X154845000Y-81207500D03*
X159345000Y-89207500D03*
X159345000Y-81207500D03*
%TD*%
D24*
%TO.C,R14*%
X186055000Y-63715000D03*
X186055000Y-62015000D03*
%TD*%
D19*
%TO.C,TP15*%
X86106000Y-90678000D03*
%TD*%
D16*
%TO.C,C11*%
X164338000Y-133120500D03*
X166038000Y-133120500D03*
%TD*%
D19*
%TO.C,TP10*%
X161290000Y-74295000D03*
%TD*%
D31*
%TO.C,U1*%
X85100000Y-78740000D03*
D26*
X87640000Y-78740000D03*
X90180000Y-78740000D03*
X92720000Y-78740000D03*
X92720000Y-71120000D03*
X90180000Y-71120000D03*
X87640000Y-71120000D03*
X85100000Y-71120000D03*
%TD*%
D24*
%TO.C,R1*%
X134327000Y-139153000D03*
X134327000Y-137453000D03*
%TD*%
D32*
%TO.C,Y1*%
X185615000Y-89535000D03*
X194115000Y-89535000D03*
%TD*%
D19*
%TO.C,TP4*%
X161290000Y-62865000D03*
%TD*%
%TO.C,BZ1*%
X196930000Y-64516000D03*
D33*
X201930000Y-64516000D03*
%TD*%
D24*
%TO.C,R8*%
X110490000Y-137238000D03*
X110490000Y-138938000D03*
%TD*%
%TO.C,R9*%
X158242000Y-137844000D03*
X158242000Y-136144000D03*
%TD*%
D15*
%TO.C,H2*%
X215000000Y-60000000D03*
%TD*%
D34*
%TO.C,SW2*%
X122492000Y-134148000D03*
X130492000Y-134148000D03*
X122492000Y-138648000D03*
X130492000Y-138648000D03*
%TD*%
D15*
%TO.C,H3*%
X85000000Y-140000000D03*
%TD*%
D19*
%TO.C,TP1*%
X181610000Y-72390000D03*
%TD*%
D14*
%TO.C,R11*%
X214630000Y-89535000D03*
X216330000Y-89535000D03*
%TD*%
D16*
%TO.C,C4*%
X195160000Y-93980000D03*
X193460000Y-93980000D03*
%TD*%
D14*
%TO.C,R16*%
X161075000Y-92192500D03*
X162775000Y-92192500D03*
%TD*%
D29*
%TO.C,C5*%
X181610000Y-89105000D03*
X181610000Y-90805000D03*
%TD*%
D14*
%TO.C,R4*%
X208065000Y-120650000D03*
X209765000Y-120650000D03*
%TD*%
D15*
%TO.C,H1*%
X85000000Y-60000000D03*
%TD*%
D34*
%TO.C,SW1*%
X169228000Y-134148000D03*
X177228000Y-134148000D03*
X169228000Y-138648000D03*
X177228000Y-138648000D03*
%TD*%
D19*
%TO.C,TP18*%
X104140000Y-109982000D03*
%TD*%
%TO.C,TP6*%
X147955000Y-74295000D03*
%TD*%
%TO.C,TP2*%
X214376000Y-128524000D03*
%TD*%
D16*
%TO.C,C13*%
X143090000Y-133858000D03*
X141390000Y-133858000D03*
%TD*%
D24*
%TO.C,R2*%
X180848000Y-136818000D03*
X180848000Y-138518000D03*
%TD*%
D19*
%TO.C,TP3*%
X154940000Y-62865000D03*
%TD*%
D14*
%TO.C,C3*%
X196000000Y-123190000D03*
X197700000Y-123190000D03*
%TD*%
D19*
%TO.C,TP13*%
X207645000Y-69215000D03*
%TD*%
D34*
%TO.C,SW3*%
X106870000Y-138648000D03*
X98870000Y-138648000D03*
X106870000Y-134148000D03*
X98870000Y-134148000D03*
%TD*%
D19*
%TO.C,TP17*%
X103886000Y-120650000D03*
%TD*%
D34*
%TO.C,SW4*%
X153860000Y-138648000D03*
X145860000Y-138648000D03*
X153860000Y-134148000D03*
X145860000Y-134148000D03*
%TD*%
D19*
%TO.C,TP11*%
X120015000Y-79756000D03*
%TD*%
%TO.C,TP8*%
X141605000Y-62865000D03*
%TD*%
D22*
%TO.C,U4*%
X165227000Y-78613000D03*
D23*
X167767000Y-78613000D03*
X170307000Y-78613000D03*
X172847000Y-78613000D03*
X175387000Y-78613000D03*
X175387000Y-63373000D03*
X172847000Y-63373000D03*
X170307000Y-63373000D03*
X167767000Y-63373000D03*
X165227000Y-63373000D03*
%TD*%
D16*
%TO.C,C1*%
X197065000Y-84035000D03*
X195365000Y-84035000D03*
%TD*%
D19*
%TO.C,TP19*%
X104140000Y-115316000D03*
%TD*%
D14*
%TO.C,R3*%
X208065000Y-116840000D03*
X209765000Y-116840000D03*
%TD*%
D35*
%TO.C,UI1*%
X200035000Y-73670000D03*
D26*
X200035000Y-76210000D03*
X200035000Y-78750000D03*
X200035000Y-81290000D03*
X200035000Y-83830000D03*
X200035000Y-86370000D03*
X200035000Y-88910000D03*
X200035000Y-91450000D03*
X200035000Y-93990000D03*
X200035000Y-96530000D03*
X200035000Y-99070000D03*
X200035000Y-101610000D03*
X200035000Y-104150000D03*
X200035000Y-106690000D03*
X207655000Y-106690000D03*
X207655000Y-104150000D03*
X207655000Y-101610000D03*
X207655000Y-99070000D03*
X207655000Y-96530000D03*
X207655000Y-93990000D03*
X207655000Y-91450000D03*
X207655000Y-88910000D03*
X207655000Y-86370000D03*
X207655000Y-83830000D03*
X207655000Y-81290000D03*
X207655000Y-78750000D03*
X207655000Y-76210000D03*
X207655000Y-73670000D03*
%TD*%
D14*
%TO.C,C9*%
X97575000Y-66040000D03*
X99275000Y-66040000D03*
%TD*%
D34*
%TO.C,SW5*%
X196025000Y-112685000D03*
X204025000Y-112685000D03*
X196025000Y-117185000D03*
X204025000Y-117185000D03*
%TD*%
D36*
%TO.C,DS1*%
X188880000Y-96520000D03*
X113880900Y-96520000D03*
X113880900Y-127520700D03*
X188879480Y-127520700D03*
D37*
X119380000Y-96520000D03*
D38*
X121920000Y-96520000D03*
X124460000Y-96520000D03*
X127000000Y-96520000D03*
X129540000Y-96520000D03*
X132080000Y-96520000D03*
X134620000Y-96520000D03*
X137160000Y-96520000D03*
X139700000Y-96520000D03*
X142240000Y-96520000D03*
X144780000Y-96520000D03*
X147320000Y-96520000D03*
X149860000Y-96520000D03*
X152400000Y-96520000D03*
X154940000Y-96520000D03*
X157480000Y-96520000D03*
%TD*%
D16*
%TO.C,R7*%
X90805000Y-67310000D03*
X89105000Y-67310000D03*
%TD*%
D39*
%TO.C,J1*%
X213360000Y-110490000D03*
D40*
X213360000Y-113030000D03*
X213360000Y-115570000D03*
X213360000Y-118110000D03*
X213360000Y-120650000D03*
X213360000Y-123190000D03*
%TD*%
D39*
%TO.C,J3*%
X215265000Y-95250000D03*
D40*
X212725000Y-95250000D03*
X215265000Y-97790000D03*
X212725000Y-97790000D03*
X215265000Y-100330000D03*
X212725000Y-100330000D03*
%TD*%
D19*
%TO.C,TP12*%
X214376000Y-132588000D03*
%TD*%
D36*
%TO.C,BT1*%
X95250000Y-122090000D03*
D41*
X95250000Y-101600000D03*
%TD*%
M02*
