%TF.GenerationSoftware,KiCad,Pcbnew,(6.0.5-0)*%
%TF.CreationDate,2022-07-21T14:42:38-04:00*%
%TF.ProjectId,Annahs_clock_hps,416e6e61-6873-45f6-936c-6f636b5f6870,rev?*%
%TF.SameCoordinates,PX4c4b400PY8a48640*%
%TF.FileFunction,Paste,Top*%
%TF.FilePolarity,Positive*%
%FSLAX46Y46*%
G04 Gerber Fmt 4.6, Leading zero omitted, Abs format (unit mm)*
G04 Created by KiCad (PCBNEW (6.0.5-0)) date 2022-07-21 14:42:38*
%MOMM*%
%LPD*%
G01*
G04 APERTURE LIST*
G04 Aperture macros list*
%AMRoundRect*
0 Rectangle with rounded corners*
0 $1 Rounding radius*
0 $2 $3 $4 $5 $6 $7 $8 $9 X,Y pos of 4 corners*
0 Add a 4 corners polygon primitive as box body*
4,1,4,$2,$3,$4,$5,$6,$7,$8,$9,$2,$3,0*
0 Add four circle primitives for the rounded corners*
1,1,$1+$1,$2,$3*
1,1,$1+$1,$4,$5*
1,1,$1+$1,$6,$7*
1,1,$1+$1,$8,$9*
0 Add four rect primitives between the rounded corners*
20,1,$1+$1,$2,$3,$4,$5,0*
20,1,$1+$1,$4,$5,$6,$7,0*
20,1,$1+$1,$6,$7,$8,$9,0*
20,1,$1+$1,$8,$9,$2,$3,0*%
G04 Aperture macros list end*
%ADD10R,1.150000X1.400000*%
%ADD11R,1.000000X1.800000*%
%ADD12R,3.050000X2.750000*%
%ADD13R,2.200000X1.200000*%
%ADD14R,1.400000X1.150000*%
%ADD15R,0.900000X0.800000*%
%ADD16RoundRect,0.243750X-0.456250X0.243750X-0.456250X-0.243750X0.456250X-0.243750X0.456250X0.243750X0*%
%ADD17R,1.400000X1.600000*%
%ADD18R,4.500000X2.000000*%
%ADD19R,1.600000X1.400000*%
G04 APERTURE END LIST*
D10*
%TO.C,C6*%
X121588000Y18000000D03*
X123288000Y18000000D03*
%TD*%
%TO.C,R6*%
X14830000Y77690000D03*
X13130000Y77690000D03*
%TD*%
D11*
%TO.C,Y2*%
X5110000Y61815000D03*
X7610000Y61815000D03*
%TD*%
D10*
%TO.C,R17*%
X73885000Y52925000D03*
X72185000Y52925000D03*
%TD*%
D12*
%TO.C,U3*%
X124133000Y12540000D03*
X124133000Y9490000D03*
X127483000Y12540000D03*
X127483000Y9490000D03*
D13*
X119508000Y13295000D03*
X119508000Y8735000D03*
%TD*%
D10*
%TO.C,R18*%
X110920000Y73880000D03*
X112620000Y73880000D03*
%TD*%
D14*
%TO.C,R5*%
X113040000Y27730000D03*
X113040000Y29430000D03*
%TD*%
D10*
%TO.C,C2*%
X131670000Y54000000D03*
X129970000Y54000000D03*
%TD*%
%TO.C,R10*%
X17575000Y70705000D03*
X19275000Y70705000D03*
%TD*%
%TO.C,C10*%
X39390000Y9745000D03*
X37690000Y9745000D03*
%TD*%
%TO.C,C8*%
X17575000Y75150000D03*
X19275000Y75150000D03*
%TD*%
D15*
%TO.C,Q1*%
X108880000Y83555000D03*
X108880000Y81655000D03*
X110880000Y82605000D03*
%TD*%
D10*
%TO.C,C7*%
X120953000Y4665000D03*
X122653000Y4665000D03*
%TD*%
D16*
%TO.C,D1*%
X136535000Y61150000D03*
X136535000Y59275000D03*
%TD*%
D14*
%TO.C,R13*%
X84465000Y5832500D03*
X84465000Y4132500D03*
%TD*%
D10*
%TO.C,R15*%
X61175000Y4030000D03*
X62875000Y4030000D03*
%TD*%
%TO.C,R12*%
X37475000Y4665000D03*
X39175000Y4665000D03*
%TD*%
D17*
%TO.C,SW6*%
X74845000Y63792500D03*
X74845000Y55792500D03*
X79345000Y63792500D03*
X79345000Y55792500D03*
%TD*%
D14*
%TO.C,R14*%
X106055000Y81285000D03*
X106055000Y82985000D03*
%TD*%
D10*
%TO.C,C11*%
X86165000Y9847500D03*
X84465000Y9847500D03*
%TD*%
D14*
%TO.C,R1*%
X54200000Y4450000D03*
X54200000Y6150000D03*
%TD*%
D18*
%TO.C,Y1*%
X105615000Y55465000D03*
X114115000Y55465000D03*
%TD*%
D14*
%TO.C,R8*%
X30490000Y4665000D03*
X30490000Y6365000D03*
%TD*%
%TO.C,R9*%
X77480000Y4362000D03*
X77480000Y6062000D03*
%TD*%
D19*
%TO.C,SW2*%
X50365000Y9455000D03*
X42365000Y9455000D03*
X50365000Y4955000D03*
X42365000Y4955000D03*
%TD*%
D10*
%TO.C,R11*%
X134630000Y55465000D03*
X136330000Y55465000D03*
%TD*%
%TO.C,C4*%
X115160000Y51020000D03*
X113460000Y51020000D03*
%TD*%
%TO.C,R16*%
X81075000Y52807500D03*
X82775000Y52807500D03*
%TD*%
D14*
%TO.C,C5*%
X101610000Y55895000D03*
X101610000Y54195000D03*
%TD*%
D10*
%TO.C,R4*%
X128065000Y24350000D03*
X129765000Y24350000D03*
%TD*%
D19*
%TO.C,SW1*%
X97355000Y8820000D03*
X89355000Y8820000D03*
X97355000Y4320000D03*
X89355000Y4320000D03*
%TD*%
D10*
%TO.C,C13*%
X63090000Y9110000D03*
X61390000Y9110000D03*
%TD*%
D14*
%TO.C,R2*%
X100975000Y4450000D03*
X100975000Y6150000D03*
%TD*%
D10*
%TO.C,C3*%
X116000000Y21810000D03*
X117700000Y21810000D03*
%TD*%
D19*
%TO.C,SW3*%
X26870000Y9455000D03*
X18870000Y9455000D03*
X26870000Y4955000D03*
X18870000Y4955000D03*
%TD*%
%TO.C,SW4*%
X73860000Y8820000D03*
X65860000Y8820000D03*
X73860000Y4320000D03*
X65860000Y4320000D03*
%TD*%
D10*
%TO.C,C1*%
X117065000Y60965000D03*
X115365000Y60965000D03*
%TD*%
%TO.C,R3*%
X128065000Y28160000D03*
X129765000Y28160000D03*
%TD*%
%TO.C,C9*%
X17575000Y78960000D03*
X19275000Y78960000D03*
%TD*%
D19*
%TO.C,SW5*%
X124025000Y32315000D03*
X116025000Y32315000D03*
X124025000Y27815000D03*
X116025000Y27815000D03*
%TD*%
D10*
%TO.C,R7*%
X10805000Y77690000D03*
X9105000Y77690000D03*
%TD*%
M02*
