%TF.GenerationSoftware,KiCad,Pcbnew,(6.0.5-0)*%
%TF.CreationDate,2022-07-17T22:17:14-04:00*%
%TF.ProjectId,Annahs_clock_hps,416e6e61-6873-45f6-936c-6f636b5f6870,rev?*%
%TF.SameCoordinates,Original*%
%TF.FileFunction,Legend,Top*%
%TF.FilePolarity,Positive*%
%FSLAX46Y46*%
G04 Gerber Fmt 4.6, Leading zero omitted, Abs format (unit mm)*
G04 Created by KiCad (PCBNEW (6.0.5-0)) date 2022-07-17 22:17:14*
%MOMM*%
%LPD*%
G01*
G04 APERTURE LIST*
G04 Aperture macros list*
%AMRoundRect*
0 Rectangle with rounded corners*
0 $1 Rounding radius*
0 $2 $3 $4 $5 $6 $7 $8 $9 X,Y pos of 4 corners*
0 Add a 4 corners polygon primitive as box body*
4,1,4,$2,$3,$4,$5,$6,$7,$8,$9,$2,$3,0*
0 Add four circle primitives for the rounded corners*
1,1,$1+$1,$2,$3*
1,1,$1+$1,$4,$5*
1,1,$1+$1,$6,$7*
1,1,$1+$1,$8,$9*
0 Add four rect primitives between the rounded corners*
20,1,$1+$1,$2,$3,$4,$5,0*
20,1,$1+$1,$4,$5,$6,$7,0*
20,1,$1+$1,$6,$7,$8,$9,0*
20,1,$1+$1,$8,$9,$2,$3,0*%
G04 Aperture macros list end*
%ADD10C,0.150000*%
%ADD11C,0.120000*%
%ADD12R,1.150000X1.400000*%
%ADD13C,3.200000*%
%ADD14C,1.440000*%
%ADD15R,1.000000X1.800000*%
%ADD16C,2.000000*%
%ADD17R,2.200000X1.200000*%
%ADD18R,6.400000X5.800000*%
%ADD19R,1.400000X1.150000*%
%ADD20R,1.700000X1.700000*%
%ADD21C,1.700000*%
%ADD22R,1.600000X1.600000*%
%ADD23O,1.600000X1.600000*%
%ADD24R,0.900000X0.800000*%
%ADD25RoundRect,0.243750X-0.456250X0.243750X-0.456250X-0.243750X0.456250X-0.243750X0.456250X0.243750X0*%
%ADD26R,1.400000X1.600000*%
%ADD27R,4.500000X2.000000*%
%ADD28R,2.000000X2.000000*%
%ADD29R,1.600000X1.400000*%
%ADD30C,3.000000*%
%ADD31R,1.800000X2.600000*%
%ADD32O,1.800000X2.600000*%
%ADD33RoundRect,0.500000X1.750000X0.500000X-1.750000X0.500000X-1.750000X-0.500000X1.750000X-0.500000X0*%
%ADD34RoundRect,0.500000X-0.500000X1.500000X-0.500000X-1.500000X0.500000X-1.500000X0.500000X1.500000X0*%
%ADD35O,1.700000X1.700000*%
%ADD36R,3.000000X3.000000*%
G04 APERTURE END LIST*
D10*
%TO.C,C6*%
X205148333Y-126087142D02*
X205100714Y-126134761D01*
X204957857Y-126182380D01*
X204862619Y-126182380D01*
X204719761Y-126134761D01*
X204624523Y-126039523D01*
X204576904Y-125944285D01*
X204529285Y-125753809D01*
X204529285Y-125610952D01*
X204576904Y-125420476D01*
X204624523Y-125325238D01*
X204719761Y-125230000D01*
X204862619Y-125182380D01*
X204957857Y-125182380D01*
X205100714Y-125230000D01*
X205148333Y-125277619D01*
X206005476Y-125182380D02*
X205815000Y-125182380D01*
X205719761Y-125230000D01*
X205672142Y-125277619D01*
X205576904Y-125420476D01*
X205529285Y-125610952D01*
X205529285Y-125991904D01*
X205576904Y-126087142D01*
X205624523Y-126134761D01*
X205719761Y-126182380D01*
X205910238Y-126182380D01*
X206005476Y-126134761D01*
X206053095Y-126087142D01*
X206100714Y-125991904D01*
X206100714Y-125753809D01*
X206053095Y-125658571D01*
X206005476Y-125610952D01*
X205910238Y-125563333D01*
X205719761Y-125563333D01*
X205624523Y-125610952D01*
X205576904Y-125658571D01*
X205529285Y-125753809D01*
%TO.C,H4*%
X203317380Y-144386904D02*
X202317380Y-144386904D01*
X202793571Y-144386904D02*
X202793571Y-143815476D01*
X203317380Y-143815476D02*
X202317380Y-143815476D01*
X202650714Y-142910714D02*
X203317380Y-142910714D01*
X202269761Y-143148809D02*
X202984047Y-143386904D01*
X202984047Y-142767857D01*
%TO.C,R6*%
X93813333Y-69412380D02*
X93480000Y-68936190D01*
X93241904Y-69412380D02*
X93241904Y-68412380D01*
X93622857Y-68412380D01*
X93718095Y-68460000D01*
X93765714Y-68507619D01*
X93813333Y-68602857D01*
X93813333Y-68745714D01*
X93765714Y-68840952D01*
X93718095Y-68888571D01*
X93622857Y-68936190D01*
X93241904Y-68936190D01*
X94670476Y-68412380D02*
X94480000Y-68412380D01*
X94384761Y-68460000D01*
X94337142Y-68507619D01*
X94241904Y-68650476D01*
X94194285Y-68840952D01*
X94194285Y-69221904D01*
X94241904Y-69317142D01*
X94289523Y-69364761D01*
X94384761Y-69412380D01*
X94575238Y-69412380D01*
X94670476Y-69364761D01*
X94718095Y-69317142D01*
X94765714Y-69221904D01*
X94765714Y-68983809D01*
X94718095Y-68888571D01*
X94670476Y-68840952D01*
X94575238Y-68793333D01*
X94384761Y-68793333D01*
X94289523Y-68840952D01*
X94241904Y-68888571D01*
X94194285Y-68983809D01*
%TO.C,RV1*%
X145054761Y-80279880D02*
X144721428Y-79803690D01*
X144483333Y-80279880D02*
X144483333Y-79279880D01*
X144864285Y-79279880D01*
X144959523Y-79327500D01*
X145007142Y-79375119D01*
X145054761Y-79470357D01*
X145054761Y-79613214D01*
X145007142Y-79708452D01*
X144959523Y-79756071D01*
X144864285Y-79803690D01*
X144483333Y-79803690D01*
X145340476Y-79279880D02*
X145673809Y-80279880D01*
X146007142Y-79279880D01*
X146864285Y-80279880D02*
X146292857Y-80279880D01*
X146578571Y-80279880D02*
X146578571Y-79279880D01*
X146483333Y-79422738D01*
X146388095Y-79517976D01*
X146292857Y-79565595D01*
%TO.C,Y2*%
X85883809Y-81211190D02*
X85883809Y-81687380D01*
X85550476Y-80687380D02*
X85883809Y-81211190D01*
X86217142Y-80687380D01*
X86502857Y-80782619D02*
X86550476Y-80735000D01*
X86645714Y-80687380D01*
X86883809Y-80687380D01*
X86979047Y-80735000D01*
X87026666Y-80782619D01*
X87074285Y-80877857D01*
X87074285Y-80973095D01*
X87026666Y-81115952D01*
X86455238Y-81687380D01*
X87074285Y-81687380D01*
%TO.C,TP9*%
X146693095Y-60319380D02*
X147264523Y-60319380D01*
X146978809Y-61319380D02*
X146978809Y-60319380D01*
X147597857Y-61319380D02*
X147597857Y-60319380D01*
X147978809Y-60319380D01*
X148074047Y-60367000D01*
X148121666Y-60414619D01*
X148169285Y-60509857D01*
X148169285Y-60652714D01*
X148121666Y-60747952D01*
X148074047Y-60795571D01*
X147978809Y-60843190D01*
X147597857Y-60843190D01*
X148645476Y-61319380D02*
X148835952Y-61319380D01*
X148931190Y-61271761D01*
X148978809Y-61224142D01*
X149074047Y-61081285D01*
X149121666Y-60890809D01*
X149121666Y-60509857D01*
X149074047Y-60414619D01*
X149026428Y-60367000D01*
X148931190Y-60319380D01*
X148740714Y-60319380D01*
X148645476Y-60367000D01*
X148597857Y-60414619D01*
X148550238Y-60509857D01*
X148550238Y-60747952D01*
X148597857Y-60843190D01*
X148645476Y-60890809D01*
X148740714Y-60938428D01*
X148931190Y-60938428D01*
X149026428Y-60890809D01*
X149074047Y-60843190D01*
X149121666Y-60747952D01*
%TO.C,R17*%
X156202142Y-92527380D02*
X155868809Y-92051190D01*
X155630714Y-92527380D02*
X155630714Y-91527380D01*
X156011666Y-91527380D01*
X156106904Y-91575000D01*
X156154523Y-91622619D01*
X156202142Y-91717857D01*
X156202142Y-91860714D01*
X156154523Y-91955952D01*
X156106904Y-92003571D01*
X156011666Y-92051190D01*
X155630714Y-92051190D01*
X157154523Y-92527380D02*
X156583095Y-92527380D01*
X156868809Y-92527380D02*
X156868809Y-91527380D01*
X156773571Y-91670238D01*
X156678333Y-91765476D01*
X156583095Y-91813095D01*
X157487857Y-91527380D02*
X158154523Y-91527380D01*
X157725952Y-92527380D01*
%TO.C,U3*%
X205823095Y-129317380D02*
X205823095Y-130126904D01*
X205870714Y-130222142D01*
X205918333Y-130269761D01*
X206013571Y-130317380D01*
X206204047Y-130317380D01*
X206299285Y-130269761D01*
X206346904Y-130222142D01*
X206394523Y-130126904D01*
X206394523Y-129317380D01*
X206775476Y-129317380D02*
X207394523Y-129317380D01*
X207061190Y-129698333D01*
X207204047Y-129698333D01*
X207299285Y-129745952D01*
X207346904Y-129793571D01*
X207394523Y-129888809D01*
X207394523Y-130126904D01*
X207346904Y-130222142D01*
X207299285Y-130269761D01*
X207204047Y-130317380D01*
X206918333Y-130317380D01*
X206823095Y-130269761D01*
X206775476Y-130222142D01*
%TO.C,R14*%
X184857380Y-63507857D02*
X184381190Y-63841190D01*
X184857380Y-64079285D02*
X183857380Y-64079285D01*
X183857380Y-63698333D01*
X183905000Y-63603095D01*
X183952619Y-63555476D01*
X184047857Y-63507857D01*
X184190714Y-63507857D01*
X184285952Y-63555476D01*
X184333571Y-63603095D01*
X184381190Y-63698333D01*
X184381190Y-64079285D01*
X184857380Y-62555476D02*
X184857380Y-63126904D01*
X184857380Y-62841190D02*
X183857380Y-62841190D01*
X184000238Y-62936428D01*
X184095476Y-63031666D01*
X184143095Y-63126904D01*
X184190714Y-61698333D02*
X184857380Y-61698333D01*
X183809761Y-61936428D02*
X184524047Y-62174523D01*
X184524047Y-61555476D01*
%TO.C,U5*%
X127635095Y-60285380D02*
X127635095Y-61094904D01*
X127682714Y-61190142D01*
X127730333Y-61237761D01*
X127825571Y-61285380D01*
X128016047Y-61285380D01*
X128111285Y-61237761D01*
X128158904Y-61190142D01*
X128206523Y-61094904D01*
X128206523Y-60285380D01*
X129158904Y-60285380D02*
X128682714Y-60285380D01*
X128635095Y-60761571D01*
X128682714Y-60713952D01*
X128777952Y-60666333D01*
X129016047Y-60666333D01*
X129111285Y-60713952D01*
X129158904Y-60761571D01*
X129206523Y-60856809D01*
X129206523Y-61094904D01*
X129158904Y-61190142D01*
X129111285Y-61237761D01*
X129016047Y-61285380D01*
X128777952Y-61285380D01*
X128682714Y-61237761D01*
X128635095Y-61190142D01*
%TO.C,TP7*%
X140978095Y-71749380D02*
X141549523Y-71749380D01*
X141263809Y-72749380D02*
X141263809Y-71749380D01*
X141882857Y-72749380D02*
X141882857Y-71749380D01*
X142263809Y-71749380D01*
X142359047Y-71797000D01*
X142406666Y-71844619D01*
X142454285Y-71939857D01*
X142454285Y-72082714D01*
X142406666Y-72177952D01*
X142359047Y-72225571D01*
X142263809Y-72273190D01*
X141882857Y-72273190D01*
X142787619Y-71749380D02*
X143454285Y-71749380D01*
X143025714Y-72749380D01*
%TO.C,R5*%
X193492380Y-119546666D02*
X193016190Y-119880000D01*
X193492380Y-120118095D02*
X192492380Y-120118095D01*
X192492380Y-119737142D01*
X192540000Y-119641904D01*
X192587619Y-119594285D01*
X192682857Y-119546666D01*
X192825714Y-119546666D01*
X192920952Y-119594285D01*
X192968571Y-119641904D01*
X193016190Y-119737142D01*
X193016190Y-120118095D01*
X192492380Y-118641904D02*
X192492380Y-119118095D01*
X192968571Y-119165714D01*
X192920952Y-119118095D01*
X192873333Y-119022857D01*
X192873333Y-118784761D01*
X192920952Y-118689523D01*
X192968571Y-118641904D01*
X193063809Y-118594285D01*
X193301904Y-118594285D01*
X193397142Y-118641904D01*
X193444761Y-118689523D01*
X193492380Y-118784761D01*
X193492380Y-119022857D01*
X193444761Y-119118095D01*
X193397142Y-119165714D01*
%TO.C,C2*%
X210653333Y-90147142D02*
X210605714Y-90194761D01*
X210462857Y-90242380D01*
X210367619Y-90242380D01*
X210224761Y-90194761D01*
X210129523Y-90099523D01*
X210081904Y-90004285D01*
X210034285Y-89813809D01*
X210034285Y-89670952D01*
X210081904Y-89480476D01*
X210129523Y-89385238D01*
X210224761Y-89290000D01*
X210367619Y-89242380D01*
X210462857Y-89242380D01*
X210605714Y-89290000D01*
X210653333Y-89337619D01*
X211034285Y-89337619D02*
X211081904Y-89290000D01*
X211177142Y-89242380D01*
X211415238Y-89242380D01*
X211510476Y-89290000D01*
X211558095Y-89337619D01*
X211605714Y-89432857D01*
X211605714Y-89528095D01*
X211558095Y-89670952D01*
X210986666Y-90242380D01*
X211605714Y-90242380D01*
%TO.C,R10*%
X97782142Y-73097380D02*
X97448809Y-72621190D01*
X97210714Y-73097380D02*
X97210714Y-72097380D01*
X97591666Y-72097380D01*
X97686904Y-72145000D01*
X97734523Y-72192619D01*
X97782142Y-72287857D01*
X97782142Y-72430714D01*
X97734523Y-72525952D01*
X97686904Y-72573571D01*
X97591666Y-72621190D01*
X97210714Y-72621190D01*
X98734523Y-73097380D02*
X98163095Y-73097380D01*
X98448809Y-73097380D02*
X98448809Y-72097380D01*
X98353571Y-72240238D01*
X98258333Y-72335476D01*
X98163095Y-72383095D01*
X99353571Y-72097380D02*
X99448809Y-72097380D01*
X99544047Y-72145000D01*
X99591666Y-72192619D01*
X99639285Y-72287857D01*
X99686904Y-72478333D01*
X99686904Y-72716428D01*
X99639285Y-72906904D01*
X99591666Y-73002142D01*
X99544047Y-73049761D01*
X99448809Y-73097380D01*
X99353571Y-73097380D01*
X99258333Y-73049761D01*
X99210714Y-73002142D01*
X99163095Y-72906904D01*
X99115476Y-72716428D01*
X99115476Y-72478333D01*
X99163095Y-72287857D01*
X99210714Y-72192619D01*
X99258333Y-72145000D01*
X99353571Y-72097380D01*
%TO.C,C10*%
X117897142Y-137262142D02*
X117849523Y-137309761D01*
X117706666Y-137357380D01*
X117611428Y-137357380D01*
X117468571Y-137309761D01*
X117373333Y-137214523D01*
X117325714Y-137119285D01*
X117278095Y-136928809D01*
X117278095Y-136785952D01*
X117325714Y-136595476D01*
X117373333Y-136500238D01*
X117468571Y-136405000D01*
X117611428Y-136357380D01*
X117706666Y-136357380D01*
X117849523Y-136405000D01*
X117897142Y-136452619D01*
X118849523Y-137357380D02*
X118278095Y-137357380D01*
X118563809Y-137357380D02*
X118563809Y-136357380D01*
X118468571Y-136500238D01*
X118373333Y-136595476D01*
X118278095Y-136643095D01*
X119468571Y-136357380D02*
X119563809Y-136357380D01*
X119659047Y-136405000D01*
X119706666Y-136452619D01*
X119754285Y-136547857D01*
X119801904Y-136738333D01*
X119801904Y-136976428D01*
X119754285Y-137166904D01*
X119706666Y-137262142D01*
X119659047Y-137309761D01*
X119563809Y-137357380D01*
X119468571Y-137357380D01*
X119373333Y-137309761D01*
X119325714Y-137262142D01*
X119278095Y-137166904D01*
X119230476Y-136976428D01*
X119230476Y-136738333D01*
X119278095Y-136547857D01*
X119325714Y-136452619D01*
X119373333Y-136405000D01*
X119468571Y-136357380D01*
%TO.C,U2*%
X105918095Y-91317380D02*
X105918095Y-92126904D01*
X105965714Y-92222142D01*
X106013333Y-92269761D01*
X106108571Y-92317380D01*
X106299047Y-92317380D01*
X106394285Y-92269761D01*
X106441904Y-92222142D01*
X106489523Y-92126904D01*
X106489523Y-91317380D01*
X106918095Y-91412619D02*
X106965714Y-91365000D01*
X107060952Y-91317380D01*
X107299047Y-91317380D01*
X107394285Y-91365000D01*
X107441904Y-91412619D01*
X107489523Y-91507857D01*
X107489523Y-91603095D01*
X107441904Y-91745952D01*
X106870476Y-92317380D01*
X107489523Y-92317380D01*
%TO.C,C8*%
X98258333Y-68557142D02*
X98210714Y-68604761D01*
X98067857Y-68652380D01*
X97972619Y-68652380D01*
X97829761Y-68604761D01*
X97734523Y-68509523D01*
X97686904Y-68414285D01*
X97639285Y-68223809D01*
X97639285Y-68080952D01*
X97686904Y-67890476D01*
X97734523Y-67795238D01*
X97829761Y-67700000D01*
X97972619Y-67652380D01*
X98067857Y-67652380D01*
X98210714Y-67700000D01*
X98258333Y-67747619D01*
X98829761Y-68080952D02*
X98734523Y-68033333D01*
X98686904Y-67985714D01*
X98639285Y-67890476D01*
X98639285Y-67842857D01*
X98686904Y-67747619D01*
X98734523Y-67700000D01*
X98829761Y-67652380D01*
X99020238Y-67652380D01*
X99115476Y-67700000D01*
X99163095Y-67747619D01*
X99210714Y-67842857D01*
X99210714Y-67890476D01*
X99163095Y-67985714D01*
X99115476Y-68033333D01*
X99020238Y-68080952D01*
X98829761Y-68080952D01*
X98734523Y-68128571D01*
X98686904Y-68176190D01*
X98639285Y-68271428D01*
X98639285Y-68461904D01*
X98686904Y-68557142D01*
X98734523Y-68604761D01*
X98829761Y-68652380D01*
X99020238Y-68652380D01*
X99115476Y-68604761D01*
X99163095Y-68557142D01*
X99210714Y-68461904D01*
X99210714Y-68271428D01*
X99163095Y-68176190D01*
X99115476Y-68128571D01*
X99020238Y-68080952D01*
%TO.C,Q1*%
X189784761Y-60442619D02*
X189689523Y-60395000D01*
X189594285Y-60299761D01*
X189451428Y-60156904D01*
X189356190Y-60109285D01*
X189260952Y-60109285D01*
X189308571Y-60347380D02*
X189213333Y-60299761D01*
X189118095Y-60204523D01*
X189070476Y-60014047D01*
X189070476Y-59680714D01*
X189118095Y-59490238D01*
X189213333Y-59395000D01*
X189308571Y-59347380D01*
X189499047Y-59347380D01*
X189594285Y-59395000D01*
X189689523Y-59490238D01*
X189737142Y-59680714D01*
X189737142Y-60014047D01*
X189689523Y-60204523D01*
X189594285Y-60299761D01*
X189499047Y-60347380D01*
X189308571Y-60347380D01*
X190689523Y-60347380D02*
X190118095Y-60347380D01*
X190403809Y-60347380D02*
X190403809Y-59347380D01*
X190308571Y-59490238D01*
X190213333Y-59585476D01*
X190118095Y-59633095D01*
%TO.C,C7*%
X204513333Y-139422142D02*
X204465714Y-139469761D01*
X204322857Y-139517380D01*
X204227619Y-139517380D01*
X204084761Y-139469761D01*
X203989523Y-139374523D01*
X203941904Y-139279285D01*
X203894285Y-139088809D01*
X203894285Y-138945952D01*
X203941904Y-138755476D01*
X203989523Y-138660238D01*
X204084761Y-138565000D01*
X204227619Y-138517380D01*
X204322857Y-138517380D01*
X204465714Y-138565000D01*
X204513333Y-138612619D01*
X204846666Y-138517380D02*
X205513333Y-138517380D01*
X205084761Y-139517380D01*
%TO.C,D1*%
X214447380Y-85828095D02*
X213447380Y-85828095D01*
X213447380Y-85590000D01*
X213495000Y-85447142D01*
X213590238Y-85351904D01*
X213685476Y-85304285D01*
X213875952Y-85256666D01*
X214018809Y-85256666D01*
X214209285Y-85304285D01*
X214304523Y-85351904D01*
X214399761Y-85447142D01*
X214447380Y-85590000D01*
X214447380Y-85828095D01*
X214447380Y-84304285D02*
X214447380Y-84875714D01*
X214447380Y-84590000D02*
X213447380Y-84590000D01*
X213590238Y-84685238D01*
X213685476Y-84780476D01*
X213733095Y-84875714D01*
%TO.C,TP5*%
X153678095Y-71749380D02*
X154249523Y-71749380D01*
X153963809Y-72749380D02*
X153963809Y-71749380D01*
X154582857Y-72749380D02*
X154582857Y-71749380D01*
X154963809Y-71749380D01*
X155059047Y-71797000D01*
X155106666Y-71844619D01*
X155154285Y-71939857D01*
X155154285Y-72082714D01*
X155106666Y-72177952D01*
X155059047Y-72225571D01*
X154963809Y-72273190D01*
X154582857Y-72273190D01*
X156059047Y-71749380D02*
X155582857Y-71749380D01*
X155535238Y-72225571D01*
X155582857Y-72177952D01*
X155678095Y-72130333D01*
X155916190Y-72130333D01*
X156011428Y-72177952D01*
X156059047Y-72225571D01*
X156106666Y-72320809D01*
X156106666Y-72558904D01*
X156059047Y-72654142D01*
X156011428Y-72701761D01*
X155916190Y-72749380D01*
X155678095Y-72749380D01*
X155582857Y-72701761D01*
X155535238Y-72654142D01*
%TO.C,R13*%
X166567380Y-140660357D02*
X166091190Y-140993690D01*
X166567380Y-141231785D02*
X165567380Y-141231785D01*
X165567380Y-140850833D01*
X165615000Y-140755595D01*
X165662619Y-140707976D01*
X165757857Y-140660357D01*
X165900714Y-140660357D01*
X165995952Y-140707976D01*
X166043571Y-140755595D01*
X166091190Y-140850833D01*
X166091190Y-141231785D01*
X166567380Y-139707976D02*
X166567380Y-140279404D01*
X166567380Y-139993690D02*
X165567380Y-139993690D01*
X165710238Y-140088928D01*
X165805476Y-140184166D01*
X165853095Y-140279404D01*
X165567380Y-139374642D02*
X165567380Y-138755595D01*
X165948333Y-139088928D01*
X165948333Y-138946071D01*
X165995952Y-138850833D01*
X166043571Y-138803214D01*
X166138809Y-138755595D01*
X166376904Y-138755595D01*
X166472142Y-138803214D01*
X166519761Y-138850833D01*
X166567380Y-138946071D01*
X166567380Y-139231785D01*
X166519761Y-139327023D01*
X166472142Y-139374642D01*
%TO.C,R15*%
X141382142Y-139772380D02*
X141048809Y-139296190D01*
X140810714Y-139772380D02*
X140810714Y-138772380D01*
X141191666Y-138772380D01*
X141286904Y-138820000D01*
X141334523Y-138867619D01*
X141382142Y-138962857D01*
X141382142Y-139105714D01*
X141334523Y-139200952D01*
X141286904Y-139248571D01*
X141191666Y-139296190D01*
X140810714Y-139296190D01*
X142334523Y-139772380D02*
X141763095Y-139772380D01*
X142048809Y-139772380D02*
X142048809Y-138772380D01*
X141953571Y-138915238D01*
X141858333Y-139010476D01*
X141763095Y-139058095D01*
X143239285Y-138772380D02*
X142763095Y-138772380D01*
X142715476Y-139248571D01*
X142763095Y-139200952D01*
X142858333Y-139153333D01*
X143096428Y-139153333D01*
X143191666Y-139200952D01*
X143239285Y-139248571D01*
X143286904Y-139343809D01*
X143286904Y-139581904D01*
X143239285Y-139677142D01*
X143191666Y-139724761D01*
X143096428Y-139772380D01*
X142858333Y-139772380D01*
X142763095Y-139724761D01*
X142715476Y-139677142D01*
%TO.C,TP14*%
X212177380Y-67143095D02*
X212177380Y-66571666D01*
X213177380Y-66857380D02*
X212177380Y-66857380D01*
X213177380Y-66238333D02*
X212177380Y-66238333D01*
X212177380Y-65857380D01*
X212225000Y-65762142D01*
X212272619Y-65714523D01*
X212367857Y-65666904D01*
X212510714Y-65666904D01*
X212605952Y-65714523D01*
X212653571Y-65762142D01*
X212701190Y-65857380D01*
X212701190Y-66238333D01*
X213177380Y-64714523D02*
X213177380Y-65285952D01*
X213177380Y-65000238D02*
X212177380Y-65000238D01*
X212320238Y-65095476D01*
X212415476Y-65190714D01*
X212463095Y-65285952D01*
X212510714Y-63857380D02*
X213177380Y-63857380D01*
X212129761Y-64095476D02*
X212844047Y-64333571D01*
X212844047Y-63714523D01*
%TO.C,R12*%
X117682142Y-139137380D02*
X117348809Y-138661190D01*
X117110714Y-139137380D02*
X117110714Y-138137380D01*
X117491666Y-138137380D01*
X117586904Y-138185000D01*
X117634523Y-138232619D01*
X117682142Y-138327857D01*
X117682142Y-138470714D01*
X117634523Y-138565952D01*
X117586904Y-138613571D01*
X117491666Y-138661190D01*
X117110714Y-138661190D01*
X118634523Y-139137380D02*
X118063095Y-139137380D01*
X118348809Y-139137380D02*
X118348809Y-138137380D01*
X118253571Y-138280238D01*
X118158333Y-138375476D01*
X118063095Y-138423095D01*
X119015476Y-138232619D02*
X119063095Y-138185000D01*
X119158333Y-138137380D01*
X119396428Y-138137380D01*
X119491666Y-138185000D01*
X119539285Y-138232619D01*
X119586904Y-138327857D01*
X119586904Y-138423095D01*
X119539285Y-138565952D01*
X118967857Y-139137380D01*
X119586904Y-139137380D01*
%TO.C,SW6*%
X153199761Y-86540833D02*
X153247380Y-86397976D01*
X153247380Y-86159880D01*
X153199761Y-86064642D01*
X153152142Y-86017023D01*
X153056904Y-85969404D01*
X152961666Y-85969404D01*
X152866428Y-86017023D01*
X152818809Y-86064642D01*
X152771190Y-86159880D01*
X152723571Y-86350357D01*
X152675952Y-86445595D01*
X152628333Y-86493214D01*
X152533095Y-86540833D01*
X152437857Y-86540833D01*
X152342619Y-86493214D01*
X152295000Y-86445595D01*
X152247380Y-86350357D01*
X152247380Y-86112261D01*
X152295000Y-85969404D01*
X152247380Y-85636071D02*
X153247380Y-85397976D01*
X152533095Y-85207500D01*
X153247380Y-85017023D01*
X152247380Y-84778928D01*
X152247380Y-83969404D02*
X152247380Y-84159880D01*
X152295000Y-84255119D01*
X152342619Y-84302738D01*
X152485476Y-84397976D01*
X152675952Y-84445595D01*
X153056904Y-84445595D01*
X153152142Y-84397976D01*
X153199761Y-84350357D01*
X153247380Y-84255119D01*
X153247380Y-84064642D01*
X153199761Y-83969404D01*
X153152142Y-83921785D01*
X153056904Y-83874166D01*
X152818809Y-83874166D01*
X152723571Y-83921785D01*
X152675952Y-83969404D01*
X152628333Y-84064642D01*
X152628333Y-84255119D01*
X152675952Y-84350357D01*
X152723571Y-84397976D01*
X152818809Y-84445595D01*
%TO.C,C11*%
X164672142Y-137159642D02*
X164624523Y-137207261D01*
X164481666Y-137254880D01*
X164386428Y-137254880D01*
X164243571Y-137207261D01*
X164148333Y-137112023D01*
X164100714Y-137016785D01*
X164053095Y-136826309D01*
X164053095Y-136683452D01*
X164100714Y-136492976D01*
X164148333Y-136397738D01*
X164243571Y-136302500D01*
X164386428Y-136254880D01*
X164481666Y-136254880D01*
X164624523Y-136302500D01*
X164672142Y-136350119D01*
X165624523Y-137254880D02*
X165053095Y-137254880D01*
X165338809Y-137254880D02*
X165338809Y-136254880D01*
X165243571Y-136397738D01*
X165148333Y-136492976D01*
X165053095Y-136540595D01*
X166576904Y-137254880D02*
X166005476Y-137254880D01*
X166291190Y-137254880D02*
X166291190Y-136254880D01*
X166195952Y-136397738D01*
X166100714Y-136492976D01*
X166005476Y-136540595D01*
%TO.C,TP10*%
X159551904Y-71749380D02*
X160123333Y-71749380D01*
X159837619Y-72749380D02*
X159837619Y-71749380D01*
X160456666Y-72749380D02*
X160456666Y-71749380D01*
X160837619Y-71749380D01*
X160932857Y-71797000D01*
X160980476Y-71844619D01*
X161028095Y-71939857D01*
X161028095Y-72082714D01*
X160980476Y-72177952D01*
X160932857Y-72225571D01*
X160837619Y-72273190D01*
X160456666Y-72273190D01*
X161980476Y-72749380D02*
X161409047Y-72749380D01*
X161694761Y-72749380D02*
X161694761Y-71749380D01*
X161599523Y-71892238D01*
X161504285Y-71987476D01*
X161409047Y-72035095D01*
X162599523Y-71749380D02*
X162694761Y-71749380D01*
X162790000Y-71797000D01*
X162837619Y-71844619D01*
X162885238Y-71939857D01*
X162932857Y-72130333D01*
X162932857Y-72368428D01*
X162885238Y-72558904D01*
X162837619Y-72654142D01*
X162790000Y-72701761D01*
X162694761Y-72749380D01*
X162599523Y-72749380D01*
X162504285Y-72701761D01*
X162456666Y-72654142D01*
X162409047Y-72558904D01*
X162361428Y-72368428D01*
X162361428Y-72130333D01*
X162409047Y-71939857D01*
X162456666Y-71844619D01*
X162504285Y-71797000D01*
X162599523Y-71749380D01*
%TO.C,U1*%
X82222380Y-75691904D02*
X83031904Y-75691904D01*
X83127142Y-75644285D01*
X83174761Y-75596666D01*
X83222380Y-75501428D01*
X83222380Y-75310952D01*
X83174761Y-75215714D01*
X83127142Y-75168095D01*
X83031904Y-75120476D01*
X82222380Y-75120476D01*
X83222380Y-74120476D02*
X83222380Y-74691904D01*
X83222380Y-74406190D02*
X82222380Y-74406190D01*
X82365238Y-74501428D01*
X82460476Y-74596666D01*
X82508095Y-74691904D01*
%TO.C,R1*%
X133002380Y-139866666D02*
X132526190Y-140200000D01*
X133002380Y-140438095D02*
X132002380Y-140438095D01*
X132002380Y-140057142D01*
X132050000Y-139961904D01*
X132097619Y-139914285D01*
X132192857Y-139866666D01*
X132335714Y-139866666D01*
X132430952Y-139914285D01*
X132478571Y-139961904D01*
X132526190Y-140057142D01*
X132526190Y-140438095D01*
X133002380Y-138914285D02*
X133002380Y-139485714D01*
X133002380Y-139200000D02*
X132002380Y-139200000D01*
X132145238Y-139295238D01*
X132240476Y-139390476D01*
X132288095Y-139485714D01*
%TO.C,Y1*%
X189388809Y-85961190D02*
X189388809Y-86437380D01*
X189055476Y-85437380D02*
X189388809Y-85961190D01*
X189722142Y-85437380D01*
X190579285Y-86437380D02*
X190007857Y-86437380D01*
X190293571Y-86437380D02*
X190293571Y-85437380D01*
X190198333Y-85580238D01*
X190103095Y-85675476D01*
X190007857Y-85723095D01*
%TO.C,TP4*%
X160028095Y-60319380D02*
X160599523Y-60319380D01*
X160313809Y-61319380D02*
X160313809Y-60319380D01*
X160932857Y-61319380D02*
X160932857Y-60319380D01*
X161313809Y-60319380D01*
X161409047Y-60367000D01*
X161456666Y-60414619D01*
X161504285Y-60509857D01*
X161504285Y-60652714D01*
X161456666Y-60747952D01*
X161409047Y-60795571D01*
X161313809Y-60843190D01*
X160932857Y-60843190D01*
X162361428Y-60652714D02*
X162361428Y-61319380D01*
X162123333Y-60271761D02*
X161885238Y-60986047D01*
X162504285Y-60986047D01*
%TO.C,BZ1*%
X198549047Y-71233571D02*
X198691904Y-71281190D01*
X198739523Y-71328809D01*
X198787142Y-71424047D01*
X198787142Y-71566904D01*
X198739523Y-71662142D01*
X198691904Y-71709761D01*
X198596666Y-71757380D01*
X198215714Y-71757380D01*
X198215714Y-70757380D01*
X198549047Y-70757380D01*
X198644285Y-70805000D01*
X198691904Y-70852619D01*
X198739523Y-70947857D01*
X198739523Y-71043095D01*
X198691904Y-71138333D01*
X198644285Y-71185952D01*
X198549047Y-71233571D01*
X198215714Y-71233571D01*
X199120476Y-70757380D02*
X199787142Y-70757380D01*
X199120476Y-71757380D01*
X199787142Y-71757380D01*
X200691904Y-71757380D02*
X200120476Y-71757380D01*
X200406190Y-71757380D02*
X200406190Y-70757380D01*
X200310952Y-70900238D01*
X200215714Y-70995476D01*
X200120476Y-71043095D01*
%TO.C,R8*%
X109292380Y-139651666D02*
X108816190Y-139985000D01*
X109292380Y-140223095D02*
X108292380Y-140223095D01*
X108292380Y-139842142D01*
X108340000Y-139746904D01*
X108387619Y-139699285D01*
X108482857Y-139651666D01*
X108625714Y-139651666D01*
X108720952Y-139699285D01*
X108768571Y-139746904D01*
X108816190Y-139842142D01*
X108816190Y-140223095D01*
X108720952Y-139080238D02*
X108673333Y-139175476D01*
X108625714Y-139223095D01*
X108530476Y-139270714D01*
X108482857Y-139270714D01*
X108387619Y-139223095D01*
X108340000Y-139175476D01*
X108292380Y-139080238D01*
X108292380Y-138889761D01*
X108340000Y-138794523D01*
X108387619Y-138746904D01*
X108482857Y-138699285D01*
X108530476Y-138699285D01*
X108625714Y-138746904D01*
X108673333Y-138794523D01*
X108720952Y-138889761D01*
X108720952Y-139080238D01*
X108768571Y-139175476D01*
X108816190Y-139223095D01*
X108911428Y-139270714D01*
X109101904Y-139270714D01*
X109197142Y-139223095D01*
X109244761Y-139175476D01*
X109292380Y-139080238D01*
X109292380Y-138889761D01*
X109244761Y-138794523D01*
X109197142Y-138746904D01*
X109101904Y-138699285D01*
X108911428Y-138699285D01*
X108816190Y-138746904D01*
X108768571Y-138794523D01*
X108720952Y-138889761D01*
%TO.C,R9*%
X157313333Y-139772380D02*
X156980000Y-139296190D01*
X156741904Y-139772380D02*
X156741904Y-138772380D01*
X157122857Y-138772380D01*
X157218095Y-138820000D01*
X157265714Y-138867619D01*
X157313333Y-138962857D01*
X157313333Y-139105714D01*
X157265714Y-139200952D01*
X157218095Y-139248571D01*
X157122857Y-139296190D01*
X156741904Y-139296190D01*
X157789523Y-139772380D02*
X157980000Y-139772380D01*
X158075238Y-139724761D01*
X158122857Y-139677142D01*
X158218095Y-139534285D01*
X158265714Y-139343809D01*
X158265714Y-138962857D01*
X158218095Y-138867619D01*
X158170476Y-138820000D01*
X158075238Y-138772380D01*
X157884761Y-138772380D01*
X157789523Y-138820000D01*
X157741904Y-138867619D01*
X157694285Y-138962857D01*
X157694285Y-139200952D01*
X157741904Y-139296190D01*
X157789523Y-139343809D01*
X157884761Y-139391428D01*
X158075238Y-139391428D01*
X158170476Y-139343809D01*
X158218095Y-139296190D01*
X158265714Y-139200952D01*
%TO.C,H2*%
X214238095Y-56252380D02*
X214238095Y-55252380D01*
X214238095Y-55728571D02*
X214809523Y-55728571D01*
X214809523Y-56252380D02*
X214809523Y-55252380D01*
X215238095Y-55347619D02*
X215285714Y-55300000D01*
X215380952Y-55252380D01*
X215619047Y-55252380D01*
X215714285Y-55300000D01*
X215761904Y-55347619D01*
X215809523Y-55442857D01*
X215809523Y-55538095D01*
X215761904Y-55680952D01*
X215190476Y-56252380D01*
X215809523Y-56252380D01*
%TO.C,SW2*%
X125031666Y-133899761D02*
X125174523Y-133947380D01*
X125412619Y-133947380D01*
X125507857Y-133899761D01*
X125555476Y-133852142D01*
X125603095Y-133756904D01*
X125603095Y-133661666D01*
X125555476Y-133566428D01*
X125507857Y-133518809D01*
X125412619Y-133471190D01*
X125222142Y-133423571D01*
X125126904Y-133375952D01*
X125079285Y-133328333D01*
X125031666Y-133233095D01*
X125031666Y-133137857D01*
X125079285Y-133042619D01*
X125126904Y-132995000D01*
X125222142Y-132947380D01*
X125460238Y-132947380D01*
X125603095Y-132995000D01*
X125936428Y-132947380D02*
X126174523Y-133947380D01*
X126365000Y-133233095D01*
X126555476Y-133947380D01*
X126793571Y-132947380D01*
X127126904Y-133042619D02*
X127174523Y-132995000D01*
X127269761Y-132947380D01*
X127507857Y-132947380D01*
X127603095Y-132995000D01*
X127650714Y-133042619D01*
X127698333Y-133137857D01*
X127698333Y-133233095D01*
X127650714Y-133375952D01*
X127079285Y-133947380D01*
X127698333Y-133947380D01*
%TO.C,H3*%
X84238095Y-136252380D02*
X84238095Y-135252380D01*
X84238095Y-135728571D02*
X84809523Y-135728571D01*
X84809523Y-136252380D02*
X84809523Y-135252380D01*
X85190476Y-135252380D02*
X85809523Y-135252380D01*
X85476190Y-135633333D01*
X85619047Y-135633333D01*
X85714285Y-135680952D01*
X85761904Y-135728571D01*
X85809523Y-135823809D01*
X85809523Y-136061904D01*
X85761904Y-136157142D01*
X85714285Y-136204761D01*
X85619047Y-136252380D01*
X85333333Y-136252380D01*
X85238095Y-136204761D01*
X85190476Y-136157142D01*
%TO.C,TP1*%
X180348095Y-69844380D02*
X180919523Y-69844380D01*
X180633809Y-70844380D02*
X180633809Y-69844380D01*
X181252857Y-70844380D02*
X181252857Y-69844380D01*
X181633809Y-69844380D01*
X181729047Y-69892000D01*
X181776666Y-69939619D01*
X181824285Y-70034857D01*
X181824285Y-70177714D01*
X181776666Y-70272952D01*
X181729047Y-70320571D01*
X181633809Y-70368190D01*
X181252857Y-70368190D01*
X182776666Y-70844380D02*
X182205238Y-70844380D01*
X182490952Y-70844380D02*
X182490952Y-69844380D01*
X182395714Y-69987238D01*
X182300476Y-70082476D01*
X182205238Y-70130095D01*
%TO.C,R11*%
X212082142Y-88082380D02*
X211748809Y-87606190D01*
X211510714Y-88082380D02*
X211510714Y-87082380D01*
X211891666Y-87082380D01*
X211986904Y-87130000D01*
X212034523Y-87177619D01*
X212082142Y-87272857D01*
X212082142Y-87415714D01*
X212034523Y-87510952D01*
X211986904Y-87558571D01*
X211891666Y-87606190D01*
X211510714Y-87606190D01*
X213034523Y-88082380D02*
X212463095Y-88082380D01*
X212748809Y-88082380D02*
X212748809Y-87082380D01*
X212653571Y-87225238D01*
X212558333Y-87320476D01*
X212463095Y-87368095D01*
X213986904Y-88082380D02*
X213415476Y-88082380D01*
X213701190Y-88082380D02*
X213701190Y-87082380D01*
X213605952Y-87225238D01*
X213510714Y-87320476D01*
X213415476Y-87368095D01*
%TO.C,C4*%
X194143333Y-95987142D02*
X194095714Y-96034761D01*
X193952857Y-96082380D01*
X193857619Y-96082380D01*
X193714761Y-96034761D01*
X193619523Y-95939523D01*
X193571904Y-95844285D01*
X193524285Y-95653809D01*
X193524285Y-95510952D01*
X193571904Y-95320476D01*
X193619523Y-95225238D01*
X193714761Y-95130000D01*
X193857619Y-95082380D01*
X193952857Y-95082380D01*
X194095714Y-95130000D01*
X194143333Y-95177619D01*
X195000476Y-95415714D02*
X195000476Y-96082380D01*
X194762380Y-95034761D02*
X194524285Y-95749047D01*
X195143333Y-95749047D01*
%TO.C,R16*%
X161282142Y-90994880D02*
X160948809Y-90518690D01*
X160710714Y-90994880D02*
X160710714Y-89994880D01*
X161091666Y-89994880D01*
X161186904Y-90042500D01*
X161234523Y-90090119D01*
X161282142Y-90185357D01*
X161282142Y-90328214D01*
X161234523Y-90423452D01*
X161186904Y-90471071D01*
X161091666Y-90518690D01*
X160710714Y-90518690D01*
X162234523Y-90994880D02*
X161663095Y-90994880D01*
X161948809Y-90994880D02*
X161948809Y-89994880D01*
X161853571Y-90137738D01*
X161758333Y-90232976D01*
X161663095Y-90280595D01*
X163091666Y-89994880D02*
X162901190Y-89994880D01*
X162805952Y-90042500D01*
X162758333Y-90090119D01*
X162663095Y-90232976D01*
X162615476Y-90423452D01*
X162615476Y-90804404D01*
X162663095Y-90899642D01*
X162710714Y-90947261D01*
X162805952Y-90994880D01*
X162996428Y-90994880D01*
X163091666Y-90947261D01*
X163139285Y-90899642D01*
X163186904Y-90804404D01*
X163186904Y-90566309D01*
X163139285Y-90471071D01*
X163091666Y-90423452D01*
X162996428Y-90375833D01*
X162805952Y-90375833D01*
X162710714Y-90423452D01*
X162663095Y-90471071D01*
X162615476Y-90566309D01*
%TO.C,C5*%
X177522142Y-90121666D02*
X177569761Y-90169285D01*
X177617380Y-90312142D01*
X177617380Y-90407380D01*
X177569761Y-90550238D01*
X177474523Y-90645476D01*
X177379285Y-90693095D01*
X177188809Y-90740714D01*
X177045952Y-90740714D01*
X176855476Y-90693095D01*
X176760238Y-90645476D01*
X176665000Y-90550238D01*
X176617380Y-90407380D01*
X176617380Y-90312142D01*
X176665000Y-90169285D01*
X176712619Y-90121666D01*
X176617380Y-89216904D02*
X176617380Y-89693095D01*
X177093571Y-89740714D01*
X177045952Y-89693095D01*
X176998333Y-89597857D01*
X176998333Y-89359761D01*
X177045952Y-89264523D01*
X177093571Y-89216904D01*
X177188809Y-89169285D01*
X177426904Y-89169285D01*
X177522142Y-89216904D01*
X177569761Y-89264523D01*
X177617380Y-89359761D01*
X177617380Y-89597857D01*
X177569761Y-89693095D01*
X177522142Y-89740714D01*
%TO.C,R4*%
X208748333Y-119452380D02*
X208415000Y-118976190D01*
X208176904Y-119452380D02*
X208176904Y-118452380D01*
X208557857Y-118452380D01*
X208653095Y-118500000D01*
X208700714Y-118547619D01*
X208748333Y-118642857D01*
X208748333Y-118785714D01*
X208700714Y-118880952D01*
X208653095Y-118928571D01*
X208557857Y-118976190D01*
X208176904Y-118976190D01*
X209605476Y-118785714D02*
X209605476Y-119452380D01*
X209367380Y-118404761D02*
X209129285Y-119119047D01*
X209748333Y-119119047D01*
%TO.C,H1*%
X84238095Y-56252380D02*
X84238095Y-55252380D01*
X84238095Y-55728571D02*
X84809523Y-55728571D01*
X84809523Y-56252380D02*
X84809523Y-55252380D01*
X85809523Y-56252380D02*
X85238095Y-56252380D01*
X85523809Y-56252380D02*
X85523809Y-55252380D01*
X85428571Y-55395238D01*
X85333333Y-55490476D01*
X85238095Y-55538095D01*
%TO.C,SW1*%
X172021666Y-134534761D02*
X172164523Y-134582380D01*
X172402619Y-134582380D01*
X172497857Y-134534761D01*
X172545476Y-134487142D01*
X172593095Y-134391904D01*
X172593095Y-134296666D01*
X172545476Y-134201428D01*
X172497857Y-134153809D01*
X172402619Y-134106190D01*
X172212142Y-134058571D01*
X172116904Y-134010952D01*
X172069285Y-133963333D01*
X172021666Y-133868095D01*
X172021666Y-133772857D01*
X172069285Y-133677619D01*
X172116904Y-133630000D01*
X172212142Y-133582380D01*
X172450238Y-133582380D01*
X172593095Y-133630000D01*
X172926428Y-133582380D02*
X173164523Y-134582380D01*
X173355000Y-133868095D01*
X173545476Y-134582380D01*
X173783571Y-133582380D01*
X174688333Y-134582380D02*
X174116904Y-134582380D01*
X174402619Y-134582380D02*
X174402619Y-133582380D01*
X174307380Y-133725238D01*
X174212142Y-133820476D01*
X174116904Y-133868095D01*
%TO.C,TP6*%
X146693095Y-71749380D02*
X147264523Y-71749380D01*
X146978809Y-72749380D02*
X146978809Y-71749380D01*
X147597857Y-72749380D02*
X147597857Y-71749380D01*
X147978809Y-71749380D01*
X148074047Y-71797000D01*
X148121666Y-71844619D01*
X148169285Y-71939857D01*
X148169285Y-72082714D01*
X148121666Y-72177952D01*
X148074047Y-72225571D01*
X147978809Y-72273190D01*
X147597857Y-72273190D01*
X149026428Y-71749380D02*
X148835952Y-71749380D01*
X148740714Y-71797000D01*
X148693095Y-71844619D01*
X148597857Y-71987476D01*
X148550238Y-72177952D01*
X148550238Y-72558904D01*
X148597857Y-72654142D01*
X148645476Y-72701761D01*
X148740714Y-72749380D01*
X148931190Y-72749380D01*
X149026428Y-72701761D01*
X149074047Y-72654142D01*
X149121666Y-72558904D01*
X149121666Y-72320809D01*
X149074047Y-72225571D01*
X149026428Y-72177952D01*
X148931190Y-72130333D01*
X148740714Y-72130333D01*
X148645476Y-72177952D01*
X148597857Y-72225571D01*
X148550238Y-72320809D01*
%TO.C,TP2*%
X214003095Y-126359380D02*
X214574523Y-126359380D01*
X214288809Y-127359380D02*
X214288809Y-126359380D01*
X214907857Y-127359380D02*
X214907857Y-126359380D01*
X215288809Y-126359380D01*
X215384047Y-126407000D01*
X215431666Y-126454619D01*
X215479285Y-126549857D01*
X215479285Y-126692714D01*
X215431666Y-126787952D01*
X215384047Y-126835571D01*
X215288809Y-126883190D01*
X214907857Y-126883190D01*
X215860238Y-126454619D02*
X215907857Y-126407000D01*
X216003095Y-126359380D01*
X216241190Y-126359380D01*
X216336428Y-126407000D01*
X216384047Y-126454619D01*
X216431666Y-126549857D01*
X216431666Y-126645095D01*
X216384047Y-126787952D01*
X215812619Y-127359380D01*
X216431666Y-127359380D01*
%TO.C,C13*%
X141597142Y-137897142D02*
X141549523Y-137944761D01*
X141406666Y-137992380D01*
X141311428Y-137992380D01*
X141168571Y-137944761D01*
X141073333Y-137849523D01*
X141025714Y-137754285D01*
X140978095Y-137563809D01*
X140978095Y-137420952D01*
X141025714Y-137230476D01*
X141073333Y-137135238D01*
X141168571Y-137040000D01*
X141311428Y-136992380D01*
X141406666Y-136992380D01*
X141549523Y-137040000D01*
X141597142Y-137087619D01*
X142549523Y-137992380D02*
X141978095Y-137992380D01*
X142263809Y-137992380D02*
X142263809Y-136992380D01*
X142168571Y-137135238D01*
X142073333Y-137230476D01*
X141978095Y-137278095D01*
X142882857Y-136992380D02*
X143501904Y-136992380D01*
X143168571Y-137373333D01*
X143311428Y-137373333D01*
X143406666Y-137420952D01*
X143454285Y-137468571D01*
X143501904Y-137563809D01*
X143501904Y-137801904D01*
X143454285Y-137897142D01*
X143406666Y-137944761D01*
X143311428Y-137992380D01*
X143025714Y-137992380D01*
X142930476Y-137944761D01*
X142882857Y-137897142D01*
%TO.C,R2*%
X179777380Y-139866666D02*
X179301190Y-140200000D01*
X179777380Y-140438095D02*
X178777380Y-140438095D01*
X178777380Y-140057142D01*
X178825000Y-139961904D01*
X178872619Y-139914285D01*
X178967857Y-139866666D01*
X179110714Y-139866666D01*
X179205952Y-139914285D01*
X179253571Y-139961904D01*
X179301190Y-140057142D01*
X179301190Y-140438095D01*
X178872619Y-139485714D02*
X178825000Y-139438095D01*
X178777380Y-139342857D01*
X178777380Y-139104761D01*
X178825000Y-139009523D01*
X178872619Y-138961904D01*
X178967857Y-138914285D01*
X179063095Y-138914285D01*
X179205952Y-138961904D01*
X179777380Y-139533333D01*
X179777380Y-138914285D01*
%TO.C,TP3*%
X153678095Y-60319380D02*
X154249523Y-60319380D01*
X153963809Y-61319380D02*
X153963809Y-60319380D01*
X154582857Y-61319380D02*
X154582857Y-60319380D01*
X154963809Y-60319380D01*
X155059047Y-60367000D01*
X155106666Y-60414619D01*
X155154285Y-60509857D01*
X155154285Y-60652714D01*
X155106666Y-60747952D01*
X155059047Y-60795571D01*
X154963809Y-60843190D01*
X154582857Y-60843190D01*
X155487619Y-60319380D02*
X156106666Y-60319380D01*
X155773333Y-60700333D01*
X155916190Y-60700333D01*
X156011428Y-60747952D01*
X156059047Y-60795571D01*
X156106666Y-60890809D01*
X156106666Y-61128904D01*
X156059047Y-61224142D01*
X156011428Y-61271761D01*
X155916190Y-61319380D01*
X155630476Y-61319380D01*
X155535238Y-61271761D01*
X155487619Y-61224142D01*
%TO.C,C3*%
X196683333Y-121897142D02*
X196635714Y-121944761D01*
X196492857Y-121992380D01*
X196397619Y-121992380D01*
X196254761Y-121944761D01*
X196159523Y-121849523D01*
X196111904Y-121754285D01*
X196064285Y-121563809D01*
X196064285Y-121420952D01*
X196111904Y-121230476D01*
X196159523Y-121135238D01*
X196254761Y-121040000D01*
X196397619Y-120992380D01*
X196492857Y-120992380D01*
X196635714Y-121040000D01*
X196683333Y-121087619D01*
X197016666Y-120992380D02*
X197635714Y-120992380D01*
X197302380Y-121373333D01*
X197445238Y-121373333D01*
X197540476Y-121420952D01*
X197588095Y-121468571D01*
X197635714Y-121563809D01*
X197635714Y-121801904D01*
X197588095Y-121897142D01*
X197540476Y-121944761D01*
X197445238Y-121992380D01*
X197159523Y-121992380D01*
X197064285Y-121944761D01*
X197016666Y-121897142D01*
%TO.C,TP13*%
X212177380Y-71588095D02*
X212177380Y-71016666D01*
X213177380Y-71302380D02*
X212177380Y-71302380D01*
X213177380Y-70683333D02*
X212177380Y-70683333D01*
X212177380Y-70302380D01*
X212225000Y-70207142D01*
X212272619Y-70159523D01*
X212367857Y-70111904D01*
X212510714Y-70111904D01*
X212605952Y-70159523D01*
X212653571Y-70207142D01*
X212701190Y-70302380D01*
X212701190Y-70683333D01*
X213177380Y-69159523D02*
X213177380Y-69730952D01*
X213177380Y-69445238D02*
X212177380Y-69445238D01*
X212320238Y-69540476D01*
X212415476Y-69635714D01*
X212463095Y-69730952D01*
X212177380Y-68826190D02*
X212177380Y-68207142D01*
X212558333Y-68540476D01*
X212558333Y-68397619D01*
X212605952Y-68302380D01*
X212653571Y-68254761D01*
X212748809Y-68207142D01*
X212986904Y-68207142D01*
X213082142Y-68254761D01*
X213129761Y-68302380D01*
X213177380Y-68397619D01*
X213177380Y-68683333D01*
X213129761Y-68778571D01*
X213082142Y-68826190D01*
%TO.C,SW3*%
X101536666Y-133899761D02*
X101679523Y-133947380D01*
X101917619Y-133947380D01*
X102012857Y-133899761D01*
X102060476Y-133852142D01*
X102108095Y-133756904D01*
X102108095Y-133661666D01*
X102060476Y-133566428D01*
X102012857Y-133518809D01*
X101917619Y-133471190D01*
X101727142Y-133423571D01*
X101631904Y-133375952D01*
X101584285Y-133328333D01*
X101536666Y-133233095D01*
X101536666Y-133137857D01*
X101584285Y-133042619D01*
X101631904Y-132995000D01*
X101727142Y-132947380D01*
X101965238Y-132947380D01*
X102108095Y-132995000D01*
X102441428Y-132947380D02*
X102679523Y-133947380D01*
X102870000Y-133233095D01*
X103060476Y-133947380D01*
X103298571Y-132947380D01*
X103584285Y-132947380D02*
X104203333Y-132947380D01*
X103870000Y-133328333D01*
X104012857Y-133328333D01*
X104108095Y-133375952D01*
X104155714Y-133423571D01*
X104203333Y-133518809D01*
X104203333Y-133756904D01*
X104155714Y-133852142D01*
X104108095Y-133899761D01*
X104012857Y-133947380D01*
X103727142Y-133947380D01*
X103631904Y-133899761D01*
X103584285Y-133852142D01*
%TO.C,SW4*%
X148526666Y-134534761D02*
X148669523Y-134582380D01*
X148907619Y-134582380D01*
X149002857Y-134534761D01*
X149050476Y-134487142D01*
X149098095Y-134391904D01*
X149098095Y-134296666D01*
X149050476Y-134201428D01*
X149002857Y-134153809D01*
X148907619Y-134106190D01*
X148717142Y-134058571D01*
X148621904Y-134010952D01*
X148574285Y-133963333D01*
X148526666Y-133868095D01*
X148526666Y-133772857D01*
X148574285Y-133677619D01*
X148621904Y-133630000D01*
X148717142Y-133582380D01*
X148955238Y-133582380D01*
X149098095Y-133630000D01*
X149431428Y-133582380D02*
X149669523Y-134582380D01*
X149860000Y-133868095D01*
X150050476Y-134582380D01*
X150288571Y-133582380D01*
X151098095Y-133915714D02*
X151098095Y-134582380D01*
X150860000Y-133534761D02*
X150621904Y-134249047D01*
X151240952Y-134249047D01*
%TO.C,TP11*%
X118276904Y-71114380D02*
X118848333Y-71114380D01*
X118562619Y-72114380D02*
X118562619Y-71114380D01*
X119181666Y-72114380D02*
X119181666Y-71114380D01*
X119562619Y-71114380D01*
X119657857Y-71162000D01*
X119705476Y-71209619D01*
X119753095Y-71304857D01*
X119753095Y-71447714D01*
X119705476Y-71542952D01*
X119657857Y-71590571D01*
X119562619Y-71638190D01*
X119181666Y-71638190D01*
X120705476Y-72114380D02*
X120134047Y-72114380D01*
X120419761Y-72114380D02*
X120419761Y-71114380D01*
X120324523Y-71257238D01*
X120229285Y-71352476D01*
X120134047Y-71400095D01*
X121657857Y-72114380D02*
X121086428Y-72114380D01*
X121372142Y-72114380D02*
X121372142Y-71114380D01*
X121276904Y-71257238D01*
X121181666Y-71352476D01*
X121086428Y-71400095D01*
%TO.C,TP8*%
X140343095Y-60319380D02*
X140914523Y-60319380D01*
X140628809Y-61319380D02*
X140628809Y-60319380D01*
X141247857Y-61319380D02*
X141247857Y-60319380D01*
X141628809Y-60319380D01*
X141724047Y-60367000D01*
X141771666Y-60414619D01*
X141819285Y-60509857D01*
X141819285Y-60652714D01*
X141771666Y-60747952D01*
X141724047Y-60795571D01*
X141628809Y-60843190D01*
X141247857Y-60843190D01*
X142390714Y-60747952D02*
X142295476Y-60700333D01*
X142247857Y-60652714D01*
X142200238Y-60557476D01*
X142200238Y-60509857D01*
X142247857Y-60414619D01*
X142295476Y-60367000D01*
X142390714Y-60319380D01*
X142581190Y-60319380D01*
X142676428Y-60367000D01*
X142724047Y-60414619D01*
X142771666Y-60509857D01*
X142771666Y-60557476D01*
X142724047Y-60652714D01*
X142676428Y-60700333D01*
X142581190Y-60747952D01*
X142390714Y-60747952D01*
X142295476Y-60795571D01*
X142247857Y-60843190D01*
X142200238Y-60938428D01*
X142200238Y-61128904D01*
X142247857Y-61224142D01*
X142295476Y-61271761D01*
X142390714Y-61319380D01*
X142581190Y-61319380D01*
X142676428Y-61271761D01*
X142724047Y-61224142D01*
X142771666Y-61128904D01*
X142771666Y-60938428D01*
X142724047Y-60843190D01*
X142676428Y-60795571D01*
X142581190Y-60747952D01*
%TO.C,U4*%
X165735095Y-60285380D02*
X165735095Y-61094904D01*
X165782714Y-61190142D01*
X165830333Y-61237761D01*
X165925571Y-61285380D01*
X166116047Y-61285380D01*
X166211285Y-61237761D01*
X166258904Y-61190142D01*
X166306523Y-61094904D01*
X166306523Y-60285380D01*
X167211285Y-60618714D02*
X167211285Y-61285380D01*
X166973190Y-60237761D02*
X166735095Y-60952047D01*
X167354142Y-60952047D01*
%TO.C,C1*%
X196048333Y-86042142D02*
X196000714Y-86089761D01*
X195857857Y-86137380D01*
X195762619Y-86137380D01*
X195619761Y-86089761D01*
X195524523Y-85994523D01*
X195476904Y-85899285D01*
X195429285Y-85708809D01*
X195429285Y-85565952D01*
X195476904Y-85375476D01*
X195524523Y-85280238D01*
X195619761Y-85185000D01*
X195762619Y-85137380D01*
X195857857Y-85137380D01*
X196000714Y-85185000D01*
X196048333Y-85232619D01*
X197000714Y-86137380D02*
X196429285Y-86137380D01*
X196715000Y-86137380D02*
X196715000Y-85137380D01*
X196619761Y-85280238D01*
X196524523Y-85375476D01*
X196429285Y-85423095D01*
%TO.C,R3*%
X208748333Y-115642380D02*
X208415000Y-115166190D01*
X208176904Y-115642380D02*
X208176904Y-114642380D01*
X208557857Y-114642380D01*
X208653095Y-114690000D01*
X208700714Y-114737619D01*
X208748333Y-114832857D01*
X208748333Y-114975714D01*
X208700714Y-115070952D01*
X208653095Y-115118571D01*
X208557857Y-115166190D01*
X208176904Y-115166190D01*
X209081666Y-114642380D02*
X209700714Y-114642380D01*
X209367380Y-115023333D01*
X209510238Y-115023333D01*
X209605476Y-115070952D01*
X209653095Y-115118571D01*
X209700714Y-115213809D01*
X209700714Y-115451904D01*
X209653095Y-115547142D01*
X209605476Y-115594761D01*
X209510238Y-115642380D01*
X209224523Y-115642380D01*
X209129285Y-115594761D01*
X209081666Y-115547142D01*
%TO.C,UI1*%
X202845000Y-70792380D02*
X202845000Y-71601904D01*
X202892619Y-71697142D01*
X202940238Y-71744761D01*
X203035476Y-71792380D01*
X203225952Y-71792380D01*
X203321190Y-71744761D01*
X203368809Y-71697142D01*
X203416428Y-71601904D01*
X203416428Y-70792380D01*
X203892619Y-71792380D02*
X203892619Y-70792380D01*
X204892619Y-71792380D02*
X204321190Y-71792380D01*
X204606904Y-71792380D02*
X204606904Y-70792380D01*
X204511666Y-70935238D01*
X204416428Y-71030476D01*
X204321190Y-71078095D01*
%TO.C,C9*%
X98258333Y-64747142D02*
X98210714Y-64794761D01*
X98067857Y-64842380D01*
X97972619Y-64842380D01*
X97829761Y-64794761D01*
X97734523Y-64699523D01*
X97686904Y-64604285D01*
X97639285Y-64413809D01*
X97639285Y-64270952D01*
X97686904Y-64080476D01*
X97734523Y-63985238D01*
X97829761Y-63890000D01*
X97972619Y-63842380D01*
X98067857Y-63842380D01*
X98210714Y-63890000D01*
X98258333Y-63937619D01*
X98734523Y-64842380D02*
X98925000Y-64842380D01*
X99020238Y-64794761D01*
X99067857Y-64747142D01*
X99163095Y-64604285D01*
X99210714Y-64413809D01*
X99210714Y-64032857D01*
X99163095Y-63937619D01*
X99115476Y-63890000D01*
X99020238Y-63842380D01*
X98829761Y-63842380D01*
X98734523Y-63890000D01*
X98686904Y-63937619D01*
X98639285Y-64032857D01*
X98639285Y-64270952D01*
X98686904Y-64366190D01*
X98734523Y-64413809D01*
X98829761Y-64461428D01*
X99020238Y-64461428D01*
X99115476Y-64413809D01*
X99163095Y-64366190D01*
X99210714Y-64270952D01*
%TO.C,SW5*%
X198691666Y-111039761D02*
X198834523Y-111087380D01*
X199072619Y-111087380D01*
X199167857Y-111039761D01*
X199215476Y-110992142D01*
X199263095Y-110896904D01*
X199263095Y-110801666D01*
X199215476Y-110706428D01*
X199167857Y-110658809D01*
X199072619Y-110611190D01*
X198882142Y-110563571D01*
X198786904Y-110515952D01*
X198739285Y-110468333D01*
X198691666Y-110373095D01*
X198691666Y-110277857D01*
X198739285Y-110182619D01*
X198786904Y-110135000D01*
X198882142Y-110087380D01*
X199120238Y-110087380D01*
X199263095Y-110135000D01*
X199596428Y-110087380D02*
X199834523Y-111087380D01*
X200025000Y-110373095D01*
X200215476Y-111087380D01*
X200453571Y-110087380D01*
X201310714Y-110087380D02*
X200834523Y-110087380D01*
X200786904Y-110563571D01*
X200834523Y-110515952D01*
X200929761Y-110468333D01*
X201167857Y-110468333D01*
X201263095Y-110515952D01*
X201310714Y-110563571D01*
X201358333Y-110658809D01*
X201358333Y-110896904D01*
X201310714Y-110992142D01*
X201263095Y-111039761D01*
X201167857Y-111087380D01*
X200929761Y-111087380D01*
X200834523Y-111039761D01*
X200786904Y-110992142D01*
%TO.C,DS1*%
X112345714Y-93162380D02*
X112345714Y-92162380D01*
X112583809Y-92162380D01*
X112726666Y-92210000D01*
X112821904Y-92305238D01*
X112869523Y-92400476D01*
X112917142Y-92590952D01*
X112917142Y-92733809D01*
X112869523Y-92924285D01*
X112821904Y-93019523D01*
X112726666Y-93114761D01*
X112583809Y-93162380D01*
X112345714Y-93162380D01*
X113298095Y-93114761D02*
X113440952Y-93162380D01*
X113679047Y-93162380D01*
X113774285Y-93114761D01*
X113821904Y-93067142D01*
X113869523Y-92971904D01*
X113869523Y-92876666D01*
X113821904Y-92781428D01*
X113774285Y-92733809D01*
X113679047Y-92686190D01*
X113488571Y-92638571D01*
X113393333Y-92590952D01*
X113345714Y-92543333D01*
X113298095Y-92448095D01*
X113298095Y-92352857D01*
X113345714Y-92257619D01*
X113393333Y-92210000D01*
X113488571Y-92162380D01*
X113726666Y-92162380D01*
X113869523Y-92210000D01*
X114821904Y-93162380D02*
X114250476Y-93162380D01*
X114536190Y-93162380D02*
X114536190Y-92162380D01*
X114440952Y-92305238D01*
X114345714Y-92400476D01*
X114250476Y-92448095D01*
%TO.C,R7*%
X89788333Y-69412380D02*
X89455000Y-68936190D01*
X89216904Y-69412380D02*
X89216904Y-68412380D01*
X89597857Y-68412380D01*
X89693095Y-68460000D01*
X89740714Y-68507619D01*
X89788333Y-68602857D01*
X89788333Y-68745714D01*
X89740714Y-68840952D01*
X89693095Y-68888571D01*
X89597857Y-68936190D01*
X89216904Y-68936190D01*
X90121666Y-68412380D02*
X90788333Y-68412380D01*
X90359761Y-69412380D01*
D11*
%TO.C,RV1*%
X150535000Y-80957500D02*
X150535000Y-90727500D01*
X140765000Y-90727500D02*
X150535000Y-90727500D01*
X140765000Y-80957500D02*
X150535000Y-80957500D01*
X140765000Y-80957500D02*
X140765000Y-90727500D01*
%TO.C,Y2*%
X84410000Y-82285000D02*
X84410000Y-84085000D01*
X85810000Y-84135000D02*
X86910000Y-84135000D01*
X85810000Y-82235000D02*
X86910000Y-82235000D01*
%TO.C,TP9*%
X149155000Y-62865000D02*
G75*
G03*
X149155000Y-62865000I-1200000J0D01*
G01*
%TO.C,U3*%
X205615000Y-137815000D02*
X204115000Y-137815000D01*
X204115000Y-130915000D02*
X204115000Y-131185000D01*
X204115000Y-137545000D02*
X203015000Y-137545000D01*
X204115000Y-131185000D02*
X201285000Y-131185000D01*
X205615000Y-130915000D02*
X204115000Y-130915000D01*
X204115000Y-137815000D02*
X204115000Y-137545000D01*
%TO.C,U5*%
X125603000Y-79248000D02*
X125603000Y-80772000D01*
X125603000Y-80772000D02*
X127127000Y-80772000D01*
X125857000Y-61468000D02*
X138557000Y-61468000D01*
X138557000Y-61468000D02*
X138557000Y-80518000D01*
X138557000Y-80518000D02*
X125857000Y-80518000D01*
X125857000Y-80518000D02*
X125857000Y-61468000D01*
%TO.C,TP7*%
X143440000Y-74295000D02*
G75*
G03*
X143440000Y-74295000I-1200000J0D01*
G01*
%TO.C,U2*%
X109330000Y-60265000D02*
X104030000Y-60265000D01*
X109330000Y-90865000D02*
X109330000Y-60265000D01*
X104030000Y-60265000D02*
X104030000Y-90865000D01*
X107680000Y-90865000D02*
X109330000Y-90865000D01*
X104030000Y-90865000D02*
X105680000Y-90865000D01*
X107680000Y-90865000D02*
G75*
G03*
X105680000Y-90865000I-1000000J0D01*
G01*
%TO.C,Q1*%
X190640000Y-63975000D02*
X189180000Y-63975000D01*
X190640000Y-63975000D02*
X190640000Y-63045000D01*
X190640000Y-60815000D02*
X188480000Y-60815000D01*
X190640000Y-60815000D02*
X190640000Y-61745000D01*
%TO.C,D1*%
X215575000Y-83102500D02*
X215575000Y-85787500D01*
X217495000Y-85787500D02*
X217495000Y-83102500D01*
X217495000Y-83102500D02*
X215575000Y-83102500D01*
%TO.C,TP5*%
X156140000Y-74295000D02*
G75*
G03*
X156140000Y-74295000I-1200000J0D01*
G01*
%TO.C,TP14*%
X208845000Y-64770000D02*
G75*
G03*
X208845000Y-64770000I-1200000J0D01*
G01*
%TO.C,SW6*%
X153845000Y-82307500D02*
X153845000Y-88107500D01*
X154795000Y-90307500D02*
X153795000Y-90307500D01*
X155795000Y-88307500D02*
X158395000Y-88307500D01*
X155795000Y-82107500D02*
X158395000Y-82107500D01*
X160345000Y-82207500D02*
X160345000Y-88207500D01*
X153795000Y-90307500D02*
X153795000Y-89307500D01*
%TO.C,TP10*%
X162490000Y-74295000D02*
G75*
G03*
X162490000Y-74295000I-1200000J0D01*
G01*
%TO.C,U1*%
X94050000Y-77580000D02*
X94050000Y-72280000D01*
X83770000Y-77580000D02*
X94050000Y-77580000D01*
X94050000Y-72280000D02*
X83770000Y-72280000D01*
X83770000Y-72280000D02*
X83770000Y-73930000D01*
X83770000Y-75930000D02*
X83770000Y-77580000D01*
X83770000Y-75930000D02*
G75*
G03*
X83770000Y-73930000I0J1000000D01*
G01*
%TO.C,Y1*%
X183165000Y-86985000D02*
X183165000Y-92085000D01*
X183165000Y-92085000D02*
X195765000Y-92085000D01*
X195765000Y-86985000D02*
X183165000Y-86985000D01*
%TO.C,TP4*%
X162490000Y-62865000D02*
G75*
G03*
X162490000Y-62865000I-1200000J0D01*
G01*
%TO.C,BZ1*%
X205830000Y-65635000D02*
G75*
G03*
X205830000Y-62635001I-6400000J1500000D01*
G01*
X205660000Y-64135000D02*
G75*
G03*
X205660000Y-64135000I-6230000J0D01*
G01*
%TO.C,SW2*%
X129465000Y-136495000D02*
X129465000Y-139095000D01*
X123265000Y-136495000D02*
X123265000Y-139095000D01*
X129365000Y-141045000D02*
X123365000Y-141045000D01*
X121265000Y-134495000D02*
X122265000Y-134495000D01*
X129265000Y-134545000D02*
X123465000Y-134545000D01*
X121265000Y-135495000D02*
X121265000Y-134495000D01*
%TO.C,TP1*%
X182810000Y-72390000D02*
G75*
G03*
X182810000Y-72390000I-1200000J0D01*
G01*
%TO.C,SW1*%
X168255000Y-135130000D02*
X169255000Y-135130000D01*
X170255000Y-137130000D02*
X170255000Y-139730000D01*
X176455000Y-137130000D02*
X176455000Y-139730000D01*
X168255000Y-136130000D02*
X168255000Y-135130000D01*
X176355000Y-141680000D02*
X170355000Y-141680000D01*
X176255000Y-135180000D02*
X170455000Y-135180000D01*
%TO.C,TP6*%
X149155000Y-74295000D02*
G75*
G03*
X149155000Y-74295000I-1200000J0D01*
G01*
%TO.C,TP2*%
X216465000Y-128905000D02*
G75*
G03*
X216465000Y-128905000I-1200000J0D01*
G01*
%TO.C,TP3*%
X156140000Y-62865000D02*
G75*
G03*
X156140000Y-62865000I-1200000J0D01*
G01*
%TO.C,TP13*%
X208845000Y-69215000D02*
G75*
G03*
X208845000Y-69215000I-1200000J0D01*
G01*
%TO.C,SW3*%
X105770000Y-134545000D02*
X99970000Y-134545000D01*
X97770000Y-135495000D02*
X97770000Y-134495000D01*
X105870000Y-141045000D02*
X99870000Y-141045000D01*
X97770000Y-134495000D02*
X98770000Y-134495000D01*
X105970000Y-136495000D02*
X105970000Y-139095000D01*
X99770000Y-136495000D02*
X99770000Y-139095000D01*
%TO.C,SW4*%
X144760000Y-135130000D02*
X145760000Y-135130000D01*
X152860000Y-141680000D02*
X146860000Y-141680000D01*
X152760000Y-135180000D02*
X146960000Y-135180000D01*
X146760000Y-137130000D02*
X146760000Y-139730000D01*
X144760000Y-136130000D02*
X144760000Y-135130000D01*
X152960000Y-137130000D02*
X152960000Y-139730000D01*
%TO.C,TP11*%
X121215000Y-73660000D02*
G75*
G03*
X121215000Y-73660000I-1200000J0D01*
G01*
%TO.C,TP8*%
X142805000Y-62865000D02*
G75*
G03*
X142805000Y-62865000I-1200000J0D01*
G01*
%TO.C,U4*%
X163703000Y-80772000D02*
X165227000Y-80772000D01*
X163703000Y-79248000D02*
X163703000Y-80772000D01*
X163957000Y-61468000D02*
X176657000Y-61468000D01*
X176657000Y-61468000D02*
X176657000Y-80518000D01*
X176657000Y-80518000D02*
X163957000Y-80518000D01*
X163957000Y-80518000D02*
X163957000Y-61468000D01*
%TO.C,UI1*%
X201195000Y-72340000D02*
X201195000Y-108020000D01*
X201195000Y-108020000D02*
X206495000Y-108020000D01*
X206495000Y-72340000D02*
X204845000Y-72340000D01*
X206495000Y-108020000D02*
X206495000Y-72340000D01*
X202845000Y-72340000D02*
X201195000Y-72340000D01*
X202845000Y-72340000D02*
G75*
G03*
X204845000Y-72340000I1000000J0D01*
G01*
%TO.C,SW5*%
X196925000Y-113635000D02*
X196925000Y-116235000D01*
X202925000Y-111685000D02*
X197125000Y-111685000D01*
X194925000Y-111635000D02*
X195925000Y-111635000D01*
X203025000Y-118185000D02*
X197025000Y-118185000D01*
X203125000Y-113635000D02*
X203125000Y-116235000D01*
X194925000Y-112635000D02*
X194925000Y-111635000D01*
%TO.C,DS1*%
X191520000Y-93880000D02*
X112040000Y-93880000D01*
X187380000Y-124520000D02*
X114380000Y-124520000D01*
X191520000Y-130160000D02*
X191520000Y-93880000D01*
X111250000Y-93880000D02*
X112040000Y-93880000D01*
X183580000Y-105020000D02*
X183580000Y-119020000D01*
X114380000Y-124520000D02*
X114380000Y-99520000D01*
X114380000Y-99520000D02*
X187380000Y-99520000D01*
X183080660Y-119520000D02*
X119580000Y-119520000D01*
X111240000Y-93880000D02*
X111240000Y-130160000D01*
X117880000Y-93520000D02*
X120880000Y-93520000D01*
X111240000Y-130160000D02*
X191520000Y-130160000D01*
X119580000Y-104520000D02*
X183080000Y-104520000D01*
X187380000Y-99520000D02*
X187380000Y-124520000D01*
X119080280Y-119019320D02*
X119080280Y-105020000D01*
X183580000Y-105020000D02*
G75*
G03*
X183080000Y-104520000I-500000J0D01*
G01*
X119080280Y-119019320D02*
G75*
G03*
X119580660Y-119519700I500380J0D01*
G01*
X119580660Y-104518460D02*
G75*
G03*
X119080280Y-105018840I0J-500380D01*
G01*
X183080660Y-119519640D02*
G75*
G03*
X183581040Y-119019320I40J500340D01*
G01*
%TD*%
%LPC*%
D12*
%TO.C,C6*%
X204465000Y-127380000D03*
X206165000Y-127380000D03*
%TD*%
D13*
%TO.C,H4*%
X215000000Y-140000000D03*
%TD*%
D12*
%TO.C,R6*%
X94830000Y-67310000D03*
X93130000Y-67310000D03*
%TD*%
D14*
%TO.C,RV1*%
X145665000Y-88382500D03*
X148205000Y-85842500D03*
X145665000Y-83302500D03*
%TD*%
D15*
%TO.C,Y2*%
X85110000Y-83185000D03*
X87610000Y-83185000D03*
%TD*%
D16*
%TO.C,TP9*%
X147955000Y-62865000D03*
%TD*%
D12*
%TO.C,R17*%
X153885000Y-92075000D03*
X152185000Y-92075000D03*
%TD*%
D17*
%TO.C,U3*%
X202385000Y-132085000D03*
D18*
X208685000Y-134365000D03*
D17*
X202385000Y-136645000D03*
%TD*%
D19*
%TO.C,R14*%
X186055000Y-63715000D03*
X186055000Y-62015000D03*
%TD*%
D20*
%TO.C,U5*%
X127127000Y-78613000D03*
D21*
X129667000Y-78613000D03*
X132207000Y-78613000D03*
X134747000Y-78613000D03*
X137287000Y-78613000D03*
X137287000Y-63373000D03*
X134747000Y-63373000D03*
X132207000Y-63373000D03*
X129667000Y-63373000D03*
X127127000Y-63373000D03*
%TD*%
D16*
%TO.C,TP7*%
X142240000Y-74295000D03*
%TD*%
D19*
%TO.C,R5*%
X193040000Y-117270000D03*
X193040000Y-115570000D03*
%TD*%
D12*
%TO.C,C2*%
X209970000Y-91440000D03*
X211670000Y-91440000D03*
%TD*%
%TO.C,R10*%
X97575000Y-74295000D03*
X99275000Y-74295000D03*
%TD*%
%TO.C,C10*%
X119390000Y-135255000D03*
X117690000Y-135255000D03*
%TD*%
D22*
%TO.C,U2*%
X110490000Y-89535000D03*
D23*
X110490000Y-86995000D03*
X110490000Y-84455000D03*
X110490000Y-81915000D03*
X110490000Y-79375000D03*
X110490000Y-76835000D03*
X110490000Y-74295000D03*
X110490000Y-71755000D03*
X110490000Y-69215000D03*
X110490000Y-66675000D03*
X110490000Y-64135000D03*
X110490000Y-61595000D03*
X102870000Y-61595000D03*
X102870000Y-64135000D03*
X102870000Y-66675000D03*
X102870000Y-69215000D03*
X102870000Y-71755000D03*
X102870000Y-74295000D03*
X102870000Y-76835000D03*
X102870000Y-79375000D03*
X102870000Y-81915000D03*
X102870000Y-84455000D03*
X102870000Y-86995000D03*
X102870000Y-89535000D03*
%TD*%
D12*
%TO.C,C8*%
X97575000Y-69850000D03*
X99275000Y-69850000D03*
%TD*%
D24*
%TO.C,Q1*%
X188880000Y-61445000D03*
X188880000Y-63345000D03*
X190880000Y-62395000D03*
%TD*%
D12*
%TO.C,C7*%
X203830000Y-140715000D03*
X205530000Y-140715000D03*
%TD*%
D25*
%TO.C,D1*%
X216535000Y-83850000D03*
X216535000Y-85725000D03*
%TD*%
D16*
%TO.C,TP5*%
X154940000Y-74295000D03*
%TD*%
D19*
%TO.C,R13*%
X164465000Y-139167500D03*
X164465000Y-140867500D03*
%TD*%
D12*
%TO.C,R15*%
X141175000Y-140970000D03*
X142875000Y-140970000D03*
%TD*%
D16*
%TO.C,TP14*%
X207645000Y-64770000D03*
%TD*%
D12*
%TO.C,R12*%
X117475000Y-140335000D03*
X119175000Y-140335000D03*
%TD*%
D26*
%TO.C,SW6*%
X154845000Y-89207500D03*
X154845000Y-81207500D03*
X159345000Y-89207500D03*
X159345000Y-81207500D03*
%TD*%
D12*
%TO.C,C11*%
X166165000Y-135152500D03*
X164465000Y-135152500D03*
%TD*%
D16*
%TO.C,TP10*%
X161290000Y-74295000D03*
%TD*%
D22*
%TO.C,U1*%
X85100000Y-78740000D03*
D23*
X87640000Y-78740000D03*
X90180000Y-78740000D03*
X92720000Y-78740000D03*
X92720000Y-71120000D03*
X90180000Y-71120000D03*
X87640000Y-71120000D03*
X85100000Y-71120000D03*
%TD*%
D19*
%TO.C,R1*%
X134200000Y-140550000D03*
X134200000Y-138850000D03*
%TD*%
D27*
%TO.C,Y1*%
X194115000Y-89535000D03*
X185615000Y-89535000D03*
%TD*%
D16*
%TO.C,TP4*%
X161290000Y-62865000D03*
%TD*%
D28*
%TO.C,BZ1*%
X201930000Y-64135000D03*
D16*
X196930000Y-64135000D03*
%TD*%
D19*
%TO.C,R8*%
X110490000Y-140335000D03*
X110490000Y-138635000D03*
%TD*%
D12*
%TO.C,R9*%
X156630000Y-140970000D03*
X158330000Y-140970000D03*
%TD*%
D13*
%TO.C,H2*%
X215000000Y-60000000D03*
%TD*%
D29*
%TO.C,SW2*%
X122365000Y-135545000D03*
X130365000Y-135545000D03*
X122365000Y-140045000D03*
X130365000Y-140045000D03*
%TD*%
D13*
%TO.C,H3*%
X85000000Y-140000000D03*
%TD*%
D16*
%TO.C,TP1*%
X181610000Y-72390000D03*
%TD*%
D12*
%TO.C,R11*%
X214630000Y-89535000D03*
X216330000Y-89535000D03*
%TD*%
%TO.C,C4*%
X193460000Y-93980000D03*
X195160000Y-93980000D03*
%TD*%
%TO.C,R16*%
X161075000Y-92192500D03*
X162775000Y-92192500D03*
%TD*%
D19*
%TO.C,C5*%
X181610000Y-90805000D03*
X181610000Y-89105000D03*
%TD*%
D12*
%TO.C,R4*%
X208065000Y-120650000D03*
X209765000Y-120650000D03*
%TD*%
D13*
%TO.C,H1*%
X85000000Y-60000000D03*
%TD*%
D29*
%TO.C,SW1*%
X169355000Y-136180000D03*
X177355000Y-136180000D03*
X169355000Y-140680000D03*
X177355000Y-140680000D03*
%TD*%
D16*
%TO.C,TP6*%
X147955000Y-74295000D03*
%TD*%
%TO.C,TP2*%
X215265000Y-128905000D03*
%TD*%
D12*
%TO.C,C13*%
X143090000Y-135890000D03*
X141390000Y-135890000D03*
%TD*%
D19*
%TO.C,R2*%
X180975000Y-140550000D03*
X180975000Y-138850000D03*
%TD*%
D16*
%TO.C,TP3*%
X154940000Y-62865000D03*
%TD*%
D12*
%TO.C,C3*%
X196000000Y-123190000D03*
X197700000Y-123190000D03*
%TD*%
D16*
%TO.C,TP13*%
X207645000Y-69215000D03*
%TD*%
D29*
%TO.C,SW3*%
X98870000Y-135545000D03*
X106870000Y-135545000D03*
X98870000Y-140045000D03*
X106870000Y-140045000D03*
%TD*%
%TO.C,SW4*%
X145860000Y-136180000D03*
X153860000Y-136180000D03*
X145860000Y-140680000D03*
X153860000Y-140680000D03*
%TD*%
D16*
%TO.C,TP11*%
X120015000Y-73660000D03*
%TD*%
%TO.C,TP8*%
X141605000Y-62865000D03*
%TD*%
D20*
%TO.C,U4*%
X165227000Y-78613000D03*
D21*
X167767000Y-78613000D03*
X170307000Y-78613000D03*
X172847000Y-78613000D03*
X175387000Y-78613000D03*
X175387000Y-63373000D03*
X172847000Y-63373000D03*
X170307000Y-63373000D03*
X167767000Y-63373000D03*
X165227000Y-63373000D03*
%TD*%
D12*
%TO.C,C1*%
X197065000Y-84035000D03*
X195365000Y-84035000D03*
%TD*%
%TO.C,R3*%
X208065000Y-116840000D03*
X209765000Y-116840000D03*
%TD*%
D22*
%TO.C,UI1*%
X200035000Y-73670000D03*
D23*
X200035000Y-76210000D03*
X200035000Y-78750000D03*
X200035000Y-81290000D03*
X200035000Y-83830000D03*
X200035000Y-86370000D03*
X200035000Y-88910000D03*
X200035000Y-91450000D03*
X200035000Y-93990000D03*
X200035000Y-96530000D03*
X200035000Y-99070000D03*
X200035000Y-101610000D03*
X200035000Y-104150000D03*
X200035000Y-106690000D03*
X207655000Y-106690000D03*
X207655000Y-104150000D03*
X207655000Y-101610000D03*
X207655000Y-99070000D03*
X207655000Y-96530000D03*
X207655000Y-93990000D03*
X207655000Y-91450000D03*
X207655000Y-88910000D03*
X207655000Y-86370000D03*
X207655000Y-83830000D03*
X207655000Y-81290000D03*
X207655000Y-78750000D03*
X207655000Y-76210000D03*
X207655000Y-73670000D03*
%TD*%
D12*
%TO.C,C9*%
X97575000Y-66040000D03*
X99275000Y-66040000D03*
%TD*%
D29*
%TO.C,SW5*%
X196025000Y-112685000D03*
X204025000Y-112685000D03*
X196025000Y-117185000D03*
X204025000Y-117185000D03*
%TD*%
D30*
%TO.C,DS1*%
X188880000Y-96520000D03*
X113880900Y-96520000D03*
X113880900Y-127520700D03*
X188879480Y-127520700D03*
D31*
X119380000Y-96520000D03*
D32*
X121920000Y-96520000D03*
X124460000Y-96520000D03*
X127000000Y-96520000D03*
X129540000Y-96520000D03*
X132080000Y-96520000D03*
X134620000Y-96520000D03*
X137160000Y-96520000D03*
X139700000Y-96520000D03*
X142240000Y-96520000D03*
X144780000Y-96520000D03*
X147320000Y-96520000D03*
X149860000Y-96520000D03*
X152400000Y-96520000D03*
X154940000Y-96520000D03*
X157480000Y-96520000D03*
%TD*%
D12*
%TO.C,R7*%
X90805000Y-67310000D03*
X89105000Y-67310000D03*
%TD*%
D33*
%TO.C,J2*%
X191890000Y-134295000D03*
D34*
X197190000Y-136595000D03*
X194690000Y-140295000D03*
%TD*%
D20*
%TO.C,J1*%
X213360000Y-110490000D03*
D35*
X213360000Y-113030000D03*
X213360000Y-115570000D03*
X213360000Y-118110000D03*
X213360000Y-120650000D03*
X213360000Y-123190000D03*
%TD*%
D20*
%TO.C,J3*%
X215265000Y-95250000D03*
D35*
X212725000Y-95250000D03*
X215265000Y-97790000D03*
X212725000Y-97790000D03*
X215265000Y-100330000D03*
X212725000Y-100330000D03*
%TD*%
D16*
%TO.C,TP12*%
X215265000Y-133350000D03*
%TD*%
D36*
%TO.C,BT1*%
X95250000Y-101600000D03*
D30*
X95250000Y-122090000D03*
%TD*%
M02*
