%TF.GenerationSoftware,KiCad,Pcbnew,(6.0.5-0)*%
%TF.CreationDate,2022-07-17T22:17:14-04:00*%
%TF.ProjectId,Annahs_clock_hps,416e6e61-6873-45f6-936c-6f636b5f6870,rev?*%
%TF.SameCoordinates,Original*%
%TF.FileFunction,Legend,Bot*%
%TF.FilePolarity,Positive*%
%FSLAX46Y46*%
G04 Gerber Fmt 4.6, Leading zero omitted, Abs format (unit mm)*
G04 Created by KiCad (PCBNEW (6.0.5-0)) date 2022-07-17 22:17:14*
%MOMM*%
%LPD*%
G01*
G04 APERTURE LIST*
G04 Aperture macros list*
%AMRoundRect*
0 Rectangle with rounded corners*
0 $1 Rounding radius*
0 $2 $3 $4 $5 $6 $7 $8 $9 X,Y pos of 4 corners*
0 Add a 4 corners polygon primitive as box body*
4,1,4,$2,$3,$4,$5,$6,$7,$8,$9,$2,$3,0*
0 Add four circle primitives for the rounded corners*
1,1,$1+$1,$2,$3*
1,1,$1+$1,$4,$5*
1,1,$1+$1,$6,$7*
1,1,$1+$1,$8,$9*
0 Add four rect primitives between the rounded corners*
20,1,$1+$1,$2,$3,$4,$5,0*
20,1,$1+$1,$4,$5,$6,$7,0*
20,1,$1+$1,$6,$7,$8,$9,0*
20,1,$1+$1,$8,$9,$2,$3,0*%
G04 Aperture macros list end*
%ADD10C,0.150000*%
%ADD11C,0.120000*%
%ADD12C,3.200000*%
%ADD13C,1.440000*%
%ADD14C,2.000000*%
%ADD15R,1.700000X1.700000*%
%ADD16C,1.700000*%
%ADD17R,1.600000X1.600000*%
%ADD18O,1.600000X1.600000*%
%ADD19R,2.000000X2.000000*%
%ADD20C,3.000000*%
%ADD21R,1.800000X2.600000*%
%ADD22O,1.800000X2.600000*%
%ADD23RoundRect,0.500000X1.750000X0.500000X-1.750000X0.500000X-1.750000X-0.500000X1.750000X-0.500000X0*%
%ADD24RoundRect,0.500000X-0.500000X1.500000X-0.500000X-1.500000X0.500000X-1.500000X0.500000X1.500000X0*%
%ADD25O,1.700000X1.700000*%
%ADD26R,3.000000X3.000000*%
G04 APERTURE END LIST*
D10*
%TO.C,J2*%
X186342380Y-137461666D02*
X187056666Y-137461666D01*
X187199523Y-137414047D01*
X187294761Y-137318809D01*
X187342380Y-137175952D01*
X187342380Y-137080714D01*
X186437619Y-137890238D02*
X186390000Y-137937857D01*
X186342380Y-138033095D01*
X186342380Y-138271190D01*
X186390000Y-138366428D01*
X186437619Y-138414047D01*
X186532857Y-138461666D01*
X186628095Y-138461666D01*
X186770952Y-138414047D01*
X187342380Y-137842619D01*
X187342380Y-138461666D01*
%TO.C,J1*%
X213693333Y-107612380D02*
X213693333Y-108326666D01*
X213740952Y-108469523D01*
X213836190Y-108564761D01*
X213979047Y-108612380D01*
X214074285Y-108612380D01*
X212693333Y-108612380D02*
X213264761Y-108612380D01*
X212979047Y-108612380D02*
X212979047Y-107612380D01*
X213074285Y-107755238D01*
X213169523Y-107850476D01*
X213264761Y-107898095D01*
%TO.C,J3*%
X214323333Y-103577380D02*
X214323333Y-104291666D01*
X214370952Y-104434523D01*
X214466190Y-104529761D01*
X214609047Y-104577380D01*
X214704285Y-104577380D01*
X213942380Y-103577380D02*
X213323333Y-103577380D01*
X213656666Y-103958333D01*
X213513809Y-103958333D01*
X213418571Y-104005952D01*
X213370952Y-104053571D01*
X213323333Y-104148809D01*
X213323333Y-104386904D01*
X213370952Y-104482142D01*
X213418571Y-104529761D01*
X213513809Y-104577380D01*
X213799523Y-104577380D01*
X213894761Y-104529761D01*
X213942380Y-104482142D01*
%TO.C,TP12*%
X217003095Y-130804380D02*
X216431666Y-130804380D01*
X216717380Y-131804380D02*
X216717380Y-130804380D01*
X216098333Y-131804380D02*
X216098333Y-130804380D01*
X215717380Y-130804380D01*
X215622142Y-130852000D01*
X215574523Y-130899619D01*
X215526904Y-130994857D01*
X215526904Y-131137714D01*
X215574523Y-131232952D01*
X215622142Y-131280571D01*
X215717380Y-131328190D01*
X216098333Y-131328190D01*
X214574523Y-131804380D02*
X215145952Y-131804380D01*
X214860238Y-131804380D02*
X214860238Y-130804380D01*
X214955476Y-130947238D01*
X215050714Y-131042476D01*
X215145952Y-131090095D01*
X214193571Y-130899619D02*
X214145952Y-130852000D01*
X214050714Y-130804380D01*
X213812619Y-130804380D01*
X213717380Y-130852000D01*
X213669761Y-130899619D01*
X213622142Y-130994857D01*
X213622142Y-131090095D01*
X213669761Y-131232952D01*
X214241190Y-131804380D01*
X213622142Y-131804380D01*
%TO.C,BT1*%
X90678571Y-99564285D02*
X90726190Y-99707142D01*
X90773809Y-99754761D01*
X90869047Y-99802380D01*
X91011904Y-99802380D01*
X91107142Y-99754761D01*
X91154761Y-99707142D01*
X91202380Y-99611904D01*
X91202380Y-99230952D01*
X90202380Y-99230952D01*
X90202380Y-99564285D01*
X90250000Y-99659523D01*
X90297619Y-99707142D01*
X90392857Y-99754761D01*
X90488095Y-99754761D01*
X90583333Y-99707142D01*
X90630952Y-99659523D01*
X90678571Y-99564285D01*
X90678571Y-99230952D01*
X90202380Y-100088095D02*
X90202380Y-100659523D01*
X91202380Y-100373809D02*
X90202380Y-100373809D01*
X91202380Y-101516666D02*
X91202380Y-100945238D01*
X91202380Y-101230952D02*
X90202380Y-101230952D01*
X90345238Y-101135714D01*
X90440476Y-101040476D01*
X90488095Y-100945238D01*
X95357142Y-103778571D02*
X95357142Y-104921428D01*
X95928571Y-104350000D02*
X94785714Y-104350000D01*
D11*
%TO.C,J2*%
X198390000Y-133295000D02*
X194140000Y-133295000D01*
X198390000Y-142295000D02*
X195640000Y-142295000D01*
X187690000Y-133295000D02*
X189640000Y-133295000D01*
X187690000Y-133295000D02*
X187690000Y-142295000D01*
X198390000Y-133295000D02*
X198390000Y-142295000D01*
X187690000Y-142295000D02*
X193640000Y-142295000D01*
X189590000Y-135595000D02*
G75*
G03*
X193273705Y-140661245I2300000J-2200000D01*
G01*
X195090000Y-137795000D02*
G75*
G03*
X194152742Y-135532258I-3199997J2D01*
G01*
%TO.C,J1*%
X214690000Y-111760000D02*
X212030000Y-111760000D01*
X212030000Y-111760000D02*
X212030000Y-124520000D01*
X214690000Y-111760000D02*
X214690000Y-124520000D01*
X214690000Y-110490000D02*
X214690000Y-109160000D01*
X214690000Y-109160000D02*
X213360000Y-109160000D01*
X214690000Y-124520000D02*
X212030000Y-124520000D01*
%TO.C,J3*%
X216595000Y-93920000D02*
X215265000Y-93920000D01*
X216595000Y-96520000D02*
X216595000Y-101660000D01*
X213995000Y-93920000D02*
X211395000Y-93920000D01*
X216595000Y-95250000D02*
X216595000Y-93920000D01*
X211395000Y-93920000D02*
X211395000Y-101660000D01*
X213995000Y-96520000D02*
X213995000Y-93920000D01*
X216595000Y-101660000D02*
X211395000Y-101660000D01*
X216595000Y-96520000D02*
X213995000Y-96520000D01*
%TO.C,G\u002A\u002A\u002A*%
G36*
X141230013Y-123505708D02*
G01*
X141442906Y-123606919D01*
X141468811Y-123627108D01*
X141601049Y-123716560D01*
X141665194Y-123719593D01*
X141681970Y-123638990D01*
X141721627Y-123571463D01*
X141874394Y-123542778D01*
X142066818Y-123542778D01*
X142066818Y-125595303D01*
X141698785Y-125595303D01*
X141668800Y-124921086D01*
X141655079Y-124656122D01*
X141634739Y-124429603D01*
X141604413Y-124278552D01*
X141557865Y-124174067D01*
X141488858Y-124087247D01*
X141437092Y-124037226D01*
X141280879Y-123951379D01*
X141061446Y-123927626D01*
X140950846Y-123926587D01*
X140834414Y-123907884D01*
X140790662Y-123843001D01*
X140783990Y-123703131D01*
X140784351Y-123648285D01*
X140801296Y-123531340D01*
X140871283Y-123486138D01*
X141031906Y-123478636D01*
X141230013Y-123505708D01*
G37*
G36*
X131412607Y-114845587D02*
G01*
X131631847Y-114949855D01*
X131797509Y-115080165D01*
X131869332Y-114945963D01*
X131933776Y-114867798D01*
X132081133Y-114831688D01*
X132119053Y-114838939D01*
X132161335Y-114863109D01*
X132190804Y-114920442D01*
X132210372Y-115029961D01*
X132222950Y-115210687D01*
X132231447Y-115481640D01*
X132238775Y-115861843D01*
X132256439Y-116872071D01*
X131804192Y-116872071D01*
X131804192Y-116225723D01*
X131804072Y-116098968D01*
X131800358Y-115845448D01*
X131786083Y-115677814D01*
X131754136Y-115565441D01*
X131697409Y-115477703D01*
X131608792Y-115383975D01*
X131483571Y-115272691D01*
X131353989Y-115216796D01*
X131191873Y-115224522D01*
X131158247Y-115229902D01*
X131027978Y-115238711D01*
X130978289Y-115186193D01*
X130970354Y-115040008D01*
X130970701Y-114988102D01*
X130987630Y-114872183D01*
X131057628Y-114827136D01*
X131218269Y-114819545D01*
X131412607Y-114845587D01*
G37*
G36*
X140973448Y-114846617D02*
G01*
X141186341Y-114947828D01*
X141250976Y-114997920D01*
X141355920Y-115063350D01*
X141409592Y-115045179D01*
X141445316Y-114942754D01*
X141499098Y-114849953D01*
X141629186Y-114830507D01*
X141676417Y-114839249D01*
X141719313Y-114863656D01*
X141748907Y-114921071D01*
X141768278Y-115030546D01*
X141780506Y-115211132D01*
X141788669Y-115481880D01*
X141795846Y-115861843D01*
X141813510Y-116872071D01*
X141361263Y-116872071D01*
X141361263Y-116226440D01*
X141358972Y-116048125D01*
X141346586Y-115782151D01*
X141325871Y-115576662D01*
X141299573Y-115465540D01*
X141260087Y-115411290D01*
X141096867Y-115296631D01*
X140887265Y-115228929D01*
X140689023Y-115230421D01*
X140684931Y-115231443D01*
X140579253Y-115245371D01*
X140535838Y-115193723D01*
X140527424Y-115045262D01*
X140527789Y-114989529D01*
X140544739Y-114872272D01*
X140614723Y-114827021D01*
X140775340Y-114819545D01*
X140973448Y-114846617D01*
G37*
G36*
X153884199Y-125215073D02*
G01*
X153826909Y-125406430D01*
X153706558Y-125607334D01*
X153684570Y-125637692D01*
X153472200Y-125860566D01*
X153229011Y-126028258D01*
X152907609Y-126139195D01*
X152541290Y-126154931D01*
X152193478Y-126064258D01*
X151887098Y-125877361D01*
X151645073Y-125604428D01*
X151490328Y-125255644D01*
X151454265Y-124984035D01*
X151459933Y-124940765D01*
X152069491Y-124940765D01*
X152113522Y-125185331D01*
X152260369Y-125407813D01*
X152444281Y-125539641D01*
X152680760Y-125596150D01*
X152909432Y-125552115D01*
X153104592Y-125419330D01*
X153240538Y-125209588D01*
X153291566Y-124934683D01*
X153265096Y-124755495D01*
X153140186Y-124527680D01*
X152936930Y-124370853D01*
X152682222Y-124312475D01*
X152444315Y-124360111D01*
X152245884Y-124499600D01*
X152117277Y-124702670D01*
X152069491Y-124940765D01*
X151459933Y-124940765D01*
X151496307Y-124663066D01*
X151625094Y-124280404D01*
X151642012Y-124235678D01*
X151657180Y-124159492D01*
X151646365Y-124071009D01*
X151601548Y-123950697D01*
X151514707Y-123779025D01*
X151377823Y-123536462D01*
X151182877Y-123203478D01*
X151073661Y-123015620D01*
X150910456Y-122724505D01*
X150780108Y-122478787D01*
X150693829Y-122299903D01*
X150662832Y-122209286D01*
X150664049Y-122201752D01*
X150706901Y-122100424D01*
X150805028Y-121906455D01*
X150950249Y-121634926D01*
X151134386Y-121300920D01*
X151349257Y-120919521D01*
X151586684Y-120505811D01*
X152509473Y-118912027D01*
X152357014Y-118687365D01*
X152353516Y-118682180D01*
X152197187Y-118340061D01*
X152154553Y-117969081D01*
X152169419Y-117890252D01*
X152758259Y-117890252D01*
X152769550Y-118116007D01*
X152853795Y-118350626D01*
X152987270Y-118526816D01*
X153021810Y-118551877D01*
X153230692Y-118627774D01*
X153474656Y-118635543D01*
X153690837Y-118571216D01*
X153832681Y-118469451D01*
X153958570Y-118274730D01*
X153997121Y-118002339D01*
X153981039Y-117861333D01*
X153874374Y-117636983D01*
X153692708Y-117478935D01*
X153465409Y-117400742D01*
X153221841Y-117415958D01*
X152991372Y-117538137D01*
X152962690Y-117563804D01*
X152830931Y-117724168D01*
X152759808Y-117881578D01*
X152758259Y-117890252D01*
X152169419Y-117890252D01*
X152224644Y-117597403D01*
X152406486Y-117253189D01*
X152500937Y-117144843D01*
X152779185Y-116949766D01*
X153112383Y-116837636D01*
X153467201Y-116812616D01*
X153810311Y-116878872D01*
X154108384Y-117040566D01*
X154168578Y-117091340D01*
X154417791Y-117389026D01*
X154560215Y-117726443D01*
X154588299Y-118002339D01*
X154596285Y-118080797D01*
X154526436Y-118429294D01*
X154351103Y-118749138D01*
X154070718Y-119017535D01*
X154057625Y-119026724D01*
X153866314Y-119139477D01*
X153672335Y-119196517D01*
X153413518Y-119216683D01*
X153024075Y-119226681D01*
X152221101Y-120598997D01*
X152056189Y-120881373D01*
X151844299Y-121245848D01*
X151658725Y-121566955D01*
X151509135Y-121827884D01*
X151405197Y-122011827D01*
X151356581Y-122101976D01*
X151355332Y-122104695D01*
X151342648Y-122179002D01*
X151367283Y-122286344D01*
X151437394Y-122445348D01*
X151561137Y-122674638D01*
X151746668Y-122992840D01*
X152198301Y-123753042D01*
X152674899Y-123760157D01*
X152715424Y-123760823D01*
X152958790Y-123771399D01*
X153124129Y-123800776D01*
X153255740Y-123861594D01*
X153397921Y-123966497D01*
X153481406Y-124037208D01*
X153723590Y-124308999D01*
X153857554Y-124608111D01*
X153895227Y-124934683D01*
X153898771Y-124965401D01*
X153884199Y-125215073D01*
G37*
G36*
X146171182Y-122677290D02*
G01*
X146367330Y-122686509D01*
X146496397Y-122719424D01*
X146600561Y-122791064D01*
X146721999Y-122916457D01*
X146857078Y-123083894D01*
X146924806Y-123244663D01*
X146941566Y-123451960D01*
X146941027Y-123484589D01*
X146892601Y-123724704D01*
X146756218Y-123922378D01*
X146518438Y-124091358D01*
X146165822Y-124245389D01*
X145937963Y-124341979D01*
X145689742Y-124488645D01*
X145525622Y-124640603D01*
X145466313Y-124781970D01*
X145466418Y-124785705D01*
X145507132Y-124898943D01*
X145599251Y-125041451D01*
X145674757Y-125123252D01*
X145808588Y-125192510D01*
X146011173Y-125210455D01*
X146063864Y-125209853D01*
X146229134Y-125188009D01*
X146357632Y-125114543D01*
X146503613Y-124962090D01*
X146511434Y-124953017D01*
X146650595Y-124808760D01*
X146754021Y-124752334D01*
X146854826Y-124765171D01*
X146944636Y-124808035D01*
X147030131Y-124877375D01*
X147037077Y-124943450D01*
X146973877Y-125080491D01*
X146846122Y-125240810D01*
X146678202Y-125395367D01*
X146494503Y-125515126D01*
X146405565Y-125555967D01*
X146188605Y-125630075D01*
X146011515Y-125659444D01*
X145816321Y-125633029D01*
X145534774Y-125519418D01*
X145288136Y-125341615D01*
X145122956Y-125127489D01*
X145107051Y-125093400D01*
X145034337Y-124796548D01*
X145084957Y-124520084D01*
X145255143Y-124269810D01*
X145541124Y-124051528D01*
X145939133Y-123871040D01*
X145994385Y-123851064D01*
X146294271Y-123715527D01*
X146470707Y-123575019D01*
X146527900Y-123424696D01*
X146470055Y-123259715D01*
X146465105Y-123252382D01*
X146317254Y-123127309D01*
X146117900Y-123064540D01*
X145907777Y-123064387D01*
X145727619Y-123127162D01*
X145618161Y-123253179D01*
X145546536Y-123330675D01*
X145406035Y-123339155D01*
X145238042Y-123257531D01*
X145176899Y-123205388D01*
X145162646Y-123148131D01*
X145218439Y-123063672D01*
X145355135Y-122920789D01*
X145417271Y-122858801D01*
X145536193Y-122756139D01*
X145652030Y-122701848D01*
X145808566Y-122680550D01*
X146049584Y-122676869D01*
X146171182Y-122677290D01*
G37*
G36*
X143625823Y-119148428D02*
G01*
X143881389Y-119272381D01*
X143963669Y-119327525D01*
X144068906Y-119387666D01*
X144111422Y-119379610D01*
X144119344Y-119307511D01*
X144121120Y-119276897D01*
X144170572Y-119201595D01*
X144311768Y-119181162D01*
X144504192Y-119181162D01*
X144504192Y-121233687D01*
X144131365Y-121233687D01*
X144109319Y-120596789D01*
X144100783Y-120411146D01*
X144065632Y-120077063D01*
X143999947Y-119844572D01*
X143893339Y-119695846D01*
X143735417Y-119613057D01*
X143515791Y-119578376D01*
X143375683Y-119567536D01*
X143265040Y-119540847D01*
X143228270Y-119478052D01*
X143233609Y-119353881D01*
X143249147Y-119253145D01*
X143309140Y-119162914D01*
X143448434Y-119129995D01*
X143625823Y-119148428D01*
G37*
G36*
X134797912Y-119134126D02*
G01*
X134859370Y-119142726D01*
X135190330Y-119256476D01*
X135449901Y-119464836D01*
X135627064Y-119751058D01*
X135710802Y-120098398D01*
X135690096Y-120490110D01*
X135678635Y-120539914D01*
X135554702Y-120806514D01*
X135352368Y-121045184D01*
X135110655Y-121207607D01*
X134910157Y-121272436D01*
X134551321Y-121291235D01*
X134205570Y-121196234D01*
X133904823Y-120993111D01*
X133817826Y-120905802D01*
X133742008Y-120793958D01*
X133769046Y-120718097D01*
X133898464Y-120652735D01*
X133936571Y-120639253D01*
X134074673Y-120628384D01*
X134203135Y-120713710D01*
X134295936Y-120786146D01*
X134538000Y-120881347D01*
X134788001Y-120876798D01*
X135011645Y-120776993D01*
X135174641Y-120586423D01*
X135267185Y-120310309D01*
X135262195Y-120031377D01*
X135160924Y-119791032D01*
X134973829Y-119613293D01*
X134711367Y-119522182D01*
X134544777Y-119509886D01*
X134408610Y-119545137D01*
X134277550Y-119652477D01*
X134192775Y-119729807D01*
X134079271Y-119782830D01*
X133951967Y-119758068D01*
X133894295Y-119732021D01*
X133804512Y-119636101D01*
X133836276Y-119509122D01*
X133989944Y-119347198D01*
X134018262Y-119323873D01*
X134242972Y-119182929D01*
X134486867Y-119123896D01*
X134797912Y-119134126D01*
G37*
G36*
X142959122Y-120771704D02*
G01*
X142749047Y-121042580D01*
X142451634Y-121225768D01*
X142156571Y-121294151D01*
X141807045Y-121268723D01*
X141481302Y-121140597D01*
X141215637Y-120918785D01*
X141072447Y-120708035D01*
X140959363Y-120384616D01*
X140957661Y-120322434D01*
X141387869Y-120322434D01*
X141486206Y-120577836D01*
X141501390Y-120600890D01*
X141638235Y-120754256D01*
X141782387Y-120850437D01*
X141961687Y-120902040D01*
X142152551Y-120890859D01*
X142364877Y-120789421D01*
X142425525Y-120747389D01*
X142600932Y-120536409D01*
X142678917Y-120272054D01*
X142646651Y-119990685D01*
X142545045Y-119776734D01*
X142356211Y-119604392D01*
X142080895Y-119521279D01*
X141856308Y-119534343D01*
X141639451Y-119643890D01*
X141479252Y-119829237D01*
X141390471Y-120064159D01*
X141387869Y-120322434D01*
X140957661Y-120322434D01*
X140950479Y-120060034D01*
X141035593Y-119754625D01*
X141204507Y-119488728D01*
X141447019Y-119282680D01*
X141752931Y-119156818D01*
X142112041Y-119131481D01*
X142287691Y-119157735D01*
X142622708Y-119289846D01*
X142876319Y-119513898D01*
X143036964Y-119817441D01*
X143093081Y-120188024D01*
X143086231Y-120272054D01*
X143073646Y-120426426D01*
X142959122Y-120771704D01*
G37*
G36*
X144183485Y-126429141D02*
G01*
X144183485Y-125334897D01*
X143992917Y-125475790D01*
X143989970Y-125477957D01*
X143722306Y-125600412D01*
X143426106Y-125616824D01*
X143130864Y-125535281D01*
X142866070Y-125363866D01*
X142661217Y-125110668D01*
X142642542Y-125076003D01*
X142541196Y-124761423D01*
X142533821Y-124515121D01*
X142959123Y-124515121D01*
X142996160Y-124772863D01*
X143130853Y-125013109D01*
X143232848Y-125119148D01*
X143373052Y-125192424D01*
X143574142Y-125210455D01*
X143737237Y-125200408D01*
X143884995Y-125142124D01*
X144024330Y-125004909D01*
X144047476Y-124976966D01*
X144141397Y-124835917D01*
X144175640Y-124690229D01*
X144166551Y-124479516D01*
X144141541Y-124329373D01*
X144026047Y-124075349D01*
X143831734Y-123917652D01*
X143565631Y-123863485D01*
X143329114Y-123914124D01*
X143136084Y-124058030D01*
X143009259Y-124267602D01*
X142959123Y-124515121D01*
X142533821Y-124515121D01*
X142531081Y-124423611D01*
X142605094Y-124096339D01*
X142756136Y-123813373D01*
X142977104Y-123608484D01*
X143068586Y-123561233D01*
X143371676Y-123486035D01*
X143691838Y-123500988D01*
X143975025Y-123606216D01*
X144088371Y-123670339D01*
X144164097Y-123688880D01*
X144183485Y-123638047D01*
X144183740Y-123631219D01*
X144241239Y-123564010D01*
X144407980Y-123542778D01*
X144632475Y-123542778D01*
X144632475Y-126429141D01*
X144183485Y-126429141D01*
G37*
G36*
X151608335Y-119444497D02*
G01*
X151399351Y-119728237D01*
X151099964Y-119941511D01*
X150835859Y-120037602D01*
X150455404Y-120070633D01*
X150085872Y-119991345D01*
X149753179Y-119806453D01*
X149483243Y-119522670D01*
X149397039Y-119375176D01*
X149298990Y-119044261D01*
X149303264Y-118829771D01*
X149881294Y-118829771D01*
X149925066Y-119082479D01*
X150079561Y-119314378D01*
X150201441Y-119411299D01*
X150447624Y-119499552D01*
X150700424Y-119479762D01*
X150929185Y-119357235D01*
X151103251Y-119137272D01*
X151145780Y-119030337D01*
X151160969Y-118788842D01*
X151079459Y-118568642D01*
X150923051Y-118390209D01*
X150713548Y-118274016D01*
X150472754Y-118240535D01*
X150222471Y-118310240D01*
X150108517Y-118384191D01*
X149943894Y-118586819D01*
X149881294Y-118829771D01*
X149303264Y-118829771D01*
X149305745Y-118705283D01*
X149405647Y-118379737D01*
X149587035Y-118089117D01*
X149838249Y-117854920D01*
X150147631Y-117698638D01*
X150503520Y-117641768D01*
X150774085Y-117641768D01*
X151272924Y-116770644D01*
X151368995Y-116604105D01*
X151540228Y-116313418D01*
X151688466Y-116069464D01*
X151728837Y-116006162D01*
X156306212Y-116006162D01*
X156306583Y-116031723D01*
X156352464Y-116240035D01*
X156493703Y-116428015D01*
X156509451Y-116443308D01*
X156731873Y-116583002D01*
X156967530Y-116619757D01*
X157192964Y-116568385D01*
X157384717Y-116443698D01*
X157519334Y-116260508D01*
X157573355Y-116033627D01*
X157523325Y-115777867D01*
X157415141Y-115594166D01*
X157210765Y-115445311D01*
X156928421Y-115396818D01*
X156749233Y-115423288D01*
X156521418Y-115548198D01*
X156364590Y-115751454D01*
X156306212Y-116006162D01*
X151728837Y-116006162D01*
X151800410Y-115893935D01*
X151862762Y-115808523D01*
X151879200Y-115795883D01*
X151944652Y-115771482D01*
X152059876Y-115752487D01*
X152237956Y-115738296D01*
X152491974Y-115728306D01*
X152835014Y-115721915D01*
X153280157Y-115718522D01*
X153840489Y-115717525D01*
X155727218Y-115717525D01*
X155816391Y-115509066D01*
X155969693Y-115263324D01*
X156200367Y-115036862D01*
X156454706Y-114887767D01*
X156592191Y-114847110D01*
X156936346Y-114818290D01*
X157290160Y-114870700D01*
X157611741Y-114995508D01*
X157859195Y-115183881D01*
X157947687Y-115296055D01*
X158101212Y-115621175D01*
X158153381Y-115979174D01*
X158146306Y-116033627D01*
X158106465Y-116340251D01*
X157962734Y-116674605D01*
X157724459Y-116952436D01*
X157705040Y-116968242D01*
X157469102Y-117111251D01*
X157194933Y-117215723D01*
X156947626Y-117256204D01*
X156856810Y-117250734D01*
X156544844Y-117164235D01*
X156240345Y-116993181D01*
X155983561Y-116764285D01*
X155814737Y-116504260D01*
X155727218Y-116294798D01*
X152230740Y-116294798D01*
X151761383Y-117102530D01*
X151292026Y-117910261D01*
X151418384Y-118048615D01*
X151457954Y-118094030D01*
X151651725Y-118415056D01*
X151738636Y-118763447D01*
X151737491Y-118788842D01*
X151722801Y-119114747D01*
X151608335Y-119444497D01*
G37*
G36*
X144162114Y-116406391D02*
G01*
X144052530Y-116667432D01*
X143855718Y-116846702D01*
X143791018Y-116876886D01*
X143525628Y-116929282D01*
X143235868Y-116905674D01*
X142980833Y-116808632D01*
X142867488Y-116744509D01*
X142791761Y-116725968D01*
X142772374Y-116776801D01*
X142772119Y-116783629D01*
X142714620Y-116850838D01*
X142547879Y-116872071D01*
X142323384Y-116872071D01*
X142323742Y-116214621D01*
X142324852Y-116160188D01*
X142792192Y-116160188D01*
X142843870Y-116313772D01*
X142985698Y-116450182D01*
X143125293Y-116526922D01*
X143343101Y-116581661D01*
X143542071Y-116532319D01*
X143561598Y-116521799D01*
X143692401Y-116384067D01*
X143718914Y-116207201D01*
X143633496Y-116032943D01*
X143485152Y-115947391D01*
X143271547Y-115910264D01*
X143048987Y-115925216D01*
X142872985Y-115995014D01*
X142839566Y-116025378D01*
X142792192Y-116160188D01*
X142324852Y-116160188D01*
X142331564Y-115831091D01*
X142361859Y-115496156D01*
X142419616Y-115251252D01*
X142509721Y-115076705D01*
X142637060Y-114952835D01*
X142822766Y-114853637D01*
X143131174Y-114781380D01*
X143453818Y-114789005D01*
X143750703Y-114874091D01*
X143981834Y-115034219D01*
X144124606Y-115186192D01*
X143970818Y-115286958D01*
X143893920Y-115333577D01*
X143804102Y-115352096D01*
X143720446Y-115291139D01*
X143704247Y-115277118D01*
X143562313Y-115207089D01*
X143374507Y-115161296D01*
X143314132Y-115154659D01*
X143119137Y-115170242D01*
X142948763Y-115267083D01*
X142934314Y-115278834D01*
X142819468Y-115403595D01*
X142772360Y-115513721D01*
X142772482Y-115519925D01*
X142793896Y-115572122D01*
X142869330Y-115602934D01*
X143023497Y-115617589D01*
X143281107Y-115621313D01*
X143420186Y-115621928D01*
X143632377Y-115630827D01*
X143772327Y-115658362D01*
X143877830Y-115714623D01*
X143986677Y-115809702D01*
X144035470Y-115858869D01*
X144150453Y-116029963D01*
X144178175Y-116207201D01*
X144181212Y-116226621D01*
X144162114Y-116406391D01*
G37*
G36*
X140399142Y-125595303D02*
G01*
X139950152Y-125595303D01*
X139950152Y-123542778D01*
X140399142Y-123542778D01*
X140399142Y-125595303D01*
G37*
G36*
X136819931Y-122924842D02*
G01*
X136862201Y-123016395D01*
X136883885Y-123206035D01*
X136890851Y-123299700D01*
X136916173Y-123441424D01*
X136971911Y-123506496D01*
X137079823Y-123531003D01*
X137104831Y-123534317D01*
X137223907Y-123583498D01*
X137256212Y-123699374D01*
X137255118Y-123727726D01*
X137206883Y-123831452D01*
X137063788Y-123885934D01*
X136871364Y-123924419D01*
X136869324Y-124583472D01*
X136869095Y-124634435D01*
X136861209Y-124954999D01*
X136836714Y-125177381D01*
X136787526Y-125327985D01*
X136705558Y-125433215D01*
X136582727Y-125519476D01*
X136560835Y-125530471D01*
X136397365Y-125570782D01*
X136197879Y-125578962D01*
X136153024Y-125575977D01*
X136009261Y-125552375D01*
X135945261Y-125488781D01*
X135921044Y-125352488D01*
X135915534Y-125213530D01*
X135954788Y-125165964D01*
X136066195Y-125183262D01*
X136075455Y-125185538D01*
X136221482Y-125200434D01*
X136321261Y-125151810D01*
X136382719Y-125023681D01*
X136413781Y-124800064D01*
X136422374Y-124464974D01*
X136422374Y-123863485D01*
X136197879Y-123863485D01*
X136065635Y-123855965D01*
X135990157Y-123811572D01*
X135973384Y-123703131D01*
X135983911Y-123608671D01*
X136046062Y-123554758D01*
X136197879Y-123542778D01*
X136291537Y-123541311D01*
X136382990Y-123517270D01*
X136417219Y-123435611D01*
X136422374Y-123261004D01*
X136423686Y-123194953D01*
X136458503Y-123014764D01*
X136557887Y-122925443D01*
X136744813Y-122901364D01*
X136819931Y-122924842D01*
G37*
G36*
X130814454Y-116099944D02*
G01*
X130707215Y-116401468D01*
X130513156Y-116658504D01*
X130232727Y-116845667D01*
X130120744Y-116885096D01*
X129838922Y-116928331D01*
X129550144Y-116915340D01*
X129315527Y-116846094D01*
X129314028Y-116845311D01*
X129145648Y-116731823D01*
X128983651Y-116586150D01*
X128900654Y-116489738D01*
X128869979Y-116411450D01*
X128919509Y-116356543D01*
X128920460Y-116355943D01*
X129050236Y-116302787D01*
X129189533Y-116323031D01*
X129381303Y-116422841D01*
X129431284Y-116451582D01*
X129713214Y-116545978D01*
X129974072Y-116516545D01*
X130205591Y-116363873D01*
X130237083Y-116332052D01*
X130356221Y-116196911D01*
X130399760Y-116100501D01*
X130357171Y-116035716D01*
X130217926Y-115995447D01*
X129971494Y-115972587D01*
X129607349Y-115960030D01*
X128821616Y-115942020D01*
X128801078Y-115763114D01*
X128814592Y-115559019D01*
X128817808Y-115550846D01*
X129257625Y-115550846D01*
X129305443Y-115581158D01*
X129451882Y-115611834D01*
X129659696Y-115632709D01*
X129891644Y-115642425D01*
X130110488Y-115639624D01*
X130278986Y-115622949D01*
X130359899Y-115591040D01*
X130363585Y-115564526D01*
X130314132Y-115458662D01*
X130201785Y-115323937D01*
X130187726Y-115309955D01*
X130047585Y-115191048D01*
X129917447Y-115148613D01*
X129733191Y-115160252D01*
X129567429Y-115203969D01*
X129390920Y-115302929D01*
X129277188Y-115427149D01*
X129257625Y-115550846D01*
X128817808Y-115550846D01*
X128919344Y-115292812D01*
X129098453Y-115055032D01*
X129326783Y-114887542D01*
X129378932Y-114863199D01*
X129677740Y-114770526D01*
X129958799Y-114782506D01*
X130267243Y-114899722D01*
X130366210Y-114956694D01*
X130610752Y-115182308D01*
X130766673Y-115464977D01*
X130788129Y-115564526D01*
X130834424Y-115779318D01*
X130814454Y-116099944D01*
G37*
G36*
X140510363Y-120681513D02*
G01*
X140343932Y-120970595D01*
X140079435Y-121178904D01*
X139953023Y-121234369D01*
X139664197Y-121293083D01*
X139385807Y-121271321D01*
X139162952Y-121169545D01*
X139132990Y-121146229D01*
X139002823Y-121058949D01*
X138940123Y-121058205D01*
X138923889Y-121141539D01*
X138921978Y-121163685D01*
X138866509Y-121218835D01*
X138715429Y-121221715D01*
X138506970Y-121201616D01*
X138506970Y-120160341D01*
X138927448Y-120160341D01*
X138950180Y-120423592D01*
X139060914Y-120656032D01*
X139253898Y-120821578D01*
X139497042Y-120904403D01*
X139735155Y-120877325D01*
X139955086Y-120725489D01*
X140065826Y-120595725D01*
X140126808Y-120444095D01*
X140141150Y-120228394D01*
X140140180Y-120188043D01*
X140080364Y-119901119D01*
X139944033Y-119687809D01*
X139753809Y-119557982D01*
X139532311Y-119521504D01*
X139302160Y-119588244D01*
X139085976Y-119768071D01*
X138998469Y-119902364D01*
X138927448Y-120160341D01*
X138506970Y-120160341D01*
X138506970Y-118379394D01*
X138715429Y-118359295D01*
X138923889Y-118339195D01*
X138923889Y-119433861D01*
X139164419Y-119269613D01*
X139286042Y-119194382D01*
X139466947Y-119133045D01*
X139684878Y-119136210D01*
X139760785Y-119146919D01*
X140090064Y-119261627D01*
X140339928Y-119473748D01*
X140503808Y-119775727D01*
X140575135Y-120160009D01*
X140575771Y-120228394D01*
X140576586Y-120316063D01*
X140510363Y-120681513D01*
G37*
G36*
X138530133Y-123505371D02*
G01*
X138748967Y-123606919D01*
X138774871Y-123627108D01*
X138907110Y-123716560D01*
X138971254Y-123719593D01*
X138988030Y-123638990D01*
X139027688Y-123571463D01*
X139180455Y-123542778D01*
X139372879Y-123542778D01*
X139372879Y-125603431D01*
X139164419Y-125583332D01*
X138955960Y-125563232D01*
X138923889Y-124835742D01*
X138919221Y-124732642D01*
X138902964Y-124445524D01*
X138882561Y-124253259D01*
X138852403Y-124129876D01*
X138806883Y-124049403D01*
X138740394Y-123985869D01*
X138566291Y-123893217D01*
X138331172Y-123871939D01*
X138118345Y-123954314D01*
X138116884Y-123955386D01*
X138062602Y-124011143D01*
X138024326Y-124100144D01*
X137997680Y-124246146D01*
X137978286Y-124472909D01*
X137961768Y-124804188D01*
X137929697Y-125563232D01*
X137544849Y-125563232D01*
X137524991Y-124889747D01*
X137521170Y-124593234D01*
X137539557Y-124225192D01*
X137591250Y-123951390D01*
X137680512Y-123752791D01*
X137811608Y-123610360D01*
X137993881Y-123518181D01*
X138260151Y-123475859D01*
X138530133Y-123505371D01*
G37*
G36*
X140321193Y-116315836D02*
G01*
X140168688Y-116596586D01*
X139931529Y-116810206D01*
X139836307Y-116858636D01*
X139536870Y-116929471D01*
X139219621Y-116912774D01*
X138939924Y-116808632D01*
X138826579Y-116744509D01*
X138750852Y-116725968D01*
X138731465Y-116776801D01*
X138731139Y-116784497D01*
X138672968Y-116851075D01*
X138505743Y-116872071D01*
X138280021Y-116872071D01*
X138291645Y-115911026D01*
X138735890Y-115911026D01*
X138796601Y-116165066D01*
X138955653Y-116396534D01*
X139097305Y-116499801D01*
X139342827Y-116551364D01*
X139377002Y-116550420D01*
X139619580Y-116482196D01*
X139804536Y-116326193D01*
X139921596Y-116110785D01*
X139960486Y-115864349D01*
X139910933Y-115615257D01*
X139762661Y-115391884D01*
X139569275Y-115248489D01*
X139354392Y-115204394D01*
X139296579Y-115206923D01*
X139053864Y-115282363D01*
X138873514Y-115442786D01*
X138764525Y-115661303D01*
X138735890Y-115911026D01*
X138291645Y-115911026D01*
X138297283Y-115444924D01*
X138314546Y-114017778D01*
X138699394Y-114017778D01*
X138718064Y-114549436D01*
X138736733Y-115081095D01*
X138928572Y-114944494D01*
X139002926Y-114899443D01*
X139277488Y-114816195D01*
X139582178Y-114817271D01*
X139864961Y-114904872D01*
X140104466Y-115088092D01*
X140280680Y-115354084D01*
X140376200Y-115666258D01*
X140384504Y-115864349D01*
X140390034Y-115996284D01*
X140321193Y-116315836D01*
G37*
G36*
X145030900Y-114575135D02*
G01*
X145049394Y-115172323D01*
X146423564Y-115208685D01*
X146442034Y-114613231D01*
X146460505Y-114017778D01*
X146845354Y-114017778D01*
X146862616Y-115444924D01*
X146879879Y-116872071D01*
X146428434Y-116872071D01*
X146428434Y-115653384D01*
X145017323Y-115653384D01*
X145017323Y-116872071D01*
X144565879Y-116872071D01*
X144583142Y-115444924D01*
X144600404Y-114017778D01*
X144806405Y-113997862D01*
X145012407Y-113977946D01*
X145030900Y-114575135D01*
G37*
G36*
X140178248Y-122644819D02*
G01*
X140342970Y-122699066D01*
X140444570Y-122828929D01*
X140465025Y-122991806D01*
X140386313Y-123145101D01*
X140321840Y-123187335D01*
X140174647Y-123222071D01*
X140084779Y-123210337D01*
X139939846Y-123111749D01*
X139886010Y-122933434D01*
X139897744Y-122843566D01*
X139996332Y-122698633D01*
X140174647Y-122644798D01*
X140178248Y-122644819D01*
G37*
G36*
X161517110Y-118684213D02*
G01*
X161266528Y-118969964D01*
X160915083Y-119180140D01*
X160899937Y-119186249D01*
X160645213Y-119234184D01*
X160338390Y-119220148D01*
X160031585Y-119150875D01*
X159776916Y-119033099D01*
X159515100Y-118792804D01*
X159335692Y-118478176D01*
X159255932Y-118124038D01*
X159265186Y-117993383D01*
X159834975Y-117993383D01*
X159879899Y-118219288D01*
X160052071Y-118449949D01*
X160094577Y-118490969D01*
X160285897Y-118627064D01*
X160475404Y-118668030D01*
X160515590Y-118666450D01*
X160702357Y-118607774D01*
X160898737Y-118449949D01*
X161012114Y-118317915D01*
X161112005Y-118091010D01*
X161084841Y-117863975D01*
X160930958Y-117628202D01*
X160822858Y-117520199D01*
X160675147Y-117440081D01*
X160475404Y-117420188D01*
X160327383Y-117429135D01*
X160171046Y-117487850D01*
X160019850Y-117628202D01*
X159916961Y-117763627D01*
X159834975Y-117993383D01*
X159265186Y-117993383D01*
X159281866Y-117757899D01*
X159419541Y-117407271D01*
X159436764Y-117377631D01*
X159522460Y-117207976D01*
X159542662Y-117091707D01*
X159506440Y-116984717D01*
X159475676Y-116929246D01*
X159383221Y-116767648D01*
X159242622Y-116524530D01*
X159063802Y-116216986D01*
X158856684Y-115862109D01*
X158631191Y-115476995D01*
X157831868Y-114113990D01*
X156045088Y-114113990D01*
X155926450Y-114386591D01*
X155926016Y-114387587D01*
X155721850Y-114715625D01*
X155438940Y-114974134D01*
X155105414Y-115143572D01*
X154749402Y-115204394D01*
X154489633Y-115163325D01*
X154178532Y-115028003D01*
X153898621Y-114823430D01*
X153693774Y-114575735D01*
X153609529Y-114396477D01*
X153531573Y-114070573D01*
X153531167Y-113877490D01*
X154126308Y-113877490D01*
X154151783Y-114126909D01*
X154301793Y-114367254D01*
X154467518Y-114506777D01*
X154715563Y-114593216D01*
X154973480Y-114554539D01*
X155229270Y-114390443D01*
X155327155Y-114254991D01*
X155380807Y-114027912D01*
X155355381Y-113783336D01*
X155256824Y-113563424D01*
X155091078Y-113410336D01*
X155070682Y-113399942D01*
X154809801Y-113338685D01*
X154542033Y-113385000D01*
X154312894Y-113531783D01*
X154225140Y-113636066D01*
X154126308Y-113877490D01*
X153531167Y-113877490D01*
X153530889Y-113745543D01*
X153611055Y-113469242D01*
X153617951Y-113456047D01*
X153862321Y-113122186D01*
X154185587Y-112879593D01*
X154567044Y-112743976D01*
X154699628Y-112729762D01*
X155029402Y-112770470D01*
X155353588Y-112899658D01*
X155632603Y-113098359D01*
X155826866Y-113347609D01*
X155924658Y-113536717D01*
X157040830Y-113536717D01*
X157119522Y-113536721D01*
X157501970Y-113537474D01*
X157779182Y-113541276D01*
X157970794Y-113550619D01*
X158096438Y-113567997D01*
X158175749Y-113595901D01*
X158228360Y-113636826D01*
X158273905Y-113693262D01*
X158330089Y-113778843D01*
X158443560Y-113963247D01*
X158482453Y-114027912D01*
X158602177Y-114226970D01*
X158796078Y-114553495D01*
X159015402Y-114926300D01*
X159250286Y-115328868D01*
X160109765Y-116807929D01*
X160422927Y-116807929D01*
X160482823Y-116808950D01*
X160888488Y-116876933D01*
X161223844Y-117043617D01*
X161477495Y-117298077D01*
X161638043Y-117629385D01*
X161694091Y-118026616D01*
X161687025Y-118091010D01*
X161660565Y-118332160D01*
X161517110Y-118684213D01*
G37*
G36*
X146428434Y-121233687D02*
G01*
X146428434Y-120161889D01*
X145976638Y-120124012D01*
X145743199Y-120094567D01*
X145400987Y-119994717D01*
X145152996Y-119828616D01*
X144985061Y-119588617D01*
X144954267Y-119515219D01*
X144904380Y-119210303D01*
X144913402Y-119169476D01*
X145356965Y-119169476D01*
X145364854Y-119352555D01*
X145495468Y-119536855D01*
X145536467Y-119575525D01*
X145652420Y-119650225D01*
X145805393Y-119685455D01*
X146040670Y-119694293D01*
X146428434Y-119694293D01*
X146428434Y-118796313D01*
X146016171Y-118796313D01*
X145817720Y-118799923D01*
X145660581Y-118820944D01*
X145558381Y-118871926D01*
X145470969Y-118965317D01*
X145470853Y-118965464D01*
X145356965Y-119169476D01*
X144913402Y-119169476D01*
X144969418Y-118915989D01*
X145139997Y-118657403D01*
X145406731Y-118459670D01*
X145477548Y-118428249D01*
X145658127Y-118380736D01*
X145906306Y-118355120D01*
X146252046Y-118347423D01*
X146877424Y-118347323D01*
X146877424Y-121233687D01*
X146428434Y-121233687D01*
G37*
G36*
X160234525Y-126628152D02*
G01*
X160052845Y-126927999D01*
X159795011Y-127168864D01*
X159469348Y-127326040D01*
X159289542Y-127369590D01*
X159057443Y-127377767D01*
X158787152Y-127322495D01*
X158696411Y-127289381D01*
X158482797Y-127169149D01*
X158270544Y-127006549D01*
X158098215Y-126833199D01*
X158004376Y-126680718D01*
X157989797Y-126646574D01*
X157952623Y-126611188D01*
X157878720Y-126586620D01*
X157749779Y-126570914D01*
X157547488Y-126562117D01*
X157253539Y-126558271D01*
X156849621Y-126557424D01*
X156496094Y-126555670D01*
X156137973Y-126547667D01*
X155887151Y-126532460D01*
X155731813Y-126509252D01*
X155660140Y-126477247D01*
X155658027Y-126474783D01*
X155601623Y-126390799D01*
X155490347Y-126212543D01*
X155410832Y-126082166D01*
X158486505Y-126082166D01*
X158518239Y-126330619D01*
X158674511Y-126562358D01*
X158690024Y-126577433D01*
X158912818Y-126717634D01*
X159148621Y-126754548D01*
X159374014Y-126703031D01*
X159565581Y-126577942D01*
X159699902Y-126394135D01*
X159753559Y-126166467D01*
X159703133Y-125909796D01*
X159574510Y-125709180D01*
X159366627Y-125562824D01*
X159124679Y-125511630D01*
X158880416Y-125561462D01*
X158665587Y-125718184D01*
X158579464Y-125831675D01*
X158486505Y-126082166D01*
X155410832Y-126082166D01*
X155333312Y-125955060D01*
X155139635Y-125633392D01*
X154918430Y-125262583D01*
X154678812Y-124857677D01*
X153771341Y-123318283D01*
X153387135Y-123284222D01*
X153385390Y-123284066D01*
X152960350Y-123194920D01*
X152616477Y-123014295D01*
X152361710Y-122748108D01*
X152203984Y-122402276D01*
X152181784Y-122319677D01*
X152144546Y-122123979D01*
X152146896Y-122069485D01*
X152778434Y-122069485D01*
X152793110Y-122233771D01*
X152892757Y-122453424D01*
X153097858Y-122612063D01*
X153299544Y-122685522D01*
X153556543Y-122679898D01*
X153778034Y-122554141D01*
X153951939Y-122312487D01*
X153955950Y-122304279D01*
X154023609Y-122140352D01*
X154028228Y-122013105D01*
X153973027Y-121852228D01*
X153923415Y-121753843D01*
X153738763Y-121554945D01*
X153497903Y-121461074D01*
X153224090Y-121483673D01*
X153000231Y-121597534D01*
X152836266Y-121802015D01*
X152778434Y-122069485D01*
X152146896Y-122069485D01*
X152151946Y-121952411D01*
X152203984Y-121732775D01*
X152283640Y-121521585D01*
X152484599Y-121232039D01*
X152751200Y-121024800D01*
X153061799Y-120901237D01*
X153394756Y-120862719D01*
X153728427Y-120910613D01*
X154041170Y-121046290D01*
X154311344Y-121271117D01*
X154517305Y-121586465D01*
X154599893Y-121841738D01*
X154611325Y-122013105D01*
X154622820Y-122185407D01*
X154556569Y-122511037D01*
X154404958Y-122778131D01*
X154357203Y-122848895D01*
X154318638Y-122970556D01*
X154344802Y-123036950D01*
X154428634Y-123201190D01*
X154561724Y-123445742D01*
X154735400Y-123754968D01*
X154940987Y-124113233D01*
X155169811Y-124504899D01*
X156020174Y-125948081D01*
X156924526Y-125965826D01*
X157828879Y-125983572D01*
X158002355Y-125628998D01*
X158126590Y-125418102D01*
X158393180Y-125144199D01*
X158727499Y-124979172D01*
X159128056Y-124923956D01*
X159195242Y-124925223D01*
X159541876Y-124985312D01*
X159838125Y-125145529D01*
X160111804Y-125419899D01*
X160239364Y-125621768D01*
X160336111Y-125950331D01*
X160333351Y-126166467D01*
X160331722Y-126294027D01*
X160234525Y-126628152D01*
G37*
G36*
X162085256Y-124182040D02*
G01*
X162022980Y-124272450D01*
X162018182Y-124277805D01*
X161976670Y-124306998D01*
X161904763Y-124329902D01*
X161788475Y-124347255D01*
X161613825Y-124359796D01*
X161366829Y-124368263D01*
X161033504Y-124373396D01*
X160599867Y-124375934D01*
X160051935Y-124376616D01*
X158168920Y-124376616D01*
X158046159Y-124617146D01*
X157942069Y-124794957D01*
X157756531Y-124998419D01*
X157492828Y-125167788D01*
X157490836Y-125168834D01*
X157260127Y-125240917D01*
X156966238Y-125268504D01*
X156666039Y-125250619D01*
X156416400Y-125186284D01*
X156199871Y-125064331D01*
X155945054Y-124806286D01*
X155784671Y-124473285D01*
X155728940Y-124081744D01*
X155735775Y-124012405D01*
X156306862Y-124012405D01*
X156332487Y-124260617D01*
X156482601Y-124497704D01*
X156687285Y-124661775D01*
X156924897Y-124724159D01*
X157187608Y-124664513D01*
X157294834Y-124602126D01*
X157463177Y-124418391D01*
X157560709Y-124189409D01*
X157563014Y-123960941D01*
X157550065Y-123915763D01*
X157417059Y-123682466D01*
X157214391Y-123532437D01*
X156972589Y-123474093D01*
X156722183Y-123515850D01*
X156493703Y-123666127D01*
X156405485Y-123771071D01*
X156306862Y-124012405D01*
X155735775Y-124012405D01*
X155757778Y-123789204D01*
X155889047Y-123460274D01*
X156135462Y-123175662D01*
X156153894Y-123159786D01*
X156478080Y-122961932D01*
X156830661Y-122875374D01*
X157187413Y-122895382D01*
X157524111Y-123017228D01*
X157816532Y-123236184D01*
X158040450Y-123547521D01*
X158169969Y-123801398D01*
X159910872Y-123784336D01*
X161651775Y-123767273D01*
X162100801Y-123006067D01*
X162125362Y-122964367D01*
X162300876Y-122659904D01*
X162415833Y-122443292D01*
X162478038Y-122296490D01*
X162495295Y-122201459D01*
X162475409Y-122140158D01*
X162364602Y-121969966D01*
X162184638Y-121569986D01*
X162124190Y-121187746D01*
X162133359Y-121131784D01*
X162719947Y-121131784D01*
X162726346Y-121382735D01*
X162834347Y-121608738D01*
X163039777Y-121778225D01*
X163122897Y-121816186D01*
X163394278Y-121864188D01*
X163643150Y-121786239D01*
X163866040Y-121583159D01*
X163866264Y-121582874D01*
X163982922Y-121353570D01*
X163992029Y-121127568D01*
X163913581Y-120921634D01*
X163767572Y-120752533D01*
X163573998Y-120637030D01*
X163352855Y-120591891D01*
X163124138Y-120633880D01*
X162907844Y-120779763D01*
X162819319Y-120887456D01*
X162719947Y-121131784D01*
X162133359Y-121131784D01*
X162182405Y-120832449D01*
X162358430Y-120513298D01*
X162651415Y-120239495D01*
X162769252Y-120161289D01*
X162924930Y-120088229D01*
X163102914Y-120054959D01*
X163355957Y-120047071D01*
X163442028Y-120047759D01*
X163680548Y-120064357D01*
X163854744Y-120111808D01*
X164013666Y-120201640D01*
X164204929Y-120358770D01*
X164433469Y-120659578D01*
X164558308Y-120997720D01*
X164564873Y-121127568D01*
X164576152Y-121350637D01*
X164483711Y-121695775D01*
X164277691Y-122010575D01*
X164105645Y-122188012D01*
X163922028Y-122324529D01*
X163716037Y-122401883D01*
X163437022Y-122446329D01*
X163092188Y-122484444D01*
X162601599Y-123326364D01*
X162518824Y-123467764D01*
X162346885Y-123757285D01*
X162223237Y-123960941D01*
X162197793Y-124002848D01*
X162085256Y-124182040D01*
G37*
G36*
X161629931Y-122386560D02*
G01*
X161482587Y-122701778D01*
X161256176Y-122970377D01*
X160959118Y-123165648D01*
X160748728Y-123240371D01*
X160386415Y-123278172D01*
X160044865Y-123210761D01*
X159741752Y-123052443D01*
X159494752Y-122817523D01*
X159321539Y-122520308D01*
X159239788Y-122175101D01*
X159249202Y-122044840D01*
X159822896Y-122044840D01*
X159854443Y-122271329D01*
X159975228Y-122471800D01*
X160189871Y-122618157D01*
X160214560Y-122628244D01*
X160378475Y-122684706D01*
X160489379Y-122706371D01*
X160515287Y-122704210D01*
X160701894Y-122633953D01*
X160888450Y-122492763D01*
X161023868Y-122317783D01*
X161055927Y-122244178D01*
X161086462Y-121997732D01*
X161015018Y-121768573D01*
X160860957Y-121582969D01*
X160643639Y-121467189D01*
X160382426Y-121447501D01*
X160217464Y-121490209D01*
X160009027Y-121626185D01*
X159875964Y-121820426D01*
X159822896Y-122044840D01*
X159249202Y-122044840D01*
X159267172Y-121796210D01*
X159307741Y-121654507D01*
X159487042Y-121323299D01*
X159757181Y-121070500D01*
X160102534Y-120908057D01*
X160507475Y-120847915D01*
X160828182Y-120844174D01*
X161629950Y-119459562D01*
X161799902Y-119165673D01*
X162009062Y-118802851D01*
X162191426Y-118485227D01*
X162337587Y-118229237D01*
X162438141Y-118051312D01*
X162483682Y-117967889D01*
X162487450Y-117957704D01*
X162477774Y-117859300D01*
X162409805Y-117687885D01*
X162278609Y-117432658D01*
X162079249Y-117082815D01*
X161622850Y-116304799D01*
X161284569Y-116339713D01*
X161222346Y-116344785D01*
X160852459Y-116314429D01*
X160537287Y-116188903D01*
X160282224Y-115987237D01*
X160092667Y-115728460D01*
X159974012Y-115431602D01*
X159931653Y-115115692D01*
X159936669Y-115075407D01*
X160539267Y-115075407D01*
X160556028Y-115309259D01*
X160660261Y-115521937D01*
X160858969Y-115684791D01*
X161106783Y-115764462D01*
X161358895Y-115742992D01*
X161566128Y-115619434D01*
X161706551Y-115407536D01*
X161758232Y-115121047D01*
X161731763Y-114941859D01*
X161606853Y-114714044D01*
X161403597Y-114557217D01*
X161148889Y-114498838D01*
X160943769Y-114533319D01*
X160740141Y-114658786D01*
X160602972Y-114849033D01*
X160539267Y-115075407D01*
X159936669Y-115075407D01*
X159970988Y-114799761D01*
X160097410Y-114502837D01*
X160316317Y-114243950D01*
X160633104Y-114042130D01*
X160735648Y-114000558D01*
X161113503Y-113927039D01*
X161480766Y-113969541D01*
X161815574Y-114119359D01*
X162096064Y-114367785D01*
X162300373Y-114706113D01*
X162301991Y-114709998D01*
X162386858Y-115014667D01*
X162382582Y-115121047D01*
X162374739Y-115316184D01*
X162264040Y-115656192D01*
X162128434Y-115971418D01*
X162648889Y-116867223D01*
X162761371Y-117063359D01*
X162923269Y-117355659D01*
X163052604Y-117601731D01*
X163138315Y-117780265D01*
X163169344Y-117869952D01*
X163168961Y-117873746D01*
X163131284Y-117966497D01*
X163037809Y-118152912D01*
X162896807Y-118417701D01*
X162716551Y-118745579D01*
X162505312Y-119121258D01*
X162271364Y-119529451D01*
X162242841Y-119578805D01*
X162011482Y-119982146D01*
X161803724Y-120349534D01*
X161627802Y-120666015D01*
X161491948Y-120916632D01*
X161404397Y-121086430D01*
X161373384Y-121160453D01*
X161373982Y-121168638D01*
X161417496Y-121277912D01*
X161508793Y-121422032D01*
X161513364Y-121428273D01*
X161653739Y-121723100D01*
X161683892Y-121997732D01*
X161689788Y-122051432D01*
X161629931Y-122386560D01*
G37*
G36*
X132938452Y-118604560D02*
G01*
X133034581Y-118626213D01*
X133079314Y-118705001D01*
X133099368Y-118876490D01*
X133102045Y-118911390D01*
X133126587Y-119068694D01*
X133182537Y-119141955D01*
X133295480Y-119169387D01*
X133358434Y-119179512D01*
X133449897Y-119236511D01*
X133471869Y-119373586D01*
X133469105Y-119439540D01*
X133424529Y-119540029D01*
X133295480Y-119577785D01*
X133119091Y-119598081D01*
X133087020Y-120293501D01*
X133084118Y-120355462D01*
X133067531Y-120646908D01*
X133046933Y-120841634D01*
X133016191Y-120966528D01*
X132969170Y-121048478D01*
X132899735Y-121114374D01*
X132863097Y-121141645D01*
X132690532Y-121212395D01*
X132450745Y-121220721D01*
X132381083Y-121215635D01*
X132231925Y-121191095D01*
X132162806Y-121136449D01*
X132137070Y-121029330D01*
X132136102Y-121020744D01*
X132138478Y-120910839D01*
X132201048Y-120859449D01*
X132357855Y-120836905D01*
X132508649Y-120813496D01*
X132599978Y-120747725D01*
X132653304Y-120604005D01*
X132673988Y-120482473D01*
X132690451Y-120247678D01*
X132689085Y-119994662D01*
X132670101Y-119598081D01*
X132429571Y-119578173D01*
X132425658Y-119577848D01*
X132269199Y-119553835D01*
X132202829Y-119496382D01*
X132189041Y-119373586D01*
X132189043Y-119370582D01*
X132203453Y-119249259D01*
X132271126Y-119192698D01*
X132429571Y-119168998D01*
X132511571Y-119161198D01*
X132622418Y-119130169D01*
X132670398Y-119048122D01*
X132689824Y-118876490D01*
X132694950Y-118811955D01*
X132719727Y-118672652D01*
X132777370Y-118615152D01*
X132894596Y-118603889D01*
X132938452Y-118604560D01*
G37*
G36*
X137961528Y-119962830D02*
G01*
X137958639Y-120309338D01*
X137947856Y-120555356D01*
X137925650Y-120728053D01*
X137888488Y-120854884D01*
X137832840Y-120963303D01*
X137817100Y-120987936D01*
X137689360Y-121139257D01*
X137560479Y-121231838D01*
X137433485Y-121270976D01*
X137112795Y-121279378D01*
X136790470Y-121169545D01*
X136642281Y-121092140D01*
X136537406Y-121050494D01*
X136494653Y-121066573D01*
X136486515Y-121137475D01*
X136446858Y-121205002D01*
X136294091Y-121233687D01*
X136101667Y-121233687D01*
X136101667Y-119181162D01*
X136550657Y-119181162D01*
X136550657Y-119859580D01*
X136550883Y-120024820D01*
X136555081Y-120275079D01*
X136569561Y-120440966D01*
X136600667Y-120551791D01*
X136654747Y-120636862D01*
X136738147Y-120725489D01*
X136929192Y-120865318D01*
X137146638Y-120906487D01*
X137356200Y-120822151D01*
X137357662Y-120821078D01*
X137411944Y-120765322D01*
X137450220Y-120676321D01*
X137476866Y-120530318D01*
X137496260Y-120303556D01*
X137512778Y-119972277D01*
X137544849Y-119213232D01*
X137753308Y-119193133D01*
X137961768Y-119173034D01*
X137961528Y-119962830D01*
G37*
G36*
X159187501Y-120072734D02*
G01*
X159133440Y-120205136D01*
X159030963Y-120413832D01*
X158893441Y-120675103D01*
X158734243Y-120965233D01*
X158566737Y-121260503D01*
X158404294Y-121537195D01*
X158260283Y-121771591D01*
X158148073Y-121939974D01*
X158081034Y-122018626D01*
X158018664Y-122031186D01*
X157843945Y-122043154D01*
X157581801Y-122050908D01*
X157254637Y-122053837D01*
X156884856Y-122051328D01*
X155763753Y-122035455D01*
X155325330Y-121297828D01*
X155310677Y-121273153D01*
X155133758Y-120971884D01*
X154970022Y-120687512D01*
X154837139Y-120451033D01*
X154752779Y-120293444D01*
X154631648Y-120052535D01*
X155324170Y-120052535D01*
X155329826Y-120075175D01*
X155384946Y-120193640D01*
X155485590Y-120380935D01*
X155615470Y-120609294D01*
X155758298Y-120850948D01*
X155897789Y-121078129D01*
X156017656Y-121263071D01*
X156101611Y-121378005D01*
X156154391Y-121422939D01*
X156245554Y-121457052D01*
X156393883Y-121477569D01*
X156623058Y-121487600D01*
X156956763Y-121490252D01*
X157715714Y-121490252D01*
X157865992Y-121249722D01*
X157940149Y-121130258D01*
X158129379Y-120818365D01*
X158296461Y-120533304D01*
X158429830Y-120295499D01*
X158517921Y-120125370D01*
X158549169Y-120043340D01*
X158549111Y-120042512D01*
X158515290Y-119963822D01*
X158428231Y-119799732D01*
X158300853Y-119573764D01*
X158146077Y-119309444D01*
X157744979Y-118635960D01*
X156986587Y-118617829D01*
X156828578Y-118615033D01*
X156485364Y-118618578D01*
X156253806Y-118637530D01*
X156141813Y-118671388D01*
X156089560Y-118733653D01*
X155985499Y-118886061D01*
X155852360Y-119096616D01*
X155706534Y-119337629D01*
X155564411Y-119581415D01*
X155442382Y-119800286D01*
X155356838Y-119966555D01*
X155324170Y-120052535D01*
X154631648Y-120052535D01*
X154618651Y-120026687D01*
X155149097Y-119106828D01*
X155273212Y-118894129D01*
X155448851Y-118601897D01*
X155600662Y-118359499D01*
X155715606Y-118187581D01*
X155780642Y-118106793D01*
X155817396Y-118092384D01*
X155970094Y-118068866D01*
X156209847Y-118049918D01*
X156509884Y-118035903D01*
X156843436Y-118027184D01*
X157183732Y-118024122D01*
X157504001Y-118027081D01*
X157777474Y-118036423D01*
X157977379Y-118052510D01*
X158076947Y-118075704D01*
X158098150Y-118095915D01*
X158185239Y-118214552D01*
X158312151Y-118412831D01*
X158465517Y-118667133D01*
X158631969Y-118953837D01*
X158798136Y-119249324D01*
X158950650Y-119529974D01*
X159076140Y-119772167D01*
X159161239Y-119952284D01*
X159191459Y-120043340D01*
X159192576Y-120046705D01*
X159187501Y-120072734D01*
G37*
G36*
X137743520Y-114819545D02*
G01*
X137767429Y-114819803D01*
X137905435Y-114833759D01*
X137961768Y-114862454D01*
X137959451Y-114873741D01*
X137929153Y-114979011D01*
X137869956Y-115172737D01*
X137789755Y-115429975D01*
X137696443Y-115725782D01*
X137597913Y-116035211D01*
X137502060Y-116333320D01*
X137416777Y-116595163D01*
X137349958Y-116795797D01*
X137269615Y-116852505D01*
X137081864Y-116859938D01*
X136842343Y-116840000D01*
X136625093Y-116144917D01*
X136540860Y-115890921D01*
X136459092Y-115675410D01*
X136394757Y-115538913D01*
X136357078Y-115503503D01*
X136330271Y-115555243D01*
X136270590Y-115710718D01*
X136192198Y-115939850D01*
X136105024Y-116214621D01*
X135903734Y-116872071D01*
X135418410Y-116872071D01*
X135117764Y-115925985D01*
X135061155Y-115746287D01*
X134964689Y-115432066D01*
X134887489Y-115170036D01*
X134836328Y-114983475D01*
X134817978Y-114895658D01*
X134863819Y-114839582D01*
X135022358Y-114831517D01*
X135032737Y-114832529D01*
X135111723Y-114842671D01*
X135172947Y-114867551D01*
X135225415Y-114925220D01*
X135278131Y-115033731D01*
X135340100Y-115211136D01*
X135420325Y-115475487D01*
X135527812Y-115844835D01*
X135667081Y-116324923D01*
X135884708Y-115629711D01*
X135963982Y-115380105D01*
X136044415Y-115135015D01*
X136105415Y-114958275D01*
X136137857Y-114877022D01*
X136140162Y-114873819D01*
X136229570Y-114835381D01*
X136384529Y-114819545D01*
X136595679Y-114819545D01*
X136813008Y-115525101D01*
X136896294Y-115786508D01*
X136975549Y-116017049D01*
X137036052Y-116173203D01*
X137068981Y-116230657D01*
X137083186Y-116219462D01*
X137131337Y-116122383D01*
X137187122Y-115958056D01*
X137294672Y-115588747D01*
X137384303Y-115286380D01*
X137452088Y-115075477D01*
X137506031Y-114939656D01*
X137554140Y-114862534D01*
X137604421Y-114827730D01*
X137664879Y-114818861D01*
X137743520Y-114819545D01*
G37*
G36*
X134578570Y-116477126D02*
G01*
X134408333Y-116718131D01*
X134265014Y-116845056D01*
X134110979Y-116917970D01*
X133911237Y-116935972D01*
X133661269Y-116902829D01*
X133423763Y-116808632D01*
X133310417Y-116744509D01*
X133234691Y-116725968D01*
X133215303Y-116776801D01*
X133214705Y-116787154D01*
X133154456Y-116851798D01*
X132985711Y-116872071D01*
X132756119Y-116872071D01*
X132776028Y-116091161D01*
X133214723Y-116091161D01*
X133226847Y-116235484D01*
X133359621Y-116407145D01*
X133527832Y-116522454D01*
X133741863Y-116581209D01*
X133940085Y-116557790D01*
X134091485Y-116456959D01*
X134165051Y-116283478D01*
X134165543Y-116223572D01*
X134092675Y-116062995D01*
X133928139Y-115951779D01*
X133698127Y-115910825D01*
X133526973Y-115921848D01*
X133316885Y-115983507D01*
X133214723Y-116091161D01*
X132776028Y-116091161D01*
X132777251Y-116043202D01*
X132785029Y-115769840D01*
X132797189Y-115507811D01*
X132815750Y-115329731D01*
X132845185Y-115210512D01*
X132889964Y-115125062D01*
X132954560Y-115048290D01*
X133170198Y-114892529D01*
X133467610Y-114796103D01*
X133791470Y-114776822D01*
X134100747Y-114836746D01*
X134354414Y-114977939D01*
X134384725Y-115004132D01*
X134477649Y-115097644D01*
X134483349Y-115166441D01*
X134411492Y-115257957D01*
X134382242Y-115289948D01*
X134307672Y-115350575D01*
X134228064Y-115341673D01*
X134091386Y-115264268D01*
X134087416Y-115261863D01*
X133853046Y-115168113D01*
X133618803Y-115151821D01*
X133414534Y-115205276D01*
X133270085Y-115320767D01*
X133215303Y-115490585D01*
X133215324Y-115499379D01*
X133224632Y-115578307D01*
X133271500Y-115616413D01*
X133385928Y-115622788D01*
X133597920Y-115606525D01*
X133651047Y-115602274D01*
X134012365Y-115614320D01*
X134290075Y-115710246D01*
X134500305Y-115895211D01*
X134556799Y-115979231D01*
X134628287Y-116223572D01*
X134628708Y-116225011D01*
X134578570Y-116477126D01*
G37*
%TO.C,TP12*%
X216465000Y-133350000D02*
G75*
G03*
X216465000Y-133350000I-1200000J0D01*
G01*
%TO.C,BT1*%
X92750000Y-99550000D02*
X97750000Y-99550000D01*
X92200000Y-102550000D02*
X92200000Y-100100000D01*
X98300000Y-100100000D02*
X98300000Y-102550000D01*
X91730000Y-103250000D02*
G75*
G03*
X95765991Y-126863443I3520000J-11550000D01*
G01*
X94734009Y-126863443D02*
G75*
G03*
X98770000Y-103250000I515991J12063443D01*
G01*
X92750000Y-99550000D02*
G75*
G03*
X92200000Y-100100000I-1J-549999D01*
G01*
X98300000Y-102550000D02*
G75*
G03*
X98793485Y-103254769I750000J0D01*
G01*
X98300000Y-100100000D02*
G75*
G03*
X97750000Y-99550000I-549999J1D01*
G01*
X91706515Y-103254769D02*
G75*
G03*
X92200000Y-102550000I-256515J704769D01*
G01*
%TD*%
%LPC*%
D12*
%TO.C,H4*%
X215000000Y-140000000D03*
%TD*%
D13*
%TO.C,RV1*%
X145665000Y-88382500D03*
X148205000Y-85842500D03*
X145665000Y-83302500D03*
%TD*%
D14*
%TO.C,TP9*%
X147955000Y-62865000D03*
%TD*%
D15*
%TO.C,U5*%
X127127000Y-78613000D03*
D16*
X129667000Y-78613000D03*
X132207000Y-78613000D03*
X134747000Y-78613000D03*
X137287000Y-78613000D03*
X137287000Y-63373000D03*
X134747000Y-63373000D03*
X132207000Y-63373000D03*
X129667000Y-63373000D03*
X127127000Y-63373000D03*
%TD*%
D14*
%TO.C,TP7*%
X142240000Y-74295000D03*
%TD*%
D17*
%TO.C,U2*%
X110490000Y-89535000D03*
D18*
X110490000Y-86995000D03*
X110490000Y-84455000D03*
X110490000Y-81915000D03*
X110490000Y-79375000D03*
X110490000Y-76835000D03*
X110490000Y-74295000D03*
X110490000Y-71755000D03*
X110490000Y-69215000D03*
X110490000Y-66675000D03*
X110490000Y-64135000D03*
X110490000Y-61595000D03*
X102870000Y-61595000D03*
X102870000Y-64135000D03*
X102870000Y-66675000D03*
X102870000Y-69215000D03*
X102870000Y-71755000D03*
X102870000Y-74295000D03*
X102870000Y-76835000D03*
X102870000Y-79375000D03*
X102870000Y-81915000D03*
X102870000Y-84455000D03*
X102870000Y-86995000D03*
X102870000Y-89535000D03*
%TD*%
D14*
%TO.C,TP5*%
X154940000Y-74295000D03*
%TD*%
%TO.C,TP14*%
X207645000Y-64770000D03*
%TD*%
%TO.C,TP10*%
X161290000Y-74295000D03*
%TD*%
D17*
%TO.C,U1*%
X85100000Y-78740000D03*
D18*
X87640000Y-78740000D03*
X90180000Y-78740000D03*
X92720000Y-78740000D03*
X92720000Y-71120000D03*
X90180000Y-71120000D03*
X87640000Y-71120000D03*
X85100000Y-71120000D03*
%TD*%
D14*
%TO.C,TP4*%
X161290000Y-62865000D03*
%TD*%
D19*
%TO.C,BZ1*%
X201930000Y-64135000D03*
D14*
X196930000Y-64135000D03*
%TD*%
D12*
%TO.C,H2*%
X215000000Y-60000000D03*
%TD*%
%TO.C,H3*%
X85000000Y-140000000D03*
%TD*%
D14*
%TO.C,TP1*%
X181610000Y-72390000D03*
%TD*%
D12*
%TO.C,H1*%
X85000000Y-60000000D03*
%TD*%
D14*
%TO.C,TP6*%
X147955000Y-74295000D03*
%TD*%
%TO.C,TP2*%
X215265000Y-128905000D03*
%TD*%
%TO.C,TP3*%
X154940000Y-62865000D03*
%TD*%
%TO.C,TP13*%
X207645000Y-69215000D03*
%TD*%
%TO.C,TP11*%
X120015000Y-73660000D03*
%TD*%
%TO.C,TP8*%
X141605000Y-62865000D03*
%TD*%
D15*
%TO.C,U4*%
X165227000Y-78613000D03*
D16*
X167767000Y-78613000D03*
X170307000Y-78613000D03*
X172847000Y-78613000D03*
X175387000Y-78613000D03*
X175387000Y-63373000D03*
X172847000Y-63373000D03*
X170307000Y-63373000D03*
X167767000Y-63373000D03*
X165227000Y-63373000D03*
%TD*%
D17*
%TO.C,UI1*%
X200035000Y-73670000D03*
D18*
X200035000Y-76210000D03*
X200035000Y-78750000D03*
X200035000Y-81290000D03*
X200035000Y-83830000D03*
X200035000Y-86370000D03*
X200035000Y-88910000D03*
X200035000Y-91450000D03*
X200035000Y-93990000D03*
X200035000Y-96530000D03*
X200035000Y-99070000D03*
X200035000Y-101610000D03*
X200035000Y-104150000D03*
X200035000Y-106690000D03*
X207655000Y-106690000D03*
X207655000Y-104150000D03*
X207655000Y-101610000D03*
X207655000Y-99070000D03*
X207655000Y-96530000D03*
X207655000Y-93990000D03*
X207655000Y-91450000D03*
X207655000Y-88910000D03*
X207655000Y-86370000D03*
X207655000Y-83830000D03*
X207655000Y-81290000D03*
X207655000Y-78750000D03*
X207655000Y-76210000D03*
X207655000Y-73670000D03*
%TD*%
D20*
%TO.C,DS1*%
X188880000Y-96520000D03*
X113880900Y-96520000D03*
X113880900Y-127520700D03*
X188879480Y-127520700D03*
D21*
X119380000Y-96520000D03*
D22*
X121920000Y-96520000D03*
X124460000Y-96520000D03*
X127000000Y-96520000D03*
X129540000Y-96520000D03*
X132080000Y-96520000D03*
X134620000Y-96520000D03*
X137160000Y-96520000D03*
X139700000Y-96520000D03*
X142240000Y-96520000D03*
X144780000Y-96520000D03*
X147320000Y-96520000D03*
X149860000Y-96520000D03*
X152400000Y-96520000D03*
X154940000Y-96520000D03*
X157480000Y-96520000D03*
%TD*%
D23*
%TO.C,J2*%
X191890000Y-134295000D03*
D24*
X197190000Y-136595000D03*
X194690000Y-140295000D03*
%TD*%
D15*
%TO.C,J1*%
X213360000Y-110490000D03*
D25*
X213360000Y-113030000D03*
X213360000Y-115570000D03*
X213360000Y-118110000D03*
X213360000Y-120650000D03*
X213360000Y-123190000D03*
%TD*%
D15*
%TO.C,J3*%
X215265000Y-95250000D03*
D25*
X212725000Y-95250000D03*
X215265000Y-97790000D03*
X212725000Y-97790000D03*
X215265000Y-100330000D03*
X212725000Y-100330000D03*
%TD*%
D14*
%TO.C,TP12*%
X215265000Y-133350000D03*
%TD*%
D26*
%TO.C,BT1*%
X95250000Y-101600000D03*
D20*
X95250000Y-122090000D03*
%TD*%
M02*
