%TF.GenerationSoftware,KiCad,Pcbnew,(6.0.5-0)*%
%TF.CreationDate,2022-07-17T22:17:14-04:00*%
%TF.ProjectId,Annahs_clock_hps,416e6e61-6873-45f6-936c-6f636b5f6870,rev?*%
%TF.SameCoordinates,Original*%
%TF.FileFunction,Soldermask,Bot*%
%TF.FilePolarity,Negative*%
%FSLAX46Y46*%
G04 Gerber Fmt 4.6, Leading zero omitted, Abs format (unit mm)*
G04 Created by KiCad (PCBNEW (6.0.5-0)) date 2022-07-17 22:17:14*
%MOMM*%
%LPD*%
G01*
G04 APERTURE LIST*
G04 Aperture macros list*
%AMRoundRect*
0 Rectangle with rounded corners*
0 $1 Rounding radius*
0 $2 $3 $4 $5 $6 $7 $8 $9 X,Y pos of 4 corners*
0 Add a 4 corners polygon primitive as box body*
4,1,4,$2,$3,$4,$5,$6,$7,$8,$9,$2,$3,0*
0 Add four circle primitives for the rounded corners*
1,1,$1+$1,$2,$3*
1,1,$1+$1,$4,$5*
1,1,$1+$1,$6,$7*
1,1,$1+$1,$8,$9*
0 Add four rect primitives between the rounded corners*
20,1,$1+$1,$2,$3,$4,$5,0*
20,1,$1+$1,$4,$5,$6,$7,0*
20,1,$1+$1,$6,$7,$8,$9,0*
20,1,$1+$1,$8,$9,$2,$3,0*%
G04 Aperture macros list end*
%ADD10C,3.200000*%
%ADD11C,1.440000*%
%ADD12C,2.000000*%
%ADD13R,1.700000X1.700000*%
%ADD14C,1.700000*%
%ADD15R,1.600000X1.600000*%
%ADD16O,1.600000X1.600000*%
%ADD17R,2.000000X2.000000*%
%ADD18C,3.000000*%
%ADD19R,1.800000X2.600000*%
%ADD20O,1.800000X2.600000*%
%ADD21RoundRect,0.500000X1.750000X0.500000X-1.750000X0.500000X-1.750000X-0.500000X1.750000X-0.500000X0*%
%ADD22RoundRect,0.500000X-0.500000X1.500000X-0.500000X-1.500000X0.500000X-1.500000X0.500000X1.500000X0*%
%ADD23O,1.700000X1.700000*%
%ADD24R,3.000000X3.000000*%
G04 APERTURE END LIST*
D10*
%TO.C,H4*%
X215000000Y-140000000D03*
%TD*%
D11*
%TO.C,RV1*%
X145665000Y-88382500D03*
X148205000Y-85842500D03*
X145665000Y-83302500D03*
%TD*%
D12*
%TO.C,TP9*%
X147955000Y-62865000D03*
%TD*%
D13*
%TO.C,U5*%
X127127000Y-78613000D03*
D14*
X129667000Y-78613000D03*
X132207000Y-78613000D03*
X134747000Y-78613000D03*
X137287000Y-78613000D03*
X137287000Y-63373000D03*
X134747000Y-63373000D03*
X132207000Y-63373000D03*
X129667000Y-63373000D03*
X127127000Y-63373000D03*
%TD*%
D12*
%TO.C,TP7*%
X142240000Y-74295000D03*
%TD*%
D15*
%TO.C,U2*%
X110490000Y-89535000D03*
D16*
X110490000Y-86995000D03*
X110490000Y-84455000D03*
X110490000Y-81915000D03*
X110490000Y-79375000D03*
X110490000Y-76835000D03*
X110490000Y-74295000D03*
X110490000Y-71755000D03*
X110490000Y-69215000D03*
X110490000Y-66675000D03*
X110490000Y-64135000D03*
X110490000Y-61595000D03*
X102870000Y-61595000D03*
X102870000Y-64135000D03*
X102870000Y-66675000D03*
X102870000Y-69215000D03*
X102870000Y-71755000D03*
X102870000Y-74295000D03*
X102870000Y-76835000D03*
X102870000Y-79375000D03*
X102870000Y-81915000D03*
X102870000Y-84455000D03*
X102870000Y-86995000D03*
X102870000Y-89535000D03*
%TD*%
D12*
%TO.C,TP5*%
X154940000Y-74295000D03*
%TD*%
%TO.C,TP14*%
X207645000Y-64770000D03*
%TD*%
%TO.C,TP10*%
X161290000Y-74295000D03*
%TD*%
D15*
%TO.C,U1*%
X85100000Y-78740000D03*
D16*
X87640000Y-78740000D03*
X90180000Y-78740000D03*
X92720000Y-78740000D03*
X92720000Y-71120000D03*
X90180000Y-71120000D03*
X87640000Y-71120000D03*
X85100000Y-71120000D03*
%TD*%
D12*
%TO.C,TP4*%
X161290000Y-62865000D03*
%TD*%
D17*
%TO.C,BZ1*%
X201930000Y-64135000D03*
D12*
X196930000Y-64135000D03*
%TD*%
D10*
%TO.C,H2*%
X215000000Y-60000000D03*
%TD*%
%TO.C,H3*%
X85000000Y-140000000D03*
%TD*%
D12*
%TO.C,TP1*%
X181610000Y-72390000D03*
%TD*%
D10*
%TO.C,H1*%
X85000000Y-60000000D03*
%TD*%
D12*
%TO.C,TP6*%
X147955000Y-74295000D03*
%TD*%
%TO.C,TP2*%
X215265000Y-128905000D03*
%TD*%
%TO.C,TP3*%
X154940000Y-62865000D03*
%TD*%
%TO.C,TP13*%
X207645000Y-69215000D03*
%TD*%
%TO.C,TP11*%
X120015000Y-73660000D03*
%TD*%
%TO.C,TP8*%
X141605000Y-62865000D03*
%TD*%
D13*
%TO.C,U4*%
X165227000Y-78613000D03*
D14*
X167767000Y-78613000D03*
X170307000Y-78613000D03*
X172847000Y-78613000D03*
X175387000Y-78613000D03*
X175387000Y-63373000D03*
X172847000Y-63373000D03*
X170307000Y-63373000D03*
X167767000Y-63373000D03*
X165227000Y-63373000D03*
%TD*%
D15*
%TO.C,UI1*%
X200035000Y-73670000D03*
D16*
X200035000Y-76210000D03*
X200035000Y-78750000D03*
X200035000Y-81290000D03*
X200035000Y-83830000D03*
X200035000Y-86370000D03*
X200035000Y-88910000D03*
X200035000Y-91450000D03*
X200035000Y-93990000D03*
X200035000Y-96530000D03*
X200035000Y-99070000D03*
X200035000Y-101610000D03*
X200035000Y-104150000D03*
X200035000Y-106690000D03*
X207655000Y-106690000D03*
X207655000Y-104150000D03*
X207655000Y-101610000D03*
X207655000Y-99070000D03*
X207655000Y-96530000D03*
X207655000Y-93990000D03*
X207655000Y-91450000D03*
X207655000Y-88910000D03*
X207655000Y-86370000D03*
X207655000Y-83830000D03*
X207655000Y-81290000D03*
X207655000Y-78750000D03*
X207655000Y-76210000D03*
X207655000Y-73670000D03*
%TD*%
D18*
%TO.C,DS1*%
X188880000Y-96520000D03*
X113880900Y-96520000D03*
X113880900Y-127520700D03*
X188879480Y-127520700D03*
D19*
X119380000Y-96520000D03*
D20*
X121920000Y-96520000D03*
X124460000Y-96520000D03*
X127000000Y-96520000D03*
X129540000Y-96520000D03*
X132080000Y-96520000D03*
X134620000Y-96520000D03*
X137160000Y-96520000D03*
X139700000Y-96520000D03*
X142240000Y-96520000D03*
X144780000Y-96520000D03*
X147320000Y-96520000D03*
X149860000Y-96520000D03*
X152400000Y-96520000D03*
X154940000Y-96520000D03*
X157480000Y-96520000D03*
%TD*%
D21*
%TO.C,J2*%
X191890000Y-134295000D03*
D22*
X197190000Y-136595000D03*
X194690000Y-140295000D03*
%TD*%
D13*
%TO.C,J1*%
X213360000Y-110490000D03*
D23*
X213360000Y-113030000D03*
X213360000Y-115570000D03*
X213360000Y-118110000D03*
X213360000Y-120650000D03*
X213360000Y-123190000D03*
%TD*%
D13*
%TO.C,J3*%
X215265000Y-95250000D03*
D23*
X212725000Y-95250000D03*
X215265000Y-97790000D03*
X212725000Y-97790000D03*
X215265000Y-100330000D03*
X212725000Y-100330000D03*
%TD*%
D12*
%TO.C,TP12*%
X215265000Y-133350000D03*
%TD*%
D24*
%TO.C,BT1*%
X95250000Y-101600000D03*
D18*
X95250000Y-122090000D03*
%TD*%
M02*
